{
.appVersion = "1352";
DisplayStrings = (
"/macroncomb.case/tildecomb_macroncomb.case/Otildemacron",
"/G.ss02/commaaccentcomb/Gcommaaccent.ss02",
"/H.ss02/Hbar.ss02",
"ABCDEFOGHIJKLIMINIM\012ORPQRSHTUVWXYZ/space",
"/space nnnnnn\012ooooooooo\012nn/Placeholder no/Placeholder oo\012o,o.o:o;/space ó,To/space Ta/space Feo/space Faro/space Fuga/space Fiesta/space Ro/space Ra/space Re/space Ru/space Ko/space Ka/space Ki/space Ke/space Ku\012nanebcbobmbcdefghijklmno/space Pa/space Pe/space Po/space Pu/space Pi/space \012pqreoestenemeunovowowoxyz",
"HH/Placeholder HO/Placeholder OO\012ABOCDEFGHIOJOHKLMNOPPOQOROSOTOUOVOWOXOYOZO/space Y/space OTRO\012Borrador/space Antonomasia/space Oraculo/space Laurel/space Kilometro,/space ó,/space n,/space p,/space o,/space ö,/space d/space o/space \012HHH/Placeholder H/Placeholder H/Placeholder H/Placeholder H/Placeholder H/Placeholder H/space 6,\0121/Placeholder 12/Placeholder 23/Placeholder 34/Placeholder 45/Placeholder 56/Placeholder 67/Placeholder 78/Placeholder 8\0129/Placeholder 90/Placeholder 0\01210917274057395456758241672690",
"1hh/Placeholder HO/Placeholder oo\012/m.titl onsoanto",

glyphs = (
{
glyphname = .notdef;
lastChange = "2021-08-02 21:05:32 +0000";
layers = (
{
layerId = "1C8B4FDB-B0E8-4411-8E26-068C67144FEF";
paths = (
{
closed = 1;
nodes = (
"436 0 LINE",
"444 9 LINE",
"444 573 LINE",
"436 582 LINE",
"49 582 LINE",
"40 573 LINE",
"40 9 LINE",
"49 0 LINE"
);
},
{
closed = 1;
nodes = (
"136 139 LINE",
"219 292 LINE",
"136 443 LINE",
"153 476 LINE",
"236 324 LINE",
"321 476 LINE",
"340 443 LINE",
"254 290 LINE",
"340 139 LINE",
"321 107 LINE",
"236 257 LINE",
"153 107 LINE"
);
},
{
closed = 1;
nodes = (
"56 566 LINE",
"430 566 LINE",
"430 16 LINE",
"56 16 LINE"
);
},
{
closed = 1;
nodes = (
"397 45 LINE",
"397 533 LINE",
"87 533 LINE",
"87 45 LINE"
);
}
);
width = 484;
}
);
note = .notdef;
},
{
glyphname = A;
lastChange = "2021-08-06 18:47:07 +0000";
layers = (
{
anchors = (
{
name = bottom;
position = "{186, 0}";
},
{
name = ogonek;
position = "{351, 10}";
},
{
name = top;
position = "{479, 545}";
}
);
background = {
paths = (
{
closed = 1;
nodes = (
"34 -11 LINE",
"34 -9 LINE",
"42 16 OFFCURVE",
"64 57 OFFCURVE",
"85 86 CURVE",
"114 98 OFFCURVE",
"176 111 OFFCURVE",
"268 115 CURVE",
"263 98 OFFCURVE",
"260 77 OFFCURVE",
"259 54 CURVE SMOOTH",
"259 29 OFFCURVE",
"263 11 OFFCURVE",
"272 1 CURVE SMOOTH",
"277 -4 OFFCURVE",
"283 -8 OFFCURVE",
"289 -7 CURVE SMOOTH",
"295 -6 LINE",
"297 -5 LINE",
"296 -3 LINE",
"295 4 OFFCURVE",
"294 9 OFFCURVE",
"294 14 CURVE SMOOTH",
"294 35 OFFCURVE",
"299 68 OFFCURVE",
"310 114 CURVE",
"325 115 OFFCURVE",
"345 108 OFFCURVE",
"345 105 CURVE",
"348 104 LINE",
"348 107 LINE SMOOTH",
"348 122 OFFCURVE",
"333 140 OFFCURVE",
"317 141 CURVE",
"328 188 OFFCURVE",
"344 236 OFFCURVE",
"363 286 CURVE SMOOTH",
"382 336 OFFCURVE",
"396 375 OFFCURVE",
"416 395 CURVE SMOOTH",
"417 396 LINE",
"416 397 LINE SMOOTH",
"412 401 OFFCURVE",
"406 410 OFFCURVE",
"395 421 CURVE SMOOTH",
"384 431 OFFCURVE",
"371 436 OFFCURVE",
"358 436 CURVE SMOOTH",
"337 436 OFFCURVE",
"305 416 OFFCURVE",
"263 375 CURVE SMOOTH",
"220 334 OFFCURVE",
"178 289 OFFCURVE",
"137 238 CURVE SMOOTH",
"95 187 OFFCURVE",
"65 149 OFFCURVE",
"46 122 CURVE",
"33 122 OFFCURVE",
"21 125 OFFCURVE",
"9 130 CURVE SMOOTH",
"7 131 OFFCURVE",
"4 132 OFFCURVE",
"1 132 CURVE SMOOTH",
"-2 132 OFFCURVE",
"-3 132 OFFCURVE",
"-4 131 CURVE SMOOTH",
"-11 122 OFFCURVE",
"2 96 OFFCURVE",
"29 94 CURVE",
"22 87 OFFCURVE",
"16 78 OFFCURVE",
"12 69 CURVE",
"4 57 OFFCURVE",
"0 45 OFFCURVE",
"0 32 CURVE SMOOTH",
"0 8 OFFCURVE",
"11 -6 OFFCURVE",
"32 -11 CURVE"
);
},
{
closed = 1;
nodes = (
"120 142 OFFCURVE",
"137 165 OFFCURVE",
"160 195 CURVE SMOOTH",
"183 225 OFFCURVE",
"209 255 OFFCURVE",
"236 286 CURVE SMOOTH",
"303 362 OFFCURVE",
"353 406 OFFCURVE",
"368 403 CURVE SMOOTH",
"370 403 OFFCURVE",
"373 402 OFFCURVE",
"377 401 CURVE",
"337 333 OFFCURVE",
"304 247 OFFCURVE",
"277 144 CURVE",
"246 145 OFFCURVE",
"191 139 OFFCURVE",
"110 126 CURVE"
);
}
);
};
layerId = "1C8B4FDB-B0E8-4411-8E26-068C67144FEF";
paths = (
{
closed = 1;
nodes = (
"54 23 OFFCURVE",
"81 75 OFFCURVE",
"108 112 CURVE",
"139 124 OFFCURVE",
"214 144 OFFCURVE",
"343 149 CURVE",
"335 126 OFFCURVE",
"330 95 OFFCURVE",
"330 67 CURVE SMOOTH",
"330 26 OFFCURVE",
"341 -10 OFFCURVE",
"371 -3 CURVE",
"370 3 OFFCURVE",
"369 11 OFFCURVE",
"369 20 CURVE SMOOTH",
"369 62 OFFCURVE",
"383 126 OFFCURVE",
"389 148 CURVE",
"411 150 OFFCURVE",
"436 136 OFFCURVE",
"436 136 CURVE",
"436 154 OFFCURVE",
"416 176 OFFCURVE",
"396 176 CURVE",
"425 298 OFFCURVE",
"482 443 OFFCURVE",
"521 497 CURVE",
"521 497 OFFCURVE",
"490 545 OFFCURVE",
"451 545 CURVE SMOOTH",
"365 545 OFFCURVE",
"112 225 OFFCURVE",
"63 153 CURVE",
"45 153 OFFCURVE",
"27 156 OFFCURVE",
"14 162 CURVE SMOOTH",
"11 164 OFFCURVE",
"8 165 OFFCURVE",
"5 165 CURVE SMOOTH",
"1 165 OFFCURVE",
"-1 162 OFFCURVE",
"-1 158 CURVE SMOOTH",
"-1 146 OFFCURVE",
"15 124 OFFCURVE",
"45 123 CURVE",
"30 107 OFFCURVE",
"6 71 OFFCURVE",
"6 42 CURVE SMOOTH",
"6 19 OFFCURVE",
"13 -3 OFFCURVE",
"44 -9 CURVE"
);
},
{
closed = 1;
nodes = (
"182 234 OFFCURVE",
"409 509 OFFCURVE",
"468 509 CURVE SMOOTH",
"472 509 OFFCURVE",
"476 507 OFFCURVE",
"478 504 CURVE",
"404 379 OFFCURVE",
"361 217 OFFCURVE",
"351 180 CURVE",
"309 181 OFFCURVE",
"202 167 OFFCURVE",
"136 156 CURVE"
);
}
);
width = 450;
}
);
leftKerningGroup = A;
note = A;
rightKerningGroup = A;
unicode = 0041;
},
{
glyphname = AE;
lastChange = "2021-08-04 00:43:14 +0000";
layers = (
{
anchors = (
{
name = bottom;
position = "{314, 0}";
},
{
name = top;
position = "{628, 538}";
}
);
layerId = "1C8B4FDB-B0E8-4411-8E26-068C67144FEF";
paths = (
{
closed = 1;
nodes = (
"64 23 OFFCURVE",
"91 75 OFFCURVE",
"118 112 CURVE",
"148 123 OFFCURVE",
"218 133 OFFCURVE",
"342 138 CURVE",
"331 109 OFFCURVE",
"326 90 OFFCURVE",
"326 65 CURVE SMOOTH",
"326 41 OFFCURVE",
"346 3 OFFCURVE",
"405 3 CURVE SMOOTH",
"437 3 OFFCURVE",
"550 32 OFFCURVE",
"601 32 CURVE SMOOTH",
"607 32 OFFCURVE",
"611 32 OFFCURVE",
"615 31 CURVE",
"615 63 OFFCURVE",
"582 65 OFFCURVE",
"547 65 CURVE SMOOTH",
"496 65 OFFCURVE",
"449 48 OFFCURVE",
"405 48 CURVE SMOOTH",
"394 48 OFFCURVE",
"387 54 OFFCURVE",
"387 67 CURVE SMOOTH",
"387 122 OFFCURVE",
"436 235 OFFCURVE",
"434 231 CURVE",
"597 231 LINE",
"599 236 OFFCURVE",
"600 240 OFFCURVE",
"600 244 CURVE SMOOTH",
"600 261 OFFCURVE",
"584 272 OFFCURVE",
"553 272 CURVE SMOOTH",
"508 272 OFFCURVE",
"469 262 OFFCURVE",
"448 258 CURVE",
"462 298 OFFCURVE",
"552 450 OFFCURVE",
"576 474 CURVE SMOOTH",
"591 487 OFFCURVE",
"615 493 OFFCURVE",
"643 496 CURVE SMOOTH",
"662 498 OFFCURVE",
"686 499 OFFCURVE",
"708 499 CURVE SMOOTH",
"736 499 OFFCURVE",
"761 497 OFFCURVE",
"772 495 CURVE",
"772 521 OFFCURVE",
"768 538 OFFCURVE",
"717 538 CURVE SMOOTH",
"689 538 OFFCURVE",
"615 538 OFFCURVE",
"552 530 CURVE",
"543 535 OFFCURVE",
"534 539 OFFCURVE",
"523 540 CURVE SMOOTH",
"437 541 OFFCURVE",
"122 225 OFFCURVE",
"73 153 CURVE",
"55 153 OFFCURVE",
"37 156 OFFCURVE",
"24 162 CURVE SMOOTH",
"21 164 OFFCURVE",
"18 165 OFFCURVE",
"15 165 CURVE SMOOTH",
"11 165 OFFCURVE",
"9 162 OFFCURVE",
"9 158 CURVE SMOOTH",
"9 146 OFFCURVE",
"25 124 OFFCURVE",
"55 123 CURVE",
"40 107 OFFCURVE",
"16 71 OFFCURVE",
"16 42 CURVE SMOOTH",
"16 19 OFFCURVE",
"23 -3 OFFCURVE",
"54 -9 CURVE"
);
},
{
closed = 1;
nodes = (
"192 234 OFFCURVE",
"453 498 OFFCURVE",
"528 498 CURVE SMOOTH",
"534 498 OFFCURVE",
"539 497 OFFCURVE",
"542 493 CURVE",
"463 398 OFFCURVE",
"404 287 OFFCURVE",
"355 180 CURVE",
"310 179 OFFCURVE",
"209 167 OFFCURVE",
"146 156 CURVE"
);
}
);
width = 628;
}
);
note = AE;
unicode = 00C6;
},
{
glyphname = B;
lastChange = "2021-08-02 21:30:18 +0000";
layers = (
{
layerId = "1C8B4FDB-B0E8-4411-8E26-068C67144FEF";
paths = (
{
closed = 1;
nodes = (
"163 -20 LINE SMOOTH",
"244 -20 OFFCURVE",
"433 25 OFFCURVE",
"433 139 CURVE SMOOTH",
"433 206 OFFCURVE",
"355 235 OFFCURVE",
"276 236 CURVE",
"357 240 OFFCURVE",
"588 319 OFFCURVE",
"588 443 CURVE SMOOTH",
"588 499 OFFCURVE",
"554 546 OFFCURVE",
"465 546 CURVE SMOOTH",
"376 546 OFFCURVE",
"259 501 OFFCURVE",
"171 494 CURVE",
"167 485 OFFCURVE",
"164 477 OFFCURVE",
"164 471 CURVE SMOOTH",
"164 461 OFFCURVE",
"170 455 OFFCURVE",
"191 455 CURVE SMOOTH",
"222 455 OFFCURVE",
"251 464 OFFCURVE",
"253 462 CURVE",
"248 428 OFFCURVE",
"219 384 OFFCURVE",
"187 341 CURVE SMOOTH",
"131 266 OFFCURVE",
"27 105 OFFCURVE",
"27 48 CURVE SMOOTH",
"27 -14 OFFCURVE",
"84 -20 OFFCURVE",
"130 -20 CURVE SMOOTH"
);
},
{
closed = 1;
nodes = (
"89 2 OFFCURVE",
"75 14 OFFCURVE",
"75 29 CURVE SMOOTH",
"75 80 OFFCURVE",
"145 162 OFFCURVE",
"176 215 CURVE",
"187 216 OFFCURVE",
"207 217 OFFCURVE",
"231 217 CURVE SMOOTH",
"293 217 OFFCURVE",
"379 207 OFFCURVE",
"379 144 CURVE SMOOTH",
"379 85 OFFCURVE",
"249 2 OFFCURVE",
"158 2 CURVE SMOOTH"
);
},
{
closed = 1;
nodes = (
"213 279 OFFCURVE",
"285 381 OFFCURVE",
"285 441 CURVE SMOOTH",
"285 451 OFFCURVE",
"283 460 OFFCURVE",
"279 467 CURVE",
"342 477 OFFCURVE",
"409 496 OFFCURVE",
"470 496 CURVE SMOOTH",
"528 496 OFFCURVE",
"560 481 OFFCURVE",
"560 455 CURVE SMOOTH",
"560 358 OFFCURVE",
"299 246 OFFCURVE",
"190 238 CURVE"
);
}
);
width = 476;
}
);
note = B;
unicode = 0042;
},
{
glyphname = C;
lastChange = "2021-08-04 00:43:27 +0000";
layers = (
{
anchors = (
{
name = bottom;
position = "{183, -18}";
},
{
name = top;
position = "{455, 541}";
}
);
layerId = "1C8B4FDB-B0E8-4411-8E26-068C67144FEF";
paths = (
{
closed = 1;
nodes = (
"298 -20 OFFCURVE",
"441 56 OFFCURVE",
"441 160 CURVE SMOOTH",
"441 174 OFFCURVE",
"437 185 OFFCURVE",
"429 190 CURVE",
"386 80 OFFCURVE",
"305 3 OFFCURVE",
"217 3 CURVE SMOOTH",
"143 3 OFFCURVE",
"121 48 OFFCURVE",
"121 112 CURVE SMOOTH",
"121 255 OFFCURVE",
"256 516 OFFCURVE",
"432 516 CURVE SMOOTH",
"470 516 OFFCURVE",
"487 492 OFFCURVE",
"487 461 CURVE SMOOTH",
"487 447 OFFCURVE",
"484 431 OFFCURVE",
"477 415 CURVE SMOOTH",
"465 386 OFFCURVE",
"454 353 OFFCURVE",
"454 330 CURVE SMOOTH",
"454 310 OFFCURVE",
"461 297 OFFCURVE",
"482 297 CURVE",
"488 312 OFFCURVE",
"513 367 OFFCURVE",
"528 411 CURVE SMOOTH",
"532 424 OFFCURVE",
"534 436 OFFCURVE",
"534 449 CURVE SMOOTH",
"534 499 OFFCURVE",
"498 541 OFFCURVE",
"418 541 CURVE SMOOTH",
"238 541 OFFCURVE",
"58 310 OFFCURVE",
"58 132 CURVE SMOOTH",
"58 46 OFFCURVE",
"99 -20 OFFCURVE",
"210 -20 CURVE SMOOTH"
);
}
);
width = 477;
}
);
leftKerningGroup = O;
leftMetricsKey = O;
note = C;
rightKerningGroup = C;
unicode = 0043;
},
{
glyphname = D;
lastChange = "2021-08-04 00:46:13 +0000";
layers = (
{
anchors = (
{
name = bottom;
position = "{100, 0}";
},
{
name = center;
position = "{250, 440}";
},
{
name = top;
position = "{439, 537}";
}
);
layerId = "1C8B4FDB-B0E8-4411-8E26-068C67144FEF";
paths = (
{
closed = 1;
nodes = (
"168 -25 OFFCURVE",
"252 3 OFFCURVE",
"308 37 CURVE SMOOTH",
"443 118 OFFCURVE",
"571 297 OFFCURVE",
"571 425 CURVE SMOOTH",
"571 505 OFFCURVE",
"521 537 OFFCURVE",
"439 537 CURVE SMOOTH",
"363 537 OFFCURVE",
"293 510 OFFCURVE",
"221 497 CURVE SMOOTH",
"193 491 OFFCURVE",
"167 487 OFFCURVE",
"144 485 CURVE",
"144 474 OFFCURVE",
"137 448 OFFCURVE",
"175 448 CURVE SMOOTH",
"179 448 OFFCURVE",
"183 448 OFFCURVE",
"188 449 CURVE SMOOTH",
"201 450 OFFCURVE",
"219 454 OFFCURVE",
"233 456 CURVE",
"220 399 OFFCURVE",
"144 302 OFFCURVE",
"117 258 CURVE SMOOTH",
"59 162 OFFCURVE",
"11 104 OFFCURVE",
"11 47 CURVE SMOOTH",
"11 12 OFFCURVE",
"30 -1 OFFCURVE",
"47 -1 CURVE",
"57 -18 OFFCURVE",
"80 -25 OFFCURVE",
"109 -25 CURVE SMOOTH"
);
},
{
closed = 1;
nodes = (
"76 3 OFFCURVE",
"65 13 OFFCURVE",
"65 30 CURVE SMOOTH",
"65 37 OFFCURVE",
"66 44 OFFCURVE",
"69 52 CURVE SMOOTH",
"89 110 OFFCURVE",
"127 171 OFFCURVE",
"160 221 CURVE SMOOTH",
"188 266 OFFCURVE",
"274 389 OFFCURVE",
"274 445 CURVE SMOOTH",
"274 452 OFFCURVE",
"272 458 OFFCURVE",
"269 463 CURVE",
"333 474 OFFCURVE",
"436 492 OFFCURVE",
"479 492 CURVE SMOOTH",
"517 492 OFFCURVE",
"530 473 OFFCURVE",
"530 443 CURVE SMOOTH",
"530 375 OFFCURVE",
"441 241 OFFCURVE",
"389 174 CURVE SMOOTH",
"320 86 OFFCURVE",
"221 3 OFFCURVE",
"110 3 CURVE SMOOTH"
);
}
);
width = 499;
}
);
leftKerningGroup = D;
note = D;
rightKerningGroup = D;
unicode = 0044;
},
{
glyphname = E;
lastChange = "2021-08-04 00:46:32 +0000";
layers = (
{
anchors = (
{
name = bottom;
position = "{171, 19}";
},
{
name = ogonek;
position = "{281, 38}";
},
{
name = top;
position = "{385, 534}";
},
{
name = topleft;
position = "{20, 880}";
}
);
layerId = "1C8B4FDB-B0E8-4411-8E26-068C67144FEF";
paths = (
{
closed = 1;
nodes = (
"146 3 OFFCURVE",
"258 32 OFFCURVE",
"310 32 CURVE SMOOTH",
"315 32 OFFCURVE",
"320 32 OFFCURVE",
"324 31 CURVE",
"323 63 OFFCURVE",
"291 65 OFFCURVE",
"255 65 CURVE SMOOTH",
"204 65 OFFCURVE",
"157 48 OFFCURVE",
"114 48 CURVE SMOOTH",
"102 48 OFFCURVE",
"95 54 OFFCURVE",
"95 67 CURVE SMOOTH",
"95 122 OFFCURVE",
"159 235 OFFCURVE",
"157 231 CURVE",
"320 231 LINE",
"322 236 OFFCURVE",
"323 240 OFFCURVE",
"323 244 CURVE SMOOTH",
"323 261 OFFCURVE",
"307 272 OFFCURVE",
"276 272 CURVE SMOOTH",
"231 272 OFFCURVE",
"192 262 OFFCURVE",
"171 258 CURVE",
"185 298 OFFCURVE",
"285 445 OFFCURVE",
"309 470 CURVE SMOOTH",
"323 483 OFFCURVE",
"348 489 OFFCURVE",
"375 492 CURVE SMOOTH",
"393 494 OFFCURVE",
"416 494 OFFCURVE",
"437 494 CURVE SMOOTH",
"466 494 OFFCURVE",
"493 493 OFFCURVE",
"504 490 CURVE",
"504 517 OFFCURVE",
"500 534 OFFCURVE",
"450 534 CURVE SMOOTH",
"422 534 OFFCURVE",
"347 534 OFFCURVE",
"282 525 CURVE SMOOTH",
"253 521 OFFCURVE",
"243 514 OFFCURVE",
"243 507 CURVE SMOOTH",
"243 495 OFFCURVE",
"263 485 OFFCURVE",
"280 485 CURVE",
"263 471 OFFCURVE",
"190 389 OFFCURVE",
"128 294 CURVE SMOOTH",
"77 216 OFFCURVE",
"34 131 OFFCURVE",
"34 65 CURVE SMOOTH",
"34 41 OFFCURVE",
"54 3 OFFCURVE",
"113 3 CURVE SMOOTH"
);
}
);
width = 361;
}
);
leftKerningGroup = E;
note = E;
rightKerningGroup = E;
unicode = 0045;
},
{
glyphname = F;
lastChange = "2021-08-04 23:45:46 +0000";
layers = (
{
layerId = "1C8B4FDB-B0E8-4411-8E26-068C67144FEF";
paths = (
{
closed = 1;
nodes = (
"88 34 OFFCURVE",
"98 80 OFFCURVE",
"110 119 CURVE SMOOTH",
"125 171 OFFCURVE",
"144 211 OFFCURVE",
"151 224 CURVE",
"173 229 OFFCURVE",
"330 235 OFFCURVE",
"352 235 CURVE",
"362 258 OFFCURVE",
"329 265 OFFCURVE",
"286 265 CURVE SMOOTH",
"240 265 OFFCURVE",
"184 257 OFFCURVE",
"162 253 CURVE",
"171 277 OFFCURVE",
"212 338 OFFCURVE",
"248 392 CURVE SMOOTH",
"310 485 OFFCURVE",
"346 487 OFFCURVE",
"407 492 CURVE SMOOTH",
"425 494 OFFCURVE",
"448 494 OFFCURVE",
"469 494 CURVE SMOOTH",
"498 494 OFFCURVE",
"526 493 OFFCURVE",
"536 490 CURVE",
"536 517 OFFCURVE",
"532 534 OFFCURVE",
"482 534 CURVE SMOOTH",
"453 534 OFFCURVE",
"357 534 OFFCURVE",
"281 524 CURVE SMOOTH",
"243 519 OFFCURVE",
"218 512 OFFCURVE",
"218 500 CURVE SMOOTH",
"218 492 OFFCURVE",
"235 485 OFFCURVE",
"280 485 CURVE",
"251 459 OFFCURVE",
"34 193 OFFCURVE",
"34 47 CURVE SMOOTH",
"34 8 OFFCURVE",
"51 -12 OFFCURVE",
"85 -12 CURVE"
);
}
);
width = 366;
}
);
note = F;
unicode = 0046;
},
{
glyphname = G;
lastChange = "2021-08-04 00:47:35 +0000";
layers = (
{
anchors = (
{
name = bottom;
position = "{205, -15}";
},
{
name = top;
position = "{427, 541}";
}
);
layerId = "1C8B4FDB-B0E8-4411-8E26-068C67144FEF";
paths = (
{
closed = 1;
nodes = (
"298 -20 OFFCURVE",
"443 49 OFFCURVE",
"443 164 CURVE SMOOTH",
"443 171 OFFCURVE",
"443 176 OFFCURVE",
"441 181 CURVE",
"475 187 OFFCURVE",
"497 194 OFFCURVE",
"516 194 CURVE SMOOTH",
"522 194 OFFCURVE",
"529 193 OFFCURVE",
"535 191 CURVE",
"531 217 OFFCURVE",
"510 229 OFFCURVE",
"474 229 CURVE SMOOTH",
"463 229 OFFCURVE",
"361 212 OFFCURVE",
"313 207 CURVE SMOOTH",
"297 205 OFFCURVE",
"282 205 OFFCURVE",
"270 205 CURVE SMOOTH",
"252 205 OFFCURVE",
"240 206 OFFCURVE",
"240 206 CURVE",
"241 195 OFFCURVE",
"246 188 OFFCURVE",
"258 182 CURVE SMOOTH",
"275 174 OFFCURVE",
"302 171 OFFCURVE",
"330 171 CURVE SMOOTH",
"355 171 OFFCURVE",
"381 173 OFFCURVE",
"404 176 CURVE",
"402 150 OFFCURVE",
"388 115 OFFCURVE",
"370 93 CURVE SMOOTH",
"325 36 OFFCURVE",
"274 2 OFFCURVE",
"215 2 CURVE SMOOTH",
"141 2 OFFCURVE",
"121 48 OFFCURVE",
"121 112 CURVE SMOOTH",
"121 255 OFFCURVE",
"261 517 OFFCURVE",
"437 517 CURVE SMOOTH",
"473 517 OFFCURVE",
"489 495 OFFCURVE",
"489 465 CURVE SMOOTH",
"489 450 OFFCURVE",
"485 432 OFFCURVE",
"477 415 CURVE SMOOTH",
"465 386 OFFCURVE",
"454 353 OFFCURVE",
"454 330 CURVE SMOOTH",
"454 310 OFFCURVE",
"461 297 OFFCURVE",
"482 297 CURVE",
"488 312 OFFCURVE",
"513 367 OFFCURVE",
"528 411 CURVE SMOOTH",
"532 424 OFFCURVE",
"534 436 OFFCURVE",
"534 449 CURVE SMOOTH",
"534 499 OFFCURVE",
"498 541 OFFCURVE",
"418 541 CURVE SMOOTH",
"238 541 OFFCURVE",
"58 310 OFFCURVE",
"58 132 CURVE SMOOTH",
"58 46 OFFCURVE",
"99 -20 OFFCURVE",
"210 -20 CURVE SMOOTH"
);
}
);
width = 508;
}
);
leftKerningGroup = O;
leftMetricsKey = O;
note = G;
rightKerningGroup = G;
unicode = 0047;
},
{
glyphname = H;
lastChange = "2021-08-02 21:58:51 +0000";
layers = (
{
anchors = (
{
name = bottom;
position = "{139, 0}";
},
{
name = center;
position = "{219, 440}";
},
{
name = top;
position = "{397, 548}";
},
{
name = topleft;
position = "{22, 880}";
}
);
layerId = "1C8B4FDB-B0E8-4411-8E26-068C67144FEF";
paths = (
{
closed = 1;
nodes = (
"50 7 OFFCURVE",
"69 51 OFFCURVE",
"94 99 CURVE SMOOTH",
"108 126 OFFCURVE",
"123 154 OFFCURVE",
"138 180 CURVE",
"180 185 OFFCURVE",
"250 193 OFFCURVE",
"332 197 CURVE",
"329 193 OFFCURVE",
"326 188 OFFCURVE",
"324 184 CURVE SMOOTH",
"301 147 OFFCURVE",
"259 95 OFFCURVE",
"259 53 CURVE SMOOTH",
"259 14 OFFCURVE",
"269 -1 OFFCURVE",
"290 -12 CURVE",
"293 7 OFFCURVE",
"312 51 OFFCURVE",
"337 99 CURVE SMOOTH",
"354 132 OFFCURVE",
"374 167 OFFCURVE",
"392 197 CURVE",
"417 195 OFFCURVE",
"442 192 OFFCURVE",
"448 186 CURVE",
"448 203 OFFCURVE",
"442 223 OFFCURVE",
"411 229 CURVE",
"415 235 LINE SMOOTH",
"449 286 OFFCURVE",
"539 442 OFFCURVE",
"540 484 CURVE SMOOTH",
"541 501 OFFCURVE",
"545 543 OFFCURVE",
"511 543 CURVE",
"490 454 OFFCURVE",
"418 337 OFFCURVE",
"351 229 CURVE",
"299 226 OFFCURVE",
"217 220 OFFCURVE",
"161 218 CURVE",
"172 235 LINE SMOOTH",
"205 286 OFFCURVE",
"295 442 OFFCURVE",
"297 484 CURVE SMOOTH",
"298 501 OFFCURVE",
"302 543 OFFCURVE",
"268 543 CURVE",
"246 451 OFFCURVE",
"171 331 OFFCURVE",
"102 218 CURVE",
"76 219 OFFCURVE",
"52 222 OFFCURVE",
"40 226 CURVE",
"37 216 OFFCURVE",
"46 185 OFFCURVE",
"76 177 CURVE",
"54 141 OFFCURVE",
"16 97 OFFCURVE",
"16 53 CURVE SMOOTH",
"16 14 OFFCURVE",
"26 -1 OFFCURVE",
"46 -12 CURVE"
);
}
);
width = 441;
}
);
note = H;
unicode = 0048;
},
{
glyphname = Hbar;
lastChange = "2021-07-28 10:12:40 +0000";
layers = (
{
layerId = "1C8B4FDB-B0E8-4411-8E26-068C67144FEF";
paths = (
{
closed = 1;
nodes = (
"35 7 OFFCURVE",
"54 51 OFFCURVE",
"79 99 CURVE SMOOTH",
"93 126 OFFCURVE",
"108 154 OFFCURVE",
"123 180 CURVE",
"165 185 OFFCURVE",
"235 193 OFFCURVE",
"317 197 CURVE",
"309 184 LINE SMOOTH",
"286 147 OFFCURVE",
"244 95 OFFCURVE",
"244 53 CURVE SMOOTH",
"244 14 OFFCURVE",
"254 -1 OFFCURVE",
"275 -12 CURVE",
"278 7 OFFCURVE",
"297 51 OFFCURVE",
"322 99 CURVE SMOOTH",
"339 132 OFFCURVE",
"359 167 OFFCURVE",
"377 197 CURVE",
"402 195 OFFCURVE",
"427 192 OFFCURVE",
"433 186 CURVE",
"433 203 OFFCURVE",
"427 223 OFFCURVE",
"396 229 CURVE",
"400 235 LINE SMOOTH",
"416 260 OFFCURVE",
"447 310 OFFCURVE",
"473 360 CURVE",
"495 360 OFFCURVE",
"513 359 OFFCURVE",
"522 358 CURVE",
"522 368 OFFCURVE",
"526 382 OFFCURVE",
"485 384 CURVE",
"507 427 OFFCURVE",
"524 466 OFFCURVE",
"525 484 CURVE SMOOTH",
"526 501 OFFCURVE",
"530 543 OFFCURVE",
"496 543 CURVE",
"485 496 OFFCURVE",
"459 441 OFFCURVE",
"428 384 CURVE",
"372 383 OFFCURVE",
"303 381 OFFCURVE",
"240 381 CURVE",
"263 425 OFFCURVE",
"281 465 OFFCURVE",
"282 484 CURVE SMOOTH",
"283 501 OFFCURVE",
"287 543 OFFCURVE",
"253 543 CURVE",
"241 495 OFFCURVE",
"215 439 OFFCURVE",
"183 381 CURVE",
"153 381 OFFCURVE",
"125 382 OFFCURVE",
"107 384 CURVE",
"107 374 OFFCURVE",
"96 358 OFFCURVE",
"155 358 CURVE SMOOTH",
"171 358 LINE",
"144 311 OFFCURVE",
"115 264 OFFCURVE",
"87 218 CURVE",
"61 219 OFFCURVE",
"37 222 OFFCURVE",
"25 226 CURVE",
"22 216 OFFCURVE",
"31 185 OFFCURVE",
"61 177 CURVE",
"39 141 OFFCURVE",
"1 97 OFFCURVE",
"1 53 CURVE SMOOTH",
"1 14 OFFCURVE",
"11 -1 OFFCURVE",
"31 -12 CURVE"
);
},
{
closed = 1;
nodes = (
"157 235 LINE SMOOTH",
"173 260 OFFCURVE",
"202 309 OFFCURVE",
"229 358 CURVE",
"286 359 OFFCURVE",
"355 360 OFFCURVE",
"415 360 CURVE",
"390 316 OFFCURVE",
"363 272 OFFCURVE",
"336 229 CURVE",
"284 226 OFFCURVE",
"202 220 OFFCURVE",
"146 218 CURVE"
);
}
);
width = 430;
}
);
note = Hbar;
unicode = 0126;
},
{
glyphname = I;
lastChange = "2021-08-02 21:56:54 +0000";
layers = (
{
anchors = (
{
name = bottom;
position = "{9, 0}";
},
{
name = ogonek;
position = "{24, 10}";
},
{
name = top;
position = "{285, 543}";
},
{
name = topleft;
position = "{13, 880}";
}
);
layerId = "1C8B4FDB-B0E8-4411-8E26-068C67144FEF";
paths = (
{
closed = 1;
nodes = (
"42 7 OFFCURVE",
"61 51 OFFCURVE",
"87 99 CURVE SMOOTH",
"111 146 OFFCURVE",
"140 197 OFFCURVE",
"165 235 CURVE SMOOTH",
"197 286 OFFCURVE",
"288 442 OFFCURVE",
"290 484 CURVE SMOOTH",
"291 501 OFFCURVE",
"295 543 OFFCURVE",
"261 543 CURVE",
"237 442 OFFCURVE",
"148 307 OFFCURVE",
"73 184 CURVE SMOOTH",
"51 147 OFFCURVE",
"8 95 OFFCURVE",
"8 53 CURVE SMOOTH",
"8 14 OFFCURVE",
"19 -1 OFFCURVE",
"39 -12 CURVE"
);
}
);
width = 189;
}
);
note = I;
unicode = 0049;
},
{
glyphname = J;
lastChange = "2021-08-02 21:37:41 +0000";
layers = (
{
anchors = (
{
name = bottom;
position = "{83, 0}";
},
{
name = top;
position = "{434, 558}";
}
);
layerId = "1C8B4FDB-B0E8-4411-8E26-068C67144FEF";
paths = (
{
closed = 1;
nodes = (
"247 -12 OFFCURVE",
"320 136 OFFCURVE",
"364 249 CURVE SMOOTH",
"410 366 OFFCURVE",
"438 433 OFFCURVE",
"438 482 CURVE SMOOTH",
"438 511 OFFCURVE",
"434 537 OFFCURVE",
"415 557 CURVE",
"404 513 OFFCURVE",
"338 321 OFFCURVE",
"303 245 CURVE SMOOTH",
"242 111 OFFCURVE",
"184 6 OFFCURVE",
"108 6 CURVE SMOOTH",
"63 6 OFFCURVE",
"51 57 OFFCURVE",
"51 90 CURVE SMOOTH",
"51 115 OFFCURVE",
"63 158 OFFCURVE",
"80 190 CURVE",
"17 190 OFFCURVE",
"8 119 OFFCURVE",
"8 88 CURVE SMOOTH",
"8 25 OFFCURVE",
"53 -12 OFFCURVE",
"101 -12 CURVE SMOOTH"
);
}
);
width = 356;
}
);
note = J;
unicode = 004A;
},
{
glyphname = K;
lastChange = "2021-08-04 23:46:46 +0000";
layers = (
{
layerId = "1C8B4FDB-B0E8-4411-8E26-068C67144FEF";
paths = (
{
closed = 1;
nodes = (
"40 7 OFFCURVE",
"59 51 OFFCURVE",
"84 99 CURVE SMOOTH",
"97 124 OFFCURVE",
"110 150 OFFCURVE",
"125 174 CURVE",
"156 150 OFFCURVE",
"225 63 OFFCURVE",
"259 -9 CURVE",
"272 -9 OFFCURVE",
"279 6 OFFCURVE",
"279 30 CURVE SMOOTH",
"279 93 OFFCURVE",
"200 162 OFFCURVE",
"165 207 CURVE",
"219 246 OFFCURVE",
"421 378 OFFCURVE",
"498 483 CURVE SMOOTH",
"512 502 OFFCURVE",
"528 532 OFFCURVE",
"528 549 CURVE SMOOTH",
"528 556 OFFCURVE",
"525 561 OFFCURVE",
"517 561 CURVE",
"489 533 OFFCURVE",
"250 291 OFFCURVE",
"165 240 CURVE",
"200 294 OFFCURVE",
"289 445 OFFCURVE",
"291 485 CURVE SMOOTH",
"291 503 OFFCURVE",
"296 545 OFFCURVE",
"262 545 CURVE",
"238 444 OFFCURVE",
"145 307 OFFCURVE",
"70 184 CURVE SMOOTH",
"48 147 OFFCURVE",
"6 98 OFFCURVE",
"6 53 CURVE SMOOTH",
"6 12 OFFCURVE",
"16 -1 OFFCURVE",
"36 -12 CURVE"
);
}
);
width = 360;
}
);
leftKerningGroup = K;
note = K;
rightKerningGroup = K;
unicode = 004B;
},
{
glyphname = L;
lastChange = "2021-08-04 00:48:17 +0000";
layers = (
{
anchors = (
{
name = bottom;
position = "{169, 0}";
},
{
name = center;
position = "{169, 440}";
},
{
name = top;
position = "{272, 545}";
},
{
name = topright;
position = "{351, 586}";
}
);
layerId = "1C8B4FDB-B0E8-4411-8E26-068C67144FEF";
paths = (
{
closed = 1;
nodes = (
"146 3 OFFCURVE",
"258 32 OFFCURVE",
"310 32 CURVE SMOOTH",
"315 32 OFFCURVE",
"320 32 OFFCURVE",
"324 31 CURVE",
"323 63 OFFCURVE",
"291 65 OFFCURVE",
"255 65 CURVE SMOOTH",
"207 65 OFFCURVE",
"161 49 OFFCURVE",
"116 49 CURVE SMOOTH",
"100 49 OFFCURVE",
"89 57 OFFCURVE",
"89 74 CURVE SMOOTH",
"89 113 OFFCURVE",
"130 182 OFFCURVE",
"147 214 CURVE SMOOTH",
"178 271 OFFCURVE",
"219 336 OFFCURVE",
"248 393 CURVE SMOOTH",
"269 434 OFFCURVE",
"284 471 OFFCURVE",
"284 493 CURVE SMOOTH",
"284 514 OFFCURVE",
"271 547 OFFCURVE",
"250 547 CURVE SMOOTH",
"247 547 OFFCURVE",
"244 546 OFFCURVE",
"241 545 CURVE",
"241 487 OFFCURVE",
"178 374 OFFCURVE",
"128 294 CURVE SMOOTH",
"79 215 OFFCURVE",
"34 131 OFFCURVE",
"34 65 CURVE SMOOTH",
"34 41 OFFCURVE",
"54 3 OFFCURVE",
"113 3 CURVE SMOOTH"
);
}
);
width = 334;
}
);
leftKerningGroup = L;
note = L;
rightKerningGroup = L;
unicode = 004C;
},
{
glyphname = Lslash;
lastChange = "2021-08-04 00:48:43 +0000";
layers = (
{
layerId = "1C8B4FDB-B0E8-4411-8E26-068C67144FEF";
paths = (
{
closed = 1;
nodes = (
"146 3 OFFCURVE",
"258 32 OFFCURVE",
"310 32 CURVE SMOOTH",
"315 32 OFFCURVE",
"320 32 OFFCURVE",
"324 31 CURVE",
"323 63 OFFCURVE",
"291 65 OFFCURVE",
"255 65 CURVE SMOOTH",
"207 65 OFFCURVE",
"161 49 OFFCURVE",
"116 49 CURVE SMOOTH",
"100 49 OFFCURVE",
"89 57 OFFCURVE",
"89 74 CURVE SMOOTH",
"89 105 OFFCURVE",
"116 156 OFFCURVE",
"134 191 CURVE",
"146 195 OFFCURVE",
"155 200 OFFCURVE",
"159 201 CURVE SMOOTH",
"189 213 OFFCURVE",
"210 216 OFFCURVE",
"223 216 CURVE SMOOTH",
"233 216 OFFCURVE",
"238 215 OFFCURVE",
"241 212 CURVE",
"237 228 OFFCURVE",
"235 248 OFFCURVE",
"210 248 CURVE SMOOTH",
"207 248 OFFCURVE",
"204 247 OFFCURVE",
"201 247 CURVE SMOOTH",
"193 246 OFFCURVE",
"177 241 OFFCURVE",
"158 235 CURVE",
"186 284 OFFCURVE",
"216 332 OFFCURVE",
"241 382 CURVE SMOOTH",
"262 423 OFFCURVE",
"277 461 OFFCURVE",
"277 483 CURVE SMOOTH",
"277 504 OFFCURVE",
"264 537 OFFCURVE",
"244 537 CURVE SMOOTH",
"241 537 OFFCURVE",
"238 536 OFFCURVE",
"235 535 CURVE",
"234 477 OFFCURVE",
"178 374 OFFCURVE",
"128 294 CURVE SMOOTH",
"110 266 OFFCURVE",
"93 237 OFFCURVE",
"79 208 CURVE",
"44 197 OFFCURVE",
"11 188 OFFCURVE",
"-4 187 CURVE",
"-1 171 OFFCURVE",
"3 155 OFFCURVE",
"21 155 CURVE SMOOTH",
"24 155 OFFCURVE",
"27 155 OFFCURVE",
"31 156 CURVE SMOOTH",
"58 164 LINE",
"43 128 OFFCURVE",
"34 95 OFFCURVE",
"34 65 CURVE SMOOTH",
"34 41 OFFCURVE",
"54 3 OFFCURVE",
"113 3 CURVE SMOOTH"
);
}
);
width = 338;
}
);
note = Lslash;
rightKerningGroup = L;
unicode = 0141;
},
{
glyphname = M;
lastChange = "2021-08-04 00:45:18 +0000";
layers = (
{
layerId = "1C8B4FDB-B0E8-4411-8E26-068C67144FEF";
paths = (
{
closed = 1;
nodes = (
"42 7 OFFCURVE",
"61 51 OFFCURVE",
"87 99 CURVE SMOOTH",
"111 146 OFFCURVE",
"140 197 OFFCURVE",
"165 235 CURVE SMOOTH",
"189 273 OFFCURVE",
"258 384 OFFCURVE",
"282 453 CURVE",
"269 377 OFFCURVE",
"238 237 OFFCURVE",
"224 152 CURVE SMOOTH",
"221 134 OFFCURVE",
"218 110 OFFCURVE",
"218 87 CURVE SMOOTH",
"218 49 OFFCURVE",
"227 15 OFFCURVE",
"261 15 CURVE",
"261 32 OFFCURVE",
"264 54 OFFCURVE",
"278 82 CURVE SMOOTH",
"303 130 OFFCURVE",
"355 195 OFFCURVE",
"413 274 CURVE SMOOTH",
"432 299 OFFCURVE",
"560 474 OFFCURVE",
"560 474 CURVE",
"560 398 OFFCURVE",
"382 172 OFFCURVE",
"382 65 CURVE SMOOTH",
"382 33 OFFCURVE",
"394 6 OFFCURVE",
"422 -9 CURVE",
"423 3 OFFCURVE",
"424 25 OFFCURVE",
"433 53 CURVE SMOOTH",
"449 99 OFFCURVE",
"466 141 OFFCURVE",
"482 181 CURVE SMOOTH",
"519 272 OFFCURVE",
"567 360 OFFCURVE",
"609 445 CURVE SMOOTH",
"634 493 OFFCURVE",
"634 501 OFFCURVE",
"634 507 CURVE SMOOTH",
"634 533 OFFCURVE",
"602 547 OFFCURVE",
"578 547 CURVE",
"566 525 OFFCURVE",
"359 246 OFFCURVE",
"265 122 CURVE",
"272 157 OFFCURVE",
"280 210 OFFCURVE",
"290 265 CURVE SMOOTH",
"303 342 OFFCURVE",
"332 430 OFFCURVE",
"332 481 CURVE SMOOTH",
"332 486 OFFCURVE",
"331 490 OFFCURVE",
"331 494 CURVE SMOOTH",
"328 517 OFFCURVE",
"296 546 OFFCURVE",
"272 546 CURVE SMOOTH",
"269 546 OFFCURVE",
"266 546 OFFCURVE",
"264 545 CURVE",
"241 444 OFFCURVE",
"148 307 OFFCURVE",
"73 184 CURVE SMOOTH",
"51 147 OFFCURVE",
"8 95 OFFCURVE",
"8 53 CURVE SMOOTH",
"8 14 OFFCURVE",
"19 -1 OFFCURVE",
"39 -12 CURVE"
);
}
);
width = 550;
}
);
leftKerningGroup = N;
note = M;
rightKerningGroup = N;
unicode = 004D;
},
{
glyphname = N;
lastChange = "2021-08-04 00:49:09 +0000";
layers = (
{
anchors = (
{
name = bottom;
position = "{136, 0}";
},
{
name = top;
position = "{386, 545}";
}
);
layerId = "1C8B4FDB-B0E8-4411-8E26-068C67144FEF";
paths = (
{
closed = 1;
nodes = (
"39 25 OFFCURVE",
"110 158 OFFCURVE",
"159 235 CURVE SMOOTH",
"182 272 OFFCURVE",
"264 416 OFFCURVE",
"270 443 CURVE",
"257 367 OFFCURVE",
"232 237 OFFCURVE",
"219 152 CURVE SMOOTH",
"215 130 OFFCURVE",
"214 110 OFFCURVE",
"214 92 CURVE SMOOTH",
"214 30 OFFCURVE",
"234 -8 OFFCURVE",
"270 -10 CURVE",
"270 -11 OFFCURVE",
"271 -11 OFFCURVE",
"271 -12 CURVE SMOOTH",
"295 89 OFFCURVE",
"384 222 OFFCURVE",
"459 345 CURVE SMOOTH",
"481 382 OFFCURVE",
"524 433 OFFCURVE",
"524 476 CURVE SMOOTH",
"524 515 OFFCURVE",
"514 530 OFFCURVE",
"493 541 CURVE",
"490 522 OFFCURVE",
"471 478 OFFCURVE",
"446 429 CURVE SMOOTH",
"421 382 OFFCURVE",
"392 331 OFFCURVE",
"367 293 CURVE SMOOTH",
"344 256 OFFCURVE",
"280 156 OFFCURVE",
"256 87 CURVE",
"258 150 OFFCURVE",
"275 208 OFFCURVE",
"284 265 CURVE SMOOTH",
"299 349 OFFCURVE",
"324 436 OFFCURVE",
"319 484 CURVE",
"313 506 OFFCURVE",
"285 537 OFFCURVE",
"261 537 CURVE SMOOTH",
"258 537 OFFCURVE",
"255 536 OFFCURVE",
"252 535 CURVE",
"228 433 OFFCURVE",
"142 307 OFFCURVE",
"67 184 CURVE SMOOTH",
"43 145 OFFCURVE",
"7 81 OFFCURVE",
"7 35 CURVE SMOOTH",
"7 15 OFFCURVE",
"15 -2 OFFCURVE",
"33 -12 CURVE"
);
}
);
width = 406;
}
);
leftKerningGroup = N;
note = N;
rightKerningGroup = N;
unicode = 004E;
},
{
glyphname = Eng;
lastChange = "2021-08-04 00:49:27 +0000";
layers = (
{
layerId = "1C8B4FDB-B0E8-4411-8E26-068C67144FEF";
paths = (
{
closed = 1;
nodes = (
"150 -230 OFFCURVE",
"210 -112 OFFCURVE",
"247 -51 CURVE SMOOTH",
"338 101 OFFCURVE",
"421 272 OFFCURVE",
"457 331 CURVE SMOOTH",
"479 368 OFFCURVE",
"522 433 OFFCURVE",
"522 476 CURVE SMOOTH",
"522 515 OFFCURVE",
"512 530 OFFCURVE",
"491 541 CURVE",
"488 522 OFFCURVE",
"469 478 OFFCURVE",
"444 429 CURVE SMOOTH",
"322 199 OFFCURVE",
"268 122 OFFCURVE",
"254 50 CURVE",
"256 113 OFFCURVE",
"273 208 OFFCURVE",
"282 265 CURVE SMOOTH",
"297 349 OFFCURVE",
"322 436 OFFCURVE",
"317 484 CURVE",
"311 506 OFFCURVE",
"283 537 OFFCURVE",
"259 537 CURVE SMOOTH",
"256 537 OFFCURVE",
"253 536 OFFCURVE",
"250 535 CURVE",
"226 433 OFFCURVE",
"140 307 OFFCURVE",
"65 184 CURVE SMOOTH",
"41 145 OFFCURVE",
"5 81 OFFCURVE",
"5 35 CURVE SMOOTH",
"5 15 OFFCURVE",
"13 -2 OFFCURVE",
"31 -12 CURVE",
"37 25 OFFCURVE",
"108 158 OFFCURVE",
"157 235 CURVE SMOOTH",
"180 272 OFFCURVE",
"262 416 OFFCURVE",
"268 443 CURVE",
"255 367 OFFCURVE",
"230 237 OFFCURVE",
"217 152 CURVE SMOOTH",
"211 116 OFFCURVE",
"208 84 OFFCURVE",
"208 56 CURVE SMOOTH",
"208 35 OFFCURVE",
"210 17 OFFCURVE",
"215 4 CURVE",
"170 -86 LINE SMOOTH",
"130 -157 OFFCURVE",
"92 -212 OFFCURVE",
"51 -212 CURVE SMOOTH",
"27 -212 OFFCURVE",
"19 -189 OFFCURVE",
"19 -171 CURVE SMOOTH",
"19 -167 OFFCURVE",
"19 -163 OFFCURVE",
"20 -160 CURVE",
"22 -146 OFFCURVE",
"32 -122 OFFCURVE",
"43 -104 CURVE",
"8 -100 OFFCURVE",
"-7 -140 OFFCURVE",
"-9 -158 CURVE SMOOTH",
"-13 -194 OFFCURVE",
"15 -230 OFFCURVE",
"41 -230 CURVE SMOOTH"
);
}
);
width = 430;
}
);
leftKerningGroup = N;
rightKerningGroup = N;
unicode = 014A;
},
{
glyphname = O;
lastChange = "2021-08-04 14:44:15 +0000";
layers = (
{
anchors = (
{
name = bottom;
position = "{132, 0}";
},
{
name = center;
position = "{246, 440}";
},
{
name = ogonek;
position = "{157, 10}";
},
{
name = top;
position = "{391, 542}";
},
{
name = topleft;
position = "{28, 880}";
},
{
name = topright;
position = "{413, 514}";
}
);
layerId = "1C8B4FDB-B0E8-4411-8E26-068C67144FEF";
paths = (
{
closed = 1;
nodes = (
"360 -9 OFFCURVE",
"509 225 OFFCURVE",
"509 387 CURVE SMOOTH",
"509 474 OFFCURVE",
"467 540 OFFCURVE",
"361 540 CURVE SMOOTH",
"196 540 OFFCURVE",
"58 312 OFFCURVE",
"58 150 CURVE SMOOTH",
"58 60 OFFCURVE",
"100 -9 OFFCURVE",
"202 -9 CURVE SMOOTH"
);
},
{
closed = 1;
nodes = (
"140 14 OFFCURVE",
"116 61 OFFCURVE",
"116 126 CURVE SMOOTH",
"116 272 OFFCURVE",
"236 508 OFFCURVE",
"378 508 CURVE SMOOTH",
"428 508 OFFCURVE",
"450 461 OFFCURVE",
"450 396 CURVE SMOOTH",
"450 251 OFFCURVE",
"340 14 OFFCURVE",
"197 14 CURVE SMOOTH"
);
}
);
width = 460;
}
);
leftKerningGroup = O;
note = O;
rightKerningGroup = O;
unicode = 004F;
},
{
glyphname = Oslash;
lastChange = "2021-08-04 00:51:41 +0000";
layers = (
{
anchors = (
{
name = bottom;
position = "{91, 0}";
},
{
name = top;
position = "{374, 545}";
}
);
layerId = "1C8B4FDB-B0E8-4411-8E26-068C67144FEF";
paths = (
{
closed = 1;
nodes = (
"19 -81 OFFCURVE",
"25 -77 OFFCURVE",
"31 -66 CURVE SMOOTH",
"41 -52 OFFCURVE",
"61 -20 OFFCURVE",
"88 19 CURVE",
"109 6 OFFCURVE",
"135 -1 OFFCURVE",
"167 -1 CURVE SMOOTH",
"316 -1 OFFCURVE",
"458 221 OFFCURVE",
"458 378 CURVE SMOOTH",
"458 424 OFFCURVE",
"445 465 OFFCURVE",
"417 493 CURVE",
"439 524 OFFCURVE",
"456 547 OFFCURVE",
"466 558 CURVE",
"467 561 OFFCURVE",
"467 562 OFFCURVE",
"467 564 CURVE SMOOTH",
"469 579 OFFCURVE",
"458 590 OFFCURVE",
"452 590 CURVE",
"448 588 LINE",
"428 564 OFFCURVE",
"408 540 OFFCURVE",
"388 513 CURVE",
"367 524 OFFCURVE",
"341 531 OFFCURVE",
"309 531 CURVE SMOOTH",
"158 531 OFFCURVE",
"26 311 OFFCURVE",
"26 154 CURVE SMOOTH",
"26 106 OFFCURVE",
"38 64 OFFCURVE",
"66 36 CURVE",
"39 -9 OFFCURVE",
"20 -44 OFFCURVE",
"13 -62 CURVE SMOOTH",
"11 -66 OFFCURVE",
"10 -70 OFFCURVE",
"10 -74 CURVE SMOOTH",
"10 -78 OFFCURVE",
"12 -81 OFFCURVE",
"15 -81 CURVE SMOOTH"
);
},
{
closed = 1;
nodes = (
"133 22 OFFCURVE",
"116 29 OFFCURVE",
"105 42 CURVE",
"187 162 OFFCURVE",
"314 348 OFFCURVE",
"396 464 CURVE",
"403 447 OFFCURVE",
"407 425 OFFCURVE",
"407 400 CURVE SMOOTH",
"407 260 OFFCURVE",
"298 22 OFFCURVE",
"154 22 CURVE SMOOTH"
);
},
{
closed = 1;
nodes = (
"81 87 OFFCURVE",
"78 107 OFFCURVE",
"78 129 CURVE SMOOTH",
"78 270 OFFCURVE",
"196 501 OFFCURVE",
"345 501 CURVE SMOOTH",
"356 501 OFFCURVE",
"365 498 OFFCURVE",
"373 493 CURVE",
"264 348 OFFCURVE",
"156 184 OFFCURVE",
"87 70 CURVE"
);
}
);
width = 442;
}
);
note = Oslash;
unicode = 00D8;
},
{
glyphname = OE;
lastChange = "2021-08-04 00:51:51 +0000";
layers = (
{
layerId = "1C8B4FDB-B0E8-4411-8E26-068C67144FEF";
paths = (
{
closed = 1;
nodes = (
"209 -1 OFFCURVE",
"251 17 OFFCURVE",
"289 46 CURVE",
"297 25 OFFCURVE",
"320 3 OFFCURVE",
"364 3 CURVE SMOOTH",
"396 3 OFFCURVE",
"509 32 OFFCURVE",
"561 32 CURVE SMOOTH",
"566 32 OFFCURVE",
"571 32 OFFCURVE",
"575 31 CURVE",
"574 63 OFFCURVE",
"541 65 OFFCURVE",
"506 65 CURVE SMOOTH",
"455 65 OFFCURVE",
"408 48 OFFCURVE",
"365 48 CURVE SMOOTH",
"353 48 OFFCURVE",
"346 54 OFFCURVE",
"346 67 CURVE SMOOTH",
"346 122 OFFCURVE",
"410 235 OFFCURVE",
"408 231 CURVE",
"570 231 LINE",
"572 236 OFFCURVE",
"574 241 OFFCURVE",
"574 245 CURVE SMOOTH",
"574 261 OFFCURVE",
"558 272 OFFCURVE",
"527 272 CURVE SMOOTH",
"482 272 OFFCURVE",
"443 262 OFFCURVE",
"422 258 CURVE",
"436 298 OFFCURVE",
"534 450 OFFCURVE",
"558 474 CURVE SMOOTH",
"572 487 OFFCURVE",
"597 493 OFFCURVE",
"624 496 CURVE SMOOTH",
"643 498 OFFCURVE",
"667 499 OFFCURVE",
"689 499 CURVE SMOOTH",
"717 499 OFFCURVE",
"742 497 OFFCURVE",
"753 495 CURVE",
"753 521 OFFCURVE",
"749 538 OFFCURVE",
"699 538 CURVE SMOOTH",
"671 538 OFFCURVE",
"596 538 OFFCURVE",
"531 530 CURVE SMOOTH",
"502 525 OFFCURVE",
"492 518 OFFCURVE",
"492 511 CURVE SMOOTH",
"492 499 OFFCURVE",
"512 490 OFFCURVE",
"529 490 CURVE",
"519 481 OFFCURVE",
"490 448 OFFCURVE",
"456 403 CURVE",
"449 477 OFFCURVE",
"405 531 OFFCURVE",
"309 531 CURVE SMOOTH",
"158 531 OFFCURVE",
"26 311 OFFCURVE",
"26 153 CURVE SMOOTH",
"26 67 OFFCURVE",
"67 -1 OFFCURVE",
"167 -1 CURVE SMOOTH"
);
},
{
closed = 1;
nodes = (
"101 22 OFFCURVE",
"78 67 OFFCURVE",
"78 129 CURVE SMOOTH",
"78 271 OFFCURVE",
"195 501 OFFCURVE",
"345 501 CURVE SMOOTH",
"388 501 OFFCURVE",
"406 459 OFFCURVE",
"406 400 CURVE SMOOTH",
"406 376 OFFCURVE",
"403 349 OFFCURVE",
"397 321 CURVE",
"379 294 LINE SMOOTH",
"335 226 OFFCURVE",
"297 154 OFFCURVE",
"287 93 CURVE",
"249 50 OFFCURVE",
"203 22 OFFCURVE",
"154 22 CURVE SMOOTH"
);
}
);
width = 609;
}
);
leftKerningGroup = O;
note = OE;
unicode = 0152;
},
{
glyphname = P;
lastChange = "2021-08-04 23:47:06 +0000";
layers = (
{
layerId = "1C8B4FDB-B0E8-4411-8E26-068C67144FEF";
paths = (
{
closed = 1;
nodes = (
"46 7 OFFCURVE",
"65 51 OFFCURVE",
"91 99 CURVE SMOOTH",
"107 131 OFFCURVE",
"125 164 OFFCURVE",
"143 195 CURVE",
"168 180 OFFCURVE",
"196 174 OFFCURVE",
"223 174 CURVE SMOOTH",
"360 174 OFFCURVE",
"506 335 OFFCURVE",
"506 434 CURVE SMOOTH",
"506 489 OFFCURVE",
"478 534 OFFCURVE",
"406 534 CURVE SMOOTH",
"371 534 OFFCURVE",
"330 524 OFFCURVE",
"288 514 CURVE",
"284 525 OFFCURVE",
"277 535 OFFCURVE",
"261 535 CURVE",
"259 525 OFFCURVE",
"256 515 OFFCURVE",
"253 506 CURVE",
"218 497 OFFCURVE",
"182 490 OFFCURVE",
"149 487 CURVE",
"147 482 OFFCURVE",
"145 477 OFFCURVE",
"145 472 CURVE SMOOTH",
"145 458 OFFCURVE",
"156 448 OFFCURVE",
"184 448 CURVE SMOOTH",
"189 448 OFFCURVE",
"195 448 OFFCURVE",
"201 449 CURVE SMOOTH",
"211 450 OFFCURVE",
"221 450 OFFCURVE",
"232 453 CURVE",
"194 369 OFFCURVE",
"132 275 OFFCURVE",
"77 184 CURVE SMOOTH",
"55 147 OFFCURVE",
"12 95 OFFCURVE",
"12 53 CURVE SMOOTH",
"12 14 OFFCURVE",
"23 -1 OFFCURVE",
"43 -12 CURVE"
);
},
{
closed = 1;
nodes = (
"169 235 LINE SMOOTH",
"198 283 OFFCURVE",
"278 415 OFFCURVE",
"289 466 CURVE",
"329 475 OFFCURVE",
"371 485 OFFCURVE",
"410 485 CURVE SMOOTH",
"458 485 OFFCURVE",
"480 471 OFFCURVE",
"480 446 CURVE SMOOTH",
"480 332 OFFCURVE",
"262 204 OFFCURVE",
"153 212 CURVE"
);
}
);
width = 410;
}
);
note = P;
unicode = 0050;
},
{
glyphname = Thorn;
lastChange = "2021-07-28 10:12:40 +0000";
layers = (
{
layerId = "1C8B4FDB-B0E8-4411-8E26-068C67144FEF";
paths = (
{
closed = 1;
nodes = (
"91 -33 OFFCURVE",
"101 -27 OFFCURVE",
"105 -15 CURVE SMOOTH",
"114 9 OFFCURVE",
"143 82 OFFCURVE",
"178 168 CURVE",
"195 162 OFFCURVE",
"213 159 OFFCURVE",
"230 159 CURVE SMOOTH",
"367 159 OFFCURVE",
"515 322 OFFCURVE",
"515 421 CURVE SMOOTH",
"515 475 OFFCURVE",
"487 520 OFFCURVE",
"415 520 CURVE SMOOTH",
"389 520 OFFCURVE",
"361 515 OFFCURVE",
"319 506 CURVE",
"337 548 OFFCURVE",
"353 583 OFFCURVE",
"361 601 CURVE",
"363 603 OFFCURVE",
"363 604 OFFCURVE",
"363 607 CURVE SMOOTH",
"360 625 OFFCURVE",
"333 650 OFFCURVE",
"327 649 CURVE",
"325 648 OFFCURVE",
"324 648 OFFCURVE",
"324 646 CURVE",
"299 594 OFFCURVE",
"275 541 OFFCURVE",
"253 490 CURVE",
"221 482 OFFCURVE",
"189 476 OFFCURVE",
"158 473 CURVE",
"156 468 OFFCURVE",
"154 463 OFFCURVE",
"154 458 CURVE SMOOTH",
"154 444 OFFCURVE",
"165 434 OFFCURVE",
"193 434 CURVE SMOOTH",
"198 434 OFFCURVE",
"204 434 OFFCURVE",
"210 435 CURVE SMOOTH",
"215 435 OFFCURVE",
"223 436 OFFCURVE",
"230 437 CURVE",
"142 223 OFFCURVE",
"81 31 OFFCURVE",
"74 -20 CURVE SMOOTH",
"73 -28 OFFCURVE",
"78 -33 OFFCURVE",
"84 -33 CURVE SMOOTH"
);
},
{
closed = 1;
nodes = (
"225 282 OFFCURVE",
"263 376 OFFCURVE",
"297 453 CURVE",
"336 462 OFFCURVE",
"385 472 OFFCURVE",
"419 472 CURVE SMOOTH",
"467 472 OFFCURVE",
"489 457 OFFCURVE",
"489 433 CURVE SMOOTH",
"489 326 OFFCURVE",
"303 206 OFFCURVE",
"190 199 CURVE"
);
}
);
width = 412;
}
);
note = Thorn;
unicode = 00DE;
},
{
glyphname = Q;
lastChange = "2021-08-04 00:44:03 +0000";
layers = (
{
background = {
paths = (
{
closed = 1;
nodes = (
"372 -9 OFFCURVE",
"521 225 OFFCURVE",
"521 387 CURVE SMOOTH",
"521 474 OFFCURVE",
"479 540 OFFCURVE",
"373 540 CURVE SMOOTH",
"208 540 OFFCURVE",
"70 312 OFFCURVE",
"70 150 CURVE SMOOTH",
"70 60 OFFCURVE",
"112 -9 OFFCURVE",
"214 -9 CURVE SMOOTH"
);
},
{
closed = 1;
nodes = (
"152 14 OFFCURVE",
"128 61 OFFCURVE",
"128 126 CURVE SMOOTH",
"128 272 OFFCURVE",
"248 508 OFFCURVE",
"390 508 CURVE SMOOTH",
"440 508 OFFCURVE",
"462 461 OFFCURVE",
"462 396 CURVE SMOOTH",
"462 251 OFFCURVE",
"352 14 OFFCURVE",
"209 14 CURVE SMOOTH"
);
}
);
};
layerId = "1C8B4FDB-B0E8-4411-8E26-068C67144FEF";
paths = (
{
closed = 1;
nodes = (
"391 -167 OFFCURVE",
"406 -129 OFFCURVE",
"405 -114 CURVE",
"395 -122 OFFCURVE",
"383 -125 OFFCURVE",
"371 -125 CURVE SMOOTH",
"346 -125 OFFCURVE",
"319 -112 OFFCURVE",
"297 -101 CURVE SMOOTH",
"238 -72 OFFCURVE",
"174 -54 OFFCURVE",
"128 -43 CURVE",
"138 -30 OFFCURVE",
"155 -10 OFFCURVE",
"159 -1 CURVE",
"176 -7 OFFCURVE",
"196 -9 OFFCURVE",
"218 -9 CURVE SMOOTH",
"373 -9 OFFCURVE",
"520 222 OFFCURVE",
"520 385 CURVE SMOOTH",
"520 475 OFFCURVE",
"476 544 OFFCURVE",
"364 544 CURVE SMOOTH",
"207 544 OFFCURVE",
"70 316 OFFCURVE",
"70 152 CURVE SMOOTH",
"70 86 OFFCURVE",
"93 29 OFFCURVE",
"147 5 CURVE",
"110 -40 LINE",
"100 -40 LINE SMOOTH",
"59 -40 OFFCURVE",
"36 -64 OFFCURVE",
"36 -81 CURVE SMOOTH",
"36 -90 OFFCURVE",
"43 -97 OFFCURVE",
"57 -97 CURVE SMOOTH",
"70 -97 OFFCURVE",
"86 -88 OFFCURVE",
"104 -70 CURVE",
"111 -71 OFFCURVE",
"118 -73 OFFCURVE",
"126 -76 CURVE",
"198 -94 OFFCURVE",
"271 -167 OFFCURVE",
"339 -167 CURVE SMOOTH"
);
},
{
closed = 1;
nodes = (
"148 15 OFFCURVE",
"124 62 OFFCURVE",
"124 126 CURVE SMOOTH",
"124 273 OFFCURVE",
"247 512 OFFCURVE",
"403 512 CURVE SMOOTH",
"448 512 OFFCURVE",
"467 470 OFFCURVE",
"467 409 CURVE SMOOTH",
"467 263 OFFCURVE",
"354 15 OFFCURVE",
"203 15 CURVE SMOOTH"
);
}
);
width = 476;
}
);
note = Q;
rightKerningGroup = O;
unicode = 0051;
},
{
glyphname = R;
lastChange = "2021-08-04 23:46:06 +0000";
layers = (
{
anchors = (
{
name = bottom;
position = "{164, 0}";
},
{
name = top;
position = "{385, 544}";
}
);
layerId = "1C8B4FDB-B0E8-4411-8E26-068C67144FEF";
paths = (
{
closed = 1;
nodes = (
"328 -15 OFFCURVE",
"332 -4 OFFCURVE",
"332 10 CURVE SMOOTH",
"332 24 OFFCURVE",
"328 41 OFFCURVE",
"322 53 CURVE SMOOTH",
"294 104 OFFCURVE",
"243 149 OFFCURVE",
"216 174 CURVE",
"357 160 OFFCURVE",
"522 341 OFFCURVE",
"522 445 CURVE SMOOTH",
"522 499 OFFCURVE",
"494 544 OFFCURVE",
"422 544 CURVE SMOOTH",
"385 544 OFFCURVE",
"341 534 OFFCURVE",
"297 523 CURVE",
"294 535 OFFCURVE",
"286 545 OFFCURVE",
"270 545 CURVE",
"267 535 OFFCURVE",
"264 524 OFFCURVE",
"260 513 CURVE",
"228 506 OFFCURVE",
"196 500 OFFCURVE",
"165 497 CURVE",
"163 492 OFFCURVE",
"161 487 OFFCURVE",
"161 482 CURVE SMOOTH",
"161 468 OFFCURVE",
"172 458 OFFCURVE",
"199 458 CURVE SMOOTH",
"204 458 OFFCURVE",
"210 458 OFFCURVE",
"217 459 CURVE SMOOTH",
"240 462 LINE",
"202 378 OFFCURVE",
"136 275 OFFCURVE",
"80 184 CURVE SMOOTH",
"58 147 OFFCURVE",
"16 95 OFFCURVE",
"16 53 CURVE SMOOTH",
"16 14 OFFCURVE",
"26 -1 OFFCURVE",
"46 -12 CURVE",
"50 7 OFFCURVE",
"68 51 OFFCURVE",
"94 99 CURVE SMOOTH",
"140 183 LINE",
"175 161 OFFCURVE",
"274 54 OFFCURVE",
"317 -16 CURVE"
);
},
{
closed = 1;
nodes = (
"174 212 OFFCURVE",
"170 217 OFFCURVE",
"170 223 CURVE SMOOTH",
"170 229 OFFCURVE",
"173 235 OFFCURVE",
"176 241 CURVE SMOOTH",
"217 309 OFFCURVE",
"282 421 OFFCURVE",
"297 473 CURVE",
"340 484 OFFCURVE",
"385 496 OFFCURVE",
"426 496 CURVE SMOOTH",
"474 496 OFFCURVE",
"496 481 OFFCURVE",
"496 456 CURVE SMOOTH",
"496 350 OFFCURVE",
"293 212 OFFCURVE",
"186 212 CURVE SMOOTH"
);
}
);
width = 424;
}
);
leftKerningGroup = R;
note = R;
rightKerningGroup = R;
unicode = 0052;
},
{
glyphname = S;
lastChange = "2021-08-04 00:52:28 +0000";
layers = (
{
anchors = (
{
name = bottom;
position = "{167, 0}";
},
{
name = top;
position = "{371, 535}";
}
);
layerId = "1C8B4FDB-B0E8-4411-8E26-068C67144FEF";
paths = (
{
closed = 1;
nodes = (
"285 -15 OFFCURVE",
"349 18 OFFCURVE",
"349 88 CURVE SMOOTH",
"349 177 OFFCURVE",
"172 199 OFFCURVE",
"172 297 CURVE SMOOTH",
"172 378 OFFCURVE",
"303 501 OFFCURVE",
"382 501 CURVE SMOOTH",
"411 501 OFFCURVE",
"415 476 OFFCURVE",
"415 471 CURVE SMOOTH",
"415 416 OFFCURVE",
"345 377 OFFCURVE",
"345 316 CURVE SMOOTH",
"345 294 OFFCURVE",
"359 273 OFFCURVE",
"379 273 CURVE",
"379 329 OFFCURVE",
"450 388 OFFCURVE",
"450 437 CURVE SMOOTH",
"450 493 OFFCURVE",
"421 535 OFFCURVE",
"371 535 CURVE SMOOTH",
"256 535 OFFCURVE",
"115 424 OFFCURVE",
"115 290 CURVE SMOOTH",
"115 161 OFFCURVE",
"299 144 OFFCURVE",
"299 64 CURVE SMOOTH",
"299 30 OFFCURVE",
"263 12 OFFCURVE",
"233 12 CURVE SMOOTH",
"184 12 OFFCURVE",
"150 37 OFFCURVE",
"113 77 CURVE SMOOTH",
"86 107 OFFCURVE",
"72 126 OFFCURVE",
"47 126 CURVE SMOOTH",
"27 126 OFFCURVE",
"18 116 OFFCURVE",
"13 99 CURVE",
"38 95 OFFCURVE",
"96 -15 OFFCURVE",
"216 -15 CURVE SMOOTH"
);
}
);
width = 387;
}
);
leftKerningGroup = S;
note = S;
rightKerningGroup = S;
unicode = 0053;
},
{
color = 0;
glyphname = Germandbls;
lastChange = "2021-08-06 18:46:29 +0000";
layers = (
{
layerId = "1C8B4FDB-B0E8-4411-8E26-068C67144FEF";
paths = (
{
closed = 1;
nodes = (
"-2 4 OFFCURVE",
"-5 -10 OFFCURVE",
"-5 -23 CURVE SMOOTH",
"-5 -52 OFFCURVE",
"11 -75 OFFCURVE",
"23 -75 CURVE SMOOTH",
"28 -75 OFFCURVE",
"32 -71 OFFCURVE",
"34 -64 CURVE SMOOTH",
"56 9 OFFCURVE",
"188 280 OFFCURVE",
"274 426 CURVE SMOOTH",
"310 486 OFFCURVE",
"367 542 OFFCURVE",
"433 542 CURVE SMOOTH",
"454 542 OFFCURVE",
"477 533 OFFCURVE",
"477 510 CURVE SMOOTH",
"477 496 OFFCURVE",
"468 476 OFFCURVE",
"443 449 CURVE SMOOTH",
"407 411 OFFCURVE",
"377 381 OFFCURVE",
"291 329 CURVE SMOOTH",
"283 325 OFFCURVE",
"284 320 OFFCURVE",
"283 314 CURVE SMOOTH",
"279 293 OFFCURVE",
"332 269 OFFCURVE",
"332 189 CURVE SMOOTH",
"332 179 OFFCURVE",
"331 168 OFFCURVE",
"329 156 CURVE SMOOTH",
"317 78 OFFCURVE",
"260 0 OFFCURVE",
"199 0 CURVE SMOOTH",
"169 0 OFFCURVE",
"152 29 OFFCURVE",
"149 45 CURVE",
"159 62 OFFCURVE",
"164 79 OFFCURVE",
"164 90 CURVE SMOOTH",
"164 94 OFFCURVE",
"164 97 OFFCURVE",
"162 99 CURVE SMOOTH",
"159 103 OFFCURVE",
"155 105 OFFCURVE",
"150 105 CURVE SMOOTH",
"136 105 OFFCURVE",
"118 88 OFFCURVE",
"114 63 CURVE SMOOTH",
"113 58 OFFCURVE",
"113 52 OFFCURVE",
"113 47 CURVE SMOOTH",
"113 9 OFFCURVE",
"137 -18 OFFCURVE",
"199 -18 CURVE SMOOTH",
"308 -18 OFFCURVE",
"380 78 OFFCURVE",
"391 151 CURVE SMOOTH",
"393 161 OFFCURVE",
"393 170 OFFCURVE",
"393 179 CURVE SMOOTH",
"393 255 OFFCURVE",
"340 287 OFFCURVE",
"313 303 CURVE",
"310 306 OFFCURVE",
"312 308 OFFCURVE",
"312 311 CURVE SMOOTH",
"314 324 OFFCURVE",
"334 329 OFFCURVE",
"359 337 CURVE SMOOTH",
"472 375 OFFCURVE",
"529 446 OFFCURVE",
"529 498 CURVE SMOOTH",
"529 535 OFFCURVE",
"500 563 OFFCURVE",
"444 563 CURVE SMOOTH",
"331 563 OFFCURVE",
"276 506 OFFCURVE",
"252 469 CURVE SMOOTH",
"147 310 OFFCURVE",
"37 69 OFFCURVE",
"6 17 CURVE SMOOTH"
);
}
);
width = 409;
}
);
unicode = 1E9E;
},
{
glyphname = Schwa;
lastChange = "2021-07-28 10:12:40 +0000";
layers = (
{
layerId = "1C8B4FDB-B0E8-4411-8E26-068C67144FEF";
paths = (
{
closed = 1;
nodes = (
"324 -9 OFFCURVE",
"504 222 OFFCURVE",
"504 400 CURVE SMOOTH",
"504 486 OFFCURVE",
"463 552 OFFCURVE",
"352 552 CURVE SMOOTH",
"264 552 OFFCURVE",
"121 476 OFFCURVE",
"121 372 CURVE SMOOTH",
"121 358 OFFCURVE",
"125 347 OFFCURVE",
"133 342 CURVE",
"176 452 OFFCURVE",
"257 529 OFFCURVE",
"345 529 CURVE SMOOTH",
"419 529 OFFCURVE",
"441 484 OFFCURVE",
"441 420 CURVE SMOOTH",
"441 277 OFFCURVE",
"306 16 OFFCURVE",
"130 16 CURVE SMOOTH",
"92 16 OFFCURVE",
"75 40 OFFCURVE",
"75 71 CURVE SMOOTH",
"75 181 OFFCURVE",
"222 241 OFFCURVE",
"376 264 CURVE SMOOTH",
"394 267 OFFCURVE",
"411 261 OFFCURVE",
"426 261 CURVE SMOOTH",
"431 261 OFFCURVE",
"436 262 OFFCURVE",
"441 264 CURVE SMOOTH",
"452 270 OFFCURVE",
"454 275 OFFCURVE",
"454 280 CURVE SMOOTH",
"454 284 OFFCURVE",
"452 288 OFFCURVE",
"452 290 CURVE SMOOTH",
"452 292 OFFCURVE",
"448 293 OFFCURVE",
"440 293 CURVE SMOOTH",
"430 293 OFFCURVE",
"415 292 OFFCURVE",
"396 290 CURVE SMOOTH",
"221 277 OFFCURVE",
"22 209 OFFCURVE",
"22 79 CURVE SMOOTH",
"22 32 OFFCURVE",
"67 -9 OFFCURVE",
"144 -9 CURVE SMOOTH"
);
}
);
width = 524;
}
);
unicode = 018F;
},
{
glyphname = T;
lastChange = "2021-08-04 23:45:32 +0000";
layers = (
{
anchors = (
{
name = bottom;
position = "{89, 0}";
},
{
name = center;
position = "{184, 313}";
},
{
name = top;
position = "{368, 543}";
}
);
layerId = "1C8B4FDB-B0E8-4411-8E26-068C67144FEF";
paths = (
{
closed = 1;
nodes = (
"114 7 OFFCURVE",
"133 51 OFFCURVE",
"159 99 CURVE SMOOTH",
"183 146 OFFCURVE",
"212 197 OFFCURVE",
"237 235 CURVE SMOOTH",
"269 286 OFFCURVE",
"358 433 OFFCURVE",
"358 475 CURVE SMOOTH",
"358 490 LINE",
"379 491 OFFCURVE",
"398 492 OFFCURVE",
"415 492 CURVE SMOOTH",
"483 492 OFFCURVE",
"518 483 OFFCURVE",
"526 477 CURVE",
"526 502 OFFCURVE",
"524 534 OFFCURVE",
"475 534 CURVE SMOOTH",
"450 534 OFFCURVE",
"396 529 OFFCURVE",
"351 524 CURVE",
"346 530 OFFCURVE",
"340 535 OFFCURVE",
"329 535 CURVE",
"329 530 OFFCURVE",
"328 526 OFFCURVE",
"326 523 CURVE",
"315 522 OFFCURVE",
"305 521 OFFCURVE",
"298 521 CURVE SMOOTH",
"253 518 OFFCURVE",
"213 517 OFFCURVE",
"182 517 CURVE SMOOTH",
"153 517 OFFCURVE",
"132 518 OFFCURVE",
"120 522 CURVE",
"120 498 OFFCURVE",
"129 473 OFFCURVE",
"184 473 CURVE SMOOTH",
"230 473 OFFCURVE",
"278 479 OFFCURVE",
"314 484 CURVE",
"279 394 OFFCURVE",
"208 287 OFFCURVE",
"145 184 CURVE SMOOTH",
"123 147 OFFCURVE",
"80 95 OFFCURVE",
"80 53 CURVE SMOOTH",
"80 14 OFFCURVE",
"91 -1 OFFCURVE",
"111 -12 CURVE"
);
}
);
width = 306;
}
);
leftKerningGroup = T;
note = T;
rightKerningGroup = T;
unicode = 0054;
},
{
glyphname = Tcedilla;
lastChange = "2021-08-04 00:53:03 +0000";
layers = (
{
background = {
paths = (
{
closed = 1;
nodes = (
"215 286 OFFCURVE",
"303 433 OFFCURVE",
"304 475 CURVE SMOOTH",
"304 490 LINE",
"409 497 OFFCURVE",
"462 484 OFFCURVE",
"472 477 CURVE",
"472 502 OFFCURVE",
"470 534 OFFCURVE",
"421 534 CURVE SMOOTH",
"396 534 OFFCURVE",
"342 529 OFFCURVE",
"297 524 CURVE",
"292 530 OFFCURVE",
"286 535 OFFCURVE",
"275 535 CURVE",
"275 530 OFFCURVE",
"274 526 OFFCURVE",
"272 523 CURVE",
"261 522 OFFCURVE",
"251 521 OFFCURVE",
"244 521 CURVE SMOOTH",
"157 516 OFFCURVE",
"90 514 OFFCURVE",
"66 522 CURVE",
"66 498 OFFCURVE",
"75 473 OFFCURVE",
"130 473 CURVE SMOOTH",
"176 473 OFFCURVE",
"224 479 OFFCURVE",
"260 484 CURVE",
"225 394 OFFCURVE",
"154 287 OFFCURVE",
"91 184 CURVE SMOOTH",
"69 147 OFFCURVE",
"26 95 OFFCURVE",
"26 53 CURVE SMOOTH",
"26 14 OFFCURVE",
"37 -1 OFFCURVE",
"57 -12 CURVE",
"60 7 OFFCURVE",
"79 51 OFFCURVE",
"105 99 CURVE SMOOTH",
"129 146 OFFCURVE",
"158 197 OFFCURVE",
"183 235 CURVE SMOOTH"
);
},
{
closed = 1;
nodes = (
"215 286 OFFCURVE",
"303 433 OFFCURVE",
"304 475 CURVE SMOOTH",
"304 490 LINE",
"409 497 OFFCURVE",
"462 484 OFFCURVE",
"472 477 CURVE",
"472 502 OFFCURVE",
"470 534 OFFCURVE",
"421 534 CURVE SMOOTH",
"396 534 OFFCURVE",
"342 529 OFFCURVE",
"297 524 CURVE",
"292 530 OFFCURVE",
"286 535 OFFCURVE",
"275 535 CURVE",
"275 530 OFFCURVE",
"274 526 OFFCURVE",
"272 523 CURVE",
"261 522 OFFCURVE",
"251 521 OFFCURVE",
"244 521 CURVE SMOOTH",
"157 516 OFFCURVE",
"90 514 OFFCURVE",
"66 522 CURVE",
"66 498 OFFCURVE",
"75 473 OFFCURVE",
"130 473 CURVE SMOOTH",
"176 473 OFFCURVE",
"224 479 OFFCURVE",
"260 484 CURVE",
"225 394 OFFCURVE",
"154 287 OFFCURVE",
"91 184 CURVE SMOOTH",
"69 147 OFFCURVE",
"26 95 OFFCURVE",
"26 53 CURVE SMOOTH",
"26 14 OFFCURVE",
"37 -1 OFFCURVE",
"57 -12 CURVE",
"60 7 OFFCURVE",
"79 51 OFFCURVE",
"105 99 CURVE SMOOTH",
"129 146 OFFCURVE",
"158 197 OFFCURVE",
"183 235 CURVE SMOOTH"
);
},
{
closed = 1;
nodes = (
"-28 -109 OFFCURVE",
"-50 -140 OFFCURVE",
"-75 -165 CURVE SMOOTH",
"-108 -203 LINE SMOOTH",
"-110 -205 OFFCURVE",
"-110 -212 OFFCURVE",
"-99 -207 CURVE SMOOTH",
"-96 -205 OFFCURVE",
"-93 -196 OFFCURVE",
"-87 -193 CURVE SMOOTH",
"-48 -172 OFFCURVE",
"4 -148 OFFCURVE",
"17 -108 CURVE SMOOTH",
"26 -83 OFFCURVE",
"20 -61 OFFCURVE",
"4 -49 CURVE SMOOTH",
"-7 -42 OFFCURVE",
"-24 -37 OFFCURVE",
"-15 -49 CURVE SMOOTH",
"-11 -56 OFFCURVE",
"-13 -69 OFFCURVE",
"-15 -78 CURVE"
);
}
);
};
components = (
{
name = T;
},
{
name = cedillacomb;
transform = "{1, 0, 0, 1, -49, 0}";
}
);
layerId = "1C8B4FDB-B0E8-4411-8E26-068C67144FEF";
width = 306;
}
);
leftKerningGroup = T;
note = uni021A;
rightKerningGroup = T;
unicode = 0162;
},
{
glyphname = U;
lastChange = "2021-08-04 00:53:09 +0000";
layers = (
{
anchors = (
{
name = bottom;
position = "{90, 0}";
},
{
name = ogonek;
position = "{106, 10}";
},
{
name = top;
position = "{391, 546}";
},
{
name = topright;
position = "{485, 515}";
}
);
layerId = "1C8B4FDB-B0E8-4411-8E26-068C67144FEF";
paths = (
{
closed = 1;
nodes = (
"240 -5 OFFCURVE",
"294 34 OFFCURVE",
"335 82 CURVE SMOOTH",
"380 134 OFFCURVE",
"445 237 OFFCURVE",
"487 326 CURVE SMOOTH",
"539 437 OFFCURVE",
"541 467 OFFCURVE",
"541 490 CURVE SMOOTH",
"541 509 OFFCURVE",
"532 537 OFFCURVE",
"512 537 CURVE SMOOTH",
"509 537 OFFCURVE",
"506 536 OFFCURVE",
"502 535 CURVE",
"502 521 OFFCURVE",
"498 494 OFFCURVE",
"462 416 CURVE SMOOTH",
"406 293 OFFCURVE",
"281 18 OFFCURVE",
"158 18 CURVE SMOOTH",
"106 18 OFFCURVE",
"90 48 OFFCURVE",
"90 89 CURVE SMOOTH",
"90 190 OFFCURVE",
"181 305 OFFCURVE",
"229 385 CURVE SMOOTH",
"253 427 OFFCURVE",
"271 466 OFFCURVE",
"271 499 CURVE SMOOTH",
"271 510 OFFCURVE",
"262 534 OFFCURVE",
"243 534 CURVE SMOOTH",
"240 534 OFFCURVE",
"236 534 OFFCURVE",
"232 532 CURVE",
"232 491 OFFCURVE",
"112 313 OFFCURVE",
"58 190 CURVE SMOOTH",
"47 165 OFFCURVE",
"40 138 OFFCURVE",
"40 112 CURVE SMOOTH",
"40 50 OFFCURVE",
"77 -5 OFFCURVE",
"173 -5 CURVE SMOOTH"
);
}
);
width = 439;
}
);
leftKerningGroup = U;
note = U;
rightKerningGroup = U;
unicode = 0055;
},
{
glyphname = V;
lastChange = "2021-08-02 21:57:30 +0000";
layers = (
{
layerId = "1C8B4FDB-B0E8-4411-8E26-068C67144FEF";
paths = (
{
closed = 1;
nodes = (
"134 -10 OFFCURVE",
"137 -9 OFFCURVE",
"141 -8 CURVE",
"146 3 OFFCURVE",
"158 24 OFFCURVE",
"175 49 CURVE SMOOTH",
"192 76 OFFCURVE",
"348 267 OFFCURVE",
"425 369 CURVE SMOOTH",
"455 410 OFFCURVE",
"464 424 OFFCURVE",
"485 468 CURVE SMOOTH",
"489 477 OFFCURVE",
"491 485 OFFCURVE",
"491 492 CURVE SMOOTH",
"491 515 OFFCURVE",
"473 529 OFFCURVE",
"451 529 CURVE",
"410 428 OFFCURVE",
"288 280 OFFCURVE",
"197 154 CURVE SMOOTH",
"175 124 OFFCURVE",
"134 68 OFFCURVE",
"124 42 CURVE",
"127 106 OFFCURVE",
"154 200 OFFCURVE",
"169 245 CURVE SMOOTH",
"182 289 OFFCURVE",
"209 399 OFFCURVE",
"209 464 CURVE SMOOTH",
"209 512 OFFCURVE",
"182 532 OFFCURVE",
"146 533 CURVE",
"148 523 OFFCURVE",
"149 510 OFFCURVE",
"149 495 CURVE SMOOTH",
"149 415 OFFCURVE",
"123 277 OFFCURVE",
"99 182 CURVE SMOOTH",
"92 154 OFFCURVE",
"83 110 OFFCURVE",
"83 71 CURVE SMOOTH",
"83 49 OFFCURVE",
"86 29 OFFCURVE",
"93 14 CURVE SMOOTH",
"101 0 OFFCURVE",
"115 -10 OFFCURVE",
"130 -10 CURVE SMOOTH"
);
}
);
width = 335;
}
);
note = V;
unicode = 0056;
},
{
glyphname = W;
lastChange = "2021-08-04 00:54:49 +0000";
layers = (
{
anchors = (
{
name = bottom;
position = "{221, 0}";
},
{
name = top;
position = "{410, 547}";
}
);
layerId = "1C8B4FDB-B0E8-4411-8E26-068C67144FEF";
paths = (
{
closed = 1;
nodes = (
"127 -10 OFFCURVE",
"130 -9 OFFCURVE",
"134 -8 CURVE",
"139 3 OFFCURVE",
"153 23 OFFCURVE",
"167 48 CURVE",
"179 75 OFFCURVE",
"310 275 OFFCURVE",
"376 376 CURVE",
"379 382 OFFCURVE",
"383 388 OFFCURVE",
"388 394 CURVE",
"370 328 OFFCURVE",
"343 241 OFFCURVE",
"327 181 CURVE SMOOTH",
"313 125 OFFCURVE",
"302 79 OFFCURVE",
"302 46 CURVE SMOOTH",
"302 34 OFFCURVE",
"304 23 OFFCURVE",
"307 14 CURVE SMOOTH",
"313 -1 OFFCURVE",
"328 -10 OFFCURVE",
"343 -10 CURVE SMOOTH",
"347 -10 OFFCURVE",
"351 -9 OFFCURVE",
"355 -8 CURVE",
"398 72 OFFCURVE",
"482 178 OFFCURVE",
"592 324 CURVE SMOOTH",
"622 365 OFFCURVE",
"695 462 OFFCURVE",
"706 490 CURVE SMOOTH",
"708 496 OFFCURVE",
"709 504 OFFCURVE",
"709 512 CURVE SMOOTH",
"709 529 OFFCURVE",
"704 546 OFFCURVE",
"688 546 CURVE SMOOTH",
"685 546 OFFCURVE",
"682 546 OFFCURVE",
"679 545 CURVE",
"622 409 OFFCURVE",
"427 199 OFFCURVE",
"337 42 CURVE",
"344 70 OFFCURVE",
"383 202 OFFCURVE",
"395 248 CURVE SMOOTH",
"423 353 OFFCURVE",
"444 408 OFFCURVE",
"444 452 CURVE SMOOTH",
"444 456 OFFCURVE",
"443 461 OFFCURVE",
"443 465 CURVE",
"440 484 OFFCURVE",
"430 524 OFFCURVE",
"400 516 CURVE",
"371 416 OFFCURVE",
"262 275 OFFCURVE",
"184 150 CURVE SMOOTH",
"167 121 OFFCURVE",
"127 68 OFFCURVE",
"116 42 CURVE",
"111 49 OFFCURVE",
"145 195 OFFCURVE",
"162 245 CURVE SMOOTH",
"176 287 OFFCURVE",
"202 392 OFFCURVE",
"202 454 CURVE SMOOTH",
"202 467 OFFCURVE",
"201 478 OFFCURVE",
"198 486 CURVE SMOOTH",
"193 503 OFFCURVE",
"170 532 OFFCURVE",
"149 532 CURVE SMOOTH",
"145 532 OFFCURVE",
"142 532 OFFCURVE",
"139 530 CURVE",
"142 511 OFFCURVE",
"146 490 OFFCURVE",
"146 458 CURVE SMOOTH",
"146 391 OFFCURVE",
"96 200 OFFCURVE",
"86 160 CURVE SMOOTH",
"81 141 OFFCURVE",
"74 108 OFFCURVE",
"74 76 CURVE SMOOTH",
"74 53 OFFCURVE",
"77 31 OFFCURVE",
"86 14 CURVE SMOOTH",
"94 0 OFFCURVE",
"108 -10 OFFCURVE",
"123 -10 CURVE SMOOTH"
);
}
);
width = 549;
}
);
leftKerningGroup = W;
note = W;
rightKerningGroup = W;
unicode = 0057;
},
{
glyphname = X;
lastChange = "2021-08-02 21:32:47 +0000";
layers = (
{
layerId = "1C8B4FDB-B0E8-4411-8E26-068C67144FEF";
paths = (
{
closed = 1;
nodes = (
"47 30 OFFCURVE",
"123 130 OFFCURVE",
"216 228 CURVE",
"226 160 OFFCURVE",
"228 86 OFFCURVE",
"255 25 CURVE SMOOTH",
"266 2 OFFCURVE",
"288 -12 OFFCURVE",
"308 -12 CURVE SMOOTH",
"318 -12 OFFCURVE",
"328 -9 OFFCURVE",
"335 -1 CURVE",
"316 8 OFFCURVE",
"288 82 OFFCURVE",
"280 144 CURVE SMOOTH",
"262 274 LINE",
"302 311 OFFCURVE",
"369 362 OFFCURVE",
"417 408 CURVE SMOOTH",
"447 438 OFFCURVE",
"480 475 OFFCURVE",
"480 514 CURVE SMOOTH",
"480 530 OFFCURVE",
"469 538 OFFCURVE",
"456 538 CURVE",
"418 479 OFFCURVE",
"337 392 OFFCURVE",
"257 312 CURVE",
"241 429 LINE SMOOTH",
"234 481 OFFCURVE",
"221 536 OFFCURVE",
"173 536 CURVE SMOOTH",
"163 536 OFFCURVE",
"146 532 OFFCURVE",
"139 529 CURVE",
"145 524 OFFCURVE",
"177 490 OFFCURVE",
"189 411 CURVE SMOOTH",
"211 267 LINE",
"170 229 OFFCURVE",
"130 191 OFFCURVE",
"95 156 CURVE SMOOTH",
"56 117 OFFCURVE",
"2 72 OFFCURVE",
"2 19 CURVE SMOOTH",
"2 -2 OFFCURVE",
"9 -17 OFFCURVE",
"20 -15 CURVE"
);
}
);
width = 362;
}
);
note = X;
unicode = 0058;
},
{
glyphname = Y;
lastChange = "2021-08-04 00:55:05 +0000";
layers = (
{
anchors = (
{
name = bottom;
position = "{130, 0}";
},
{
name = top;
position = "{315, 548}";
},
{
name = topleft;
position = "{35, 880}";
}
);
layerId = "1C8B4FDB-B0E8-4411-8E26-068C67144FEF";
paths = (
{
closed = 1;
nodes = (
"158 -6 OFFCURVE",
"158 -1 OFFCURVE",
"158 6 CURVE SMOOTH",
"158 19 OFFCURVE",
"161 37 OFFCURVE",
"168 62 CURVE SMOOTH",
"183 118 OFFCURVE",
"221 210 OFFCURVE",
"250 274 CURVE",
"292 311 OFFCURVE",
"360 365 OFFCURVE",
"404 408 CURVE SMOOTH",
"435 438 OFFCURVE",
"467 475 OFFCURVE",
"467 514 CURVE SMOOTH",
"467 530 OFFCURVE",
"457 538 OFFCURVE",
"443 538 CURVE",
"405 479 OFFCURVE",
"324 392 OFFCURVE",
"244 312 CURVE",
"228 429 LINE SMOOTH",
"221 481 OFFCURVE",
"209 536 OFFCURVE",
"160 536 CURVE SMOOTH",
"150 536 OFFCURVE",
"134 532 OFFCURVE",
"126 529 CURVE",
"132 524 OFFCURVE",
"164 490 OFFCURVE",
"176 411 CURVE SMOOTH",
"193 299 LINE",
"183 275 OFFCURVE",
"157 208 OFFCURVE",
"140 156 CURVE SMOOTH",
"128 119 OFFCURVE",
"118 93 OFFCURVE",
"118 56 CURVE SMOOTH",
"118 28 OFFCURVE",
"133 -4 OFFCURVE",
"160 -11 CURVE"
);
}
);
width = 307;
}
);
leftKerningGroup = Y;
note = Y;
rightKerningGroup = Y;
unicode = 0059;
},
{
glyphname = Z;
lastChange = "2021-08-04 00:55:41 +0000";
layers = (
{
anchors = (
{
name = bottom;
position = "{150, 0}";
},
{
name = center;
position = "{150, 440}";
},
{
name = top;
position = "{316, 515}";
}
);
layerId = "1C8B4FDB-B0E8-4411-8E26-068C67144FEF";
paths = (
{
closed = 1;
nodes = (
"91 -11 OFFCURVE",
"171 -1 OFFCURVE",
"235 6 CURVE SMOOTH",
"263 8 OFFCURVE",
"300 3 OFFCURVE",
"316 -1 CURVE",
"316 39 OFFCURVE",
"294 51 OFFCURVE",
"244 51 CURVE SMOOTH",
"218 51 OFFCURVE",
"135 32 OFFCURVE",
"101 26 CURVE SMOOTH",
"94 24 OFFCURVE",
"86 24 OFFCURVE",
"79 24 CURVE SMOOTH",
"63 24 OFFCURVE",
"49 29 OFFCURVE",
"49 44 CURVE SMOOTH",
"49 51 OFFCURVE",
"52 60 OFFCURVE",
"59 72 CURVE SMOOTH",
"82 113 OFFCURVE",
"269 284 OFFCURVE",
"362 375 CURVE SMOOTH",
"392 405 OFFCURVE",
"450 447 OFFCURVE",
"450 480 CURVE SMOOTH",
"450 506 OFFCURVE",
"433 526 OFFCURVE",
"411 526 CURVE SMOOTH",
"366 526 OFFCURVE",
"316 515 OFFCURVE",
"275 508 CURVE SMOOTH",
"257 505 OFFCURVE",
"238 504 OFFCURVE",
"219 504 CURVE SMOOTH",
"193 504 OFFCURVE",
"168 506 OFFCURVE",
"155 511 CURVE",
"149 496 OFFCURVE",
"176 464 OFFCURVE",
"223 464 CURVE SMOOTH",
"264 464 OFFCURVE",
"316 486 OFFCURVE",
"406 496 CURVE",
"357 431 OFFCURVE",
"257 339 OFFCURVE",
"184 271 CURVE SMOOTH",
"105 201 OFFCURVE",
"-6 110 OFFCURVE",
"-6 59 CURVE SMOOTH",
"-6 26 OFFCURVE",
"14 -11 OFFCURVE",
"48 -11 CURVE SMOOTH"
);
}
);
width = 335;
}
);
leftKerningGroup = Z;
note = Z;
rightKerningGroup = Z;
unicode = 005A;
},
{
glyphname = A.ss01;
lastChange = "2021-08-02 21:05:32 +0000";
layers = (
{
anchors = (
{
name = bottom;
position = "{230, -38}";
},
{
name = ogonek;
position = "{453, -20}";
},
{
name = top;
position = "{590, 677}";
}
);
layerId = "1C8B4FDB-B0E8-4411-8E26-068C67144FEF";
paths = (
{
closed = 1;
nodes = (
"152 -40 OFFCURVE",
"179 -33 OFFCURVE",
"205 -22 CURVE SMOOTH",
"227 -12 OFFCURVE",
"249 1 OFFCURVE",
"270 16 CURVE SMOOTH",
"313 47 OFFCURVE",
"352 83 OFFCURVE",
"384 117 CURVE SMOOTH",
"400 134 OFFCURVE",
"414 149 OFFCURVE",
"426 163 CURVE",
"405 134 OFFCURVE",
"391 92 OFFCURVE",
"391 54 CURVE SMOOTH",
"391 9 OFFCURVE",
"411 -29 OFFCURVE",
"463 -29 CURVE SMOOTH",
"533 -29 OFFCURVE",
"607 64 OFFCURVE",
"642 108 CURVE",
"648 114 OFFCURVE",
"651 121 OFFCURVE",
"651 126 CURVE SMOOTH",
"651 129 OFFCURVE",
"649 132 OFFCURVE",
"646 132 CURVE SMOOTH",
"644 132 OFFCURVE",
"641 130 OFFCURVE",
"637 126 CURVE SMOOTH",
"599 83 OFFCURVE",
"536 17 OFFCURVE",
"491 17 CURVE SMOOTH",
"472 17 OFFCURVE",
"462 32 OFFCURVE",
"462 63 CURVE SMOOTH",
"462 75 OFFCURVE",
"463 88 OFFCURVE",
"466 104 CURVE SMOOTH",
"479 185 OFFCURVE",
"529 272 OFFCURVE",
"581 324 CURVE SMOOTH",
"593 336 OFFCURVE",
"561 363 OFFCURVE",
"538 363 CURVE SMOOTH",
"531 363 OFFCURVE",
"525 360 OFFCURVE",
"521 354 CURVE SMOOTH",
"472 280 OFFCURVE",
"370 124 OFFCURVE",
"292 60 CURVE SMOOTH",
"232 10 OFFCURVE",
"176 -15 OFFCURVE",
"133 -15 CURVE SMOOTH",
"120 -15 OFFCURVE",
"108 -12 OFFCURVE",
"98 -8 CURVE SMOOTH",
"72 5 OFFCURVE",
"60 33 OFFCURVE",
"60 69 CURVE SMOOTH",
"60 102 OFFCURVE",
"69 142 OFFCURVE",
"87 185 CURVE SMOOTH",
"114 254 OFFCURVE",
"177 363 OFFCURVE",
"208 405 CURVE",
"238 400 OFFCURVE",
"268 397 OFFCURVE",
"299 397 CURVE SMOOTH",
"355 397 OFFCURVE",
"413 405 OFFCURVE",
"477 417 CURVE SMOOTH",
"580 437 OFFCURVE",
"647 468 OFFCURVE",
"688 501 CURVE SMOOTH",
"728 533 OFFCURVE",
"743 565 OFFCURVE",
"743 591 CURVE SMOOTH",
"743 640 OFFCURVE",
"700 670 OFFCURVE",
"626 670 CURVE SMOOTH",
"613 670 OFFCURVE",
"600 669 OFFCURVE",
"586 667 CURVE SMOOTH",
"413 647 OFFCURVE",
"266 561 OFFCURVE",
"166 436 CURVE",
"134 448 OFFCURVE",
"108 464 OFFCURVE",
"88 484 CURVE SMOOTH",
"72 500 OFFCURVE",
"62 517 OFFCURVE",
"62 539 CURVE SMOOTH",
"62 548 OFFCURVE",
"64 559 OFFCURVE",
"69 570 CURVE SMOOTH",
"71 575 OFFCURVE",
"72 580 OFFCURVE",
"72 583 CURVE SMOOTH",
"72 588 OFFCURVE",
"70 590 OFFCURVE",
"68 590 CURVE SMOOTH",
"66 590 OFFCURVE",
"62 587 OFFCURVE",
"58 581 CURVE SMOOTH",
"48 566 OFFCURVE",
"43 546 OFFCURVE",
"43 526 CURVE SMOOTH",
"43 504 OFFCURVE",
"49 484 OFFCURVE",
"63 471 CURVE SMOOTH",
"86 448 OFFCURVE",
"116 432 OFFCURVE",
"151 417 CURVE",
"124 382 OFFCURVE",
"101 348 OFFCURVE",
"80 309 CURVE SMOOTH",
"39 236 OFFCURVE",
"16 156 OFFCURVE",
"16 92 CURVE SMOOTH",
"16 34 OFFCURVE",
"34 -12 OFFCURVE",
"76 -30 CURVE SMOOTH",
"92 -37 OFFCURVE",
"109 -40 OFFCURVE",
"126 -40 CURVE SMOOTH"
);
},
{
closed = 1;
nodes = (
"275 413 OFFCURVE",
"247 416 OFFCURVE",
"220 421 CURVE",
"317 529 OFFCURVE",
"431 628 OFFCURVE",
"590 649 CURVE SMOOTH",
"600 650 OFFCURVE",
"609 651 OFFCURVE",
"618 651 CURVE SMOOTH",
"670 651 OFFCURVE",
"706 632 OFFCURVE",
"706 592 CURVE SMOOTH",
"706 516 OFFCURVE",
"603 457 OFFCURVE",
"476 434 CURVE SMOOTH",
"407 420 OFFCURVE",
"353 413 OFFCURVE",
"305 413 CURVE SMOOTH"
);
}
);
width = 613;
}
);
note = A;
},
{
glyphname = AE.ss01;
lastChange = "2021-08-02 21:05:32 +0000";
layers = (
{
layerId = "1C8B4FDB-B0E8-4411-8E26-068C67144FEF";
paths = (
{
closed = 1;
nodes = (
"892 -52 OFFCURVE",
"952 -40 OFFCURVE",
"1009 -19 CURVE SMOOTH",
"1038 -8 OFFCURVE",
"1065 5 OFFCURVE",
"1092 21 CURVE SMOOTH",
"1145 52 OFFCURVE",
"1188 93 OFFCURVE",
"1213 143 CURVE SMOOTH",
"1225 168 OFFCURVE",
"1231 195 OFFCURVE",
"1231 224 CURVE SMOOTH",
"1231 254 OFFCURVE",
"1203 289 OFFCURVE",
"1155 289 CURVE SMOOTH",
"1144 289 OFFCURVE",
"1138 286 OFFCURVE",
"1138 281 CURVE SMOOTH",
"1138 278 OFFCURVE",
"1142 277 OFFCURVE",
"1148 277 CURVE SMOOTH",
"1179 277 OFFCURVE",
"1188 251 OFFCURVE",
"1188 228 CURVE SMOOTH",
"1188 157 OFFCURVE",
"1141 93 OFFCURVE",
"1074 46 CURVE SMOOTH",
"1006 -2 OFFCURVE",
"917 -31 OFFCURVE",
"836 -31 CURVE SMOOTH",
"719 -31 OFFCURVE",
"644 13 OFFCURVE",
"627 89 CURVE",
"642 108 LINE",
"648 114 OFFCURVE",
"651 121 OFFCURVE",
"651 126 CURVE SMOOTH",
"651 129 OFFCURVE",
"649 132 OFFCURVE",
"646 132 CURVE SMOOTH",
"644 132 OFFCURVE",
"641 130 OFFCURVE",
"637 126 CURVE SMOOTH",
"624 111 LINE",
"623 120 OFFCURVE",
"623 130 OFFCURVE",
"624 140 CURVE SMOOTH",
"629 219 OFFCURVE",
"683 300 OFFCURVE",
"757 324 CURVE SMOOTH",
"769 327 OFFCURVE",
"781 329 OFFCURVE",
"793 329 CURVE SMOOTH",
"821 329 OFFCURVE",
"850 322 OFFCURVE",
"879 320 CURVE SMOOTH",
"907 316 OFFCURVE",
"929 314 OFFCURVE",
"945 314 CURVE SMOOTH",
"952 314 OFFCURVE",
"957 315 OFFCURVE",
"962 316 CURVE SMOOTH",
"976 318 OFFCURVE",
"983 324 OFFCURVE",
"983 333 CURVE SMOOTH",
"983 362 OFFCURVE",
"932 363 OFFCURVE",
"898 363 CURVE SMOOTH",
"863 363 OFFCURVE",
"836 361 OFFCURVE",
"819 360 CURVE",
"801 374 OFFCURVE",
"789 392 OFFCURVE",
"789 417 CURVE SMOOTH",
"789 435 OFFCURVE",
"792 452 OFFCURVE",
"800 469 CURVE",
"849 458 OFFCURVE",
"897 452 OFFCURVE",
"946 452 CURVE SMOOTH",
"1103 452 OFFCURVE",
"1248 500 OFFCURVE",
"1248 592 CURVE SMOOTH",
"1248 639 OFFCURVE",
"1205 666 OFFCURVE",
"1119 666 CURVE SMOOTH",
"963 666 OFFCURVE",
"812 597 OFFCURVE",
"762 500 CURVE",
"742 505 OFFCURVE",
"723 511 OFFCURVE",
"706 518 CURVE",
"732 543 OFFCURVE",
"743 568 OFFCURVE",
"743 590 CURVE SMOOTH",
"743 639 OFFCURVE",
"700 670 OFFCURVE",
"626 670 CURVE SMOOTH",
"613 670 OFFCURVE",
"600 669 OFFCURVE",
"586 667 CURVE SMOOTH",
"413 647 OFFCURVE",
"266 561 OFFCURVE",
"166 436 CURVE",
"134 448 OFFCURVE",
"108 464 OFFCURVE",
"88 484 CURVE SMOOTH",
"72 500 OFFCURVE",
"62 517 OFFCURVE",
"62 539 CURVE SMOOTH",
"62 548 OFFCURVE",
"64 559 OFFCURVE",
"69 570 CURVE SMOOTH",
"71 575 OFFCURVE",
"72 580 OFFCURVE",
"72 583 CURVE SMOOTH",
"72 588 OFFCURVE",
"70 590 OFFCURVE",
"68 590 CURVE SMOOTH",
"66 590 OFFCURVE",
"62 587 OFFCURVE",
"58 581 CURVE SMOOTH",
"48 566 OFFCURVE",
"43 546 OFFCURVE",
"43 526 CURVE SMOOTH",
"43 504 OFFCURVE",
"49 484 OFFCURVE",
"63 471 CURVE SMOOTH",
"86 448 OFFCURVE",
"116 432 OFFCURVE",
"151 417 CURVE",
"124 382 OFFCURVE",
"101 348 OFFCURVE",
"80 309 CURVE SMOOTH",
"39 236 OFFCURVE",
"16 156 OFFCURVE",
"16 92 CURVE SMOOTH",
"16 34 OFFCURVE",
"34 -12 OFFCURVE",
"76 -30 CURVE SMOOTH",
"92 -37 OFFCURVE",
"109 -40 OFFCURVE",
"126 -40 CURVE SMOOTH",
"152 -40 OFFCURVE",
"179 -33 OFFCURVE",
"205 -22 CURVE SMOOTH",
"227 -12 OFFCURVE",
"249 1 OFFCURVE",
"270 16 CURVE SMOOTH",
"313 47 OFFCURVE",
"352 83 OFFCURVE",
"384 117 CURVE SMOOTH",
"400 134 OFFCURVE",
"414 149 OFFCURVE",
"426 163 CURVE",
"405 134 OFFCURVE",
"391 92 OFFCURVE",
"391 54 CURVE SMOOTH",
"391 9 OFFCURVE",
"411 -29 OFFCURVE",
"463 -29 CURVE SMOOTH",
"507 -29 OFFCURVE",
"552 8 OFFCURVE",
"588 45 CURVE",
"627 -14 OFFCURVE",
"708 -52 OFFCURVE",
"844 -52 CURVE SMOOTH"
);
},
{
closed = 1;
nodes = (
"120 -15 OFFCURVE",
"108 -12 OFFCURVE",
"98 -8 CURVE SMOOTH",
"72 5 OFFCURVE",
"60 33 OFFCURVE",
"60 69 CURVE SMOOTH",
"60 102 OFFCURVE",
"69 142 OFFCURVE",
"87 185 CURVE SMOOTH",
"114 254 OFFCURVE",
"177 363 OFFCURVE",
"208 405 CURVE",
"238 400 OFFCURVE",
"268 397 OFFCURVE",
"299 397 CURVE SMOOTH",
"355 397 OFFCURVE",
"413 405 OFFCURVE",
"477 417 CURVE SMOOTH",
"582 438 OFFCURVE",
"651 469 OFFCURVE",
"692 504 CURVE",
"711 496 OFFCURVE",
"732 487 OFFCURVE",
"755 480 CURVE",
"751 468 OFFCURVE",
"749 456 OFFCURVE",
"749 445 CURVE SMOOTH",
"749 406 OFFCURVE",
"765 375 OFFCURVE",
"785 358 CURVE SMOOTH",
"787 356 LINE",
"642 328 OFFCURVE",
"561 232 OFFCURVE",
"561 143 CURVE SMOOTH",
"561 115 OFFCURVE",
"566 88 OFFCURVE",
"578 65 CURVE",
"547 38 OFFCURVE",
"518 17 OFFCURVE",
"491 17 CURVE SMOOTH",
"472 17 OFFCURVE",
"462 32 OFFCURVE",
"462 63 CURVE SMOOTH",
"462 75 OFFCURVE",
"463 88 OFFCURVE",
"466 104 CURVE SMOOTH",
"479 185 OFFCURVE",
"529 272 OFFCURVE",
"581 324 CURVE SMOOTH",
"593 336 OFFCURVE",
"561 363 OFFCURVE",
"538 363 CURVE SMOOTH",
"531 363 OFFCURVE",
"525 360 OFFCURVE",
"521 354 CURVE SMOOTH",
"472 280 OFFCURVE",
"370 124 OFFCURVE",
"292 60 CURVE SMOOTH",
"232 10 OFFCURVE",
"176 -15 OFFCURVE",
"133 -15 CURVE SMOOTH"
);
},
{
closed = 1;
nodes = (
"275 413 OFFCURVE",
"247 416 OFFCURVE",
"220 421 CURVE",
"317 529 OFFCURVE",
"431 628 OFFCURVE",
"590 649 CURVE SMOOTH",
"600 650 OFFCURVE",
"609 651 OFFCURVE",
"618 651 CURVE SMOOTH",
"670 651 OFFCURVE",
"706 633 OFFCURVE",
"706 593 CURVE SMOOTH",
"706 571 OFFCURVE",
"698 550 OFFCURVE",
"681 530 CURVE",
"660 541 OFFCURVE",
"641 554 OFFCURVE",
"626 569 CURVE SMOOTH",
"623 572 OFFCURVE",
"621 573 OFFCURVE",
"619 573 CURVE SMOOTH",
"615 573 OFFCURVE",
"612 569 OFFCURVE",
"612 565 CURVE SMOOTH",
"612 562 OFFCURVE",
"613 559 OFFCURVE",
"616 556 CURVE SMOOTH",
"628 541 OFFCURVE",
"646 529 OFFCURVE",
"667 516 CURVE",
"628 480 OFFCURVE",
"564 450 OFFCURVE",
"476 434 CURVE SMOOTH",
"407 420 OFFCURVE",
"353 413 OFFCURVE",
"305 413 CURVE SMOOTH"
);
},
{
closed = 1;
nodes = (
"906 474 OFFCURVE",
"857 478 OFFCURVE",
"810 489 CURVE",
"871 584 OFFCURVE",
"1046 637 OFFCURVE",
"1137 637 CURVE SMOOTH",
"1170 637 OFFCURVE",
"1192 633 OFFCURVE",
"1205 624 CURVE SMOOTH",
"1218 615 OFFCURVE",
"1224 604 OFFCURVE",
"1224 591 CURVE SMOOTH",
"1224 522 OFFCURVE",
"1058 474 OFFCURVE",
"949 474 CURVE SMOOTH"
);
}
);
width = 1248;
}
);
note = AE;
},
{
glyphname = B.ss01;
lastChange = "2021-08-02 21:05:32 +0000";
layers = (
{
layerId = "1C8B4FDB-B0E8-4411-8E26-068C67144FEF";
paths = (
{
closed = 1;
nodes = (
"634 -21 OFFCURVE",
"711 3 OFFCURVE",
"764 43 CURVE SMOOTH",
"816 82 OFFCURVE",
"847 135 OFFCURVE",
"847 192 CURVE SMOOTH",
"847 261.991 OFFCURVE",
"784 318 OFFCURVE",
"662 320 CURVE",
"750 323 OFFCURVE",
"879 382 OFFCURVE",
"879 481 CURVE SMOOTH",
"879 557 OFFCURVE",
"835 599 OFFCURVE",
"731 626 CURVE",
"738 641 OFFCURVE",
"773 672 OFFCURVE",
"802 689 CURVE SMOOTH",
"816 697 OFFCURVE",
"841 705 OFFCURVE",
"862 705 CURVE SMOOTH",
"873 705 OFFCURVE",
"883 703 OFFCURVE",
"891 698 CURVE SMOOTH",
"898 693 OFFCURVE",
"905 696 OFFCURVE",
"905 701 CURVE SMOOTH",
"905 704 OFFCURVE",
"903 707 OFFCURVE",
"900 711 CURVE SMOOTH",
"893 720 OFFCURVE",
"880 725 OFFCURVE",
"863 725 CURVE SMOOTH",
"842 725 OFFCURVE",
"824 722 OFFCURVE",
"807 715 CURVE SMOOTH",
"755 693 OFFCURVE",
"736 663 OFFCURVE",
"700 633 CURVE",
"643 646 OFFCURVE",
"576 652 OFFCURVE",
"511 652 CURVE SMOOTH",
"366 652 OFFCURVE",
"255 612 OFFCURVE",
"180 560 CURVE SMOOTH",
"143 533 OFFCURVE",
"115 505 OFFCURVE",
"97 474 CURVE SMOOTH",
"81 446 OFFCURVE",
"73 420 OFFCURVE",
"73 397 CURVE SMOOTH",
"73 367 OFFCURVE",
"86 341 OFFCURVE",
"112 322 CURVE SMOOTH",
"135 304 OFFCURVE",
"170 295 OFFCURVE",
"216 295 CURVE SMOOTH",
"253 295 OFFCURVE",
"302 307 OFFCURVE",
"354 340 CURVE SMOOTH",
"406 372 OFFCURVE",
"463 427 OFFCURVE",
"520 514 CURVE SMOOTH",
"522 518 OFFCURVE",
"523 522 OFFCURVE",
"523 525 CURVE SMOOTH",
"523 529 OFFCURVE",
"522 532 OFFCURVE",
"520 532 CURVE SMOOTH",
"518 532 OFFCURVE",
"516 530 OFFCURVE",
"513 526 CURVE",
"451 419 OFFCURVE",
"315 318 OFFCURVE",
"214 318 CURVE SMOOTH",
"144 318 OFFCURVE",
"113 345 OFFCURVE",
"113 382 CURVE SMOOTH",
"113 410 OFFCURVE",
"128 440 OFFCURVE",
"156 474 CURVE SMOOTH",
"201 528 OFFCURVE",
"276 575 OFFCURVE",
"375 606 CURVE SMOOTH",
"424 621 OFFCURVE",
"478 629 OFFCURVE",
"535 629 CURVE SMOOTH",
"583 629 OFFCURVE",
"637 626 OFFCURVE",
"682 618 CURVE",
"581 503 OFFCURVE",
"522 401 OFFCURVE",
"473 308 CURVE SMOOTH",
"426 216 OFFCURVE",
"350 86 OFFCURVE",
"293 31 CURVE",
"222 37 OFFCURVE",
"171 52 OFFCURVE",
"97 52 CURVE SMOOTH",
"78 52 OFFCURVE",
"65 49 OFFCURVE",
"60 44 CURVE SMOOTH",
"54 38 OFFCURVE",
"51 32 OFFCURVE",
"51 27 CURVE SMOOTH",
"51 -1 OFFCURVE",
"103 -11 OFFCURVE",
"161 -11 CURVE SMOOTH",
"215 -11 OFFCURVE",
"276 -2 OFFCURVE",
"304 10 CURVE",
"378 3 OFFCURVE",
"476 -21 OFFCURVE",
"542 -21 CURVE SMOOTH"
);
},
{
closed = 1;
nodes = (
"484 3 OFFCURVE",
"382 14 OFFCURVE",
"320 25 CURVE",
"405 87 OFFCURVE",
"460 175 OFFCURVE",
"518 274 CURVE SMOOTH",
"546 320 OFFCURVE",
"591 401 OFFCURVE",
"619 449 CURVE SMOOTH",
"652 507 OFFCURVE",
"686 562 OFFCURVE",
"719 609 CURVE",
"782 591 OFFCURVE",
"832 562 OFFCURVE",
"832 482 CURVE SMOOTH",
"832 414 OFFCURVE",
"746 332 OFFCURVE",
"662 332 CURVE SMOOTH",
"640 332 OFFCURVE",
"618 340 OFFCURVE",
"602 340 CURVE SMOOTH",
"591 340 OFFCURVE",
"583 335 OFFCURVE",
"583 320 CURVE SMOOTH",
"583 306 OFFCURVE",
"601 304 OFFCURVE",
"623 304 CURVE SMOOTH",
"638 304 OFFCURVE",
"656 305 OFFCURVE",
"671 305 CURVE SMOOTH",
"756 305 OFFCURVE",
"793 259 OFFCURVE",
"793 203 CURVE SMOOTH",
"793 92 OFFCURVE",
"683 3 OFFCURVE",
"534 3 CURVE SMOOTH"
);
}
);
width = 885;
}
);
note = B;
},
{
glyphname = C.ss01;
lastChange = "2021-08-02 21:05:32 +0000";
layers = (
{
anchors = (
{
name = bottom;
position = "{160, -60}";
},
{
name = top;
position = "{618, 658}";
}
);
layerId = "1C8B4FDB-B0E8-4411-8E26-068C67144FEF";
paths = (
{
closed = 1;
nodes = (
"218 -210 OFFCURVE",
"222 -204 OFFCURVE",
"222 -192 CURVE SMOOTH",
"222 -153 OFFCURVE",
"229 -111 OFFCURVE",
"241 -68 CURVE",
"349 -60 OFFCURVE",
"456 -9 OFFCURVE",
"536 59 CURVE SMOOTH",
"587 104 OFFCURVE",
"664 181 OFFCURVE",
"664 252 CURVE SMOOTH",
"664 296 OFFCURVE",
"628 312 OFFCURVE",
"589 312 CURVE SMOOTH",
"505 312 OFFCURVE",
"428 269 OFFCURVE",
"367 204 CURVE SMOOTH",
"306 139 OFFCURVE",
"259 52 OFFCURVE",
"232 -33 CURVE",
"139 -32 OFFCURVE",
"93 19 OFFCURVE",
"93 110 CURVE SMOOTH",
"93 210 OFFCURVE",
"148 317 OFFCURVE",
"209 394 CURVE",
"264 378 OFFCURVE",
"319 373 OFFCURVE",
"375 373 CURVE SMOOTH",
"471 373 OFFCURVE",
"596 394 OFFCURVE",
"677 446 CURVE SMOOTH",
"715 473 OFFCURVE",
"755 515 OFFCURVE",
"755 563 CURVE SMOOTH",
"755 630 OFFCURVE",
"682 658 OFFCURVE",
"620 658 CURVE SMOOTH",
"536 658 OFFCURVE",
"454 633 OFFCURVE",
"378 593 CURVE SMOOTH",
"302 552 OFFCURVE",
"233 495 OFFCURVE",
"173 431 CURVE",
"128 452 OFFCURVE",
"79 501 OFFCURVE",
"79 550 CURVE SMOOTH",
"79 561 OFFCURVE",
"81 570 OFFCURVE",
"86 575 CURVE SMOOTH",
"90 580 OFFCURVE",
"92 585 OFFCURVE",
"92 590 CURVE SMOOTH",
"92 594 OFFCURVE",
"91 596 OFFCURVE",
"88 596 CURVE SMOOTH",
"85 596 OFFCURVE",
"82 595 OFFCURVE",
"78 592 CURVE SMOOTH",
"62 579 OFFCURVE",
"58 558 OFFCURVE",
"58 538 CURVE SMOOTH",
"58 517 OFFCURVE",
"63 494 OFFCURVE",
"76 477 CURVE SMOOTH",
"97 450 OFFCURVE",
"126 429 OFFCURVE",
"157 414 CURVE",
"124 375 OFFCURVE",
"93 333 OFFCURVE",
"73 286 CURVE SMOOTH",
"46 230 OFFCURVE",
"26 164 OFFCURVE",
"26 101 CURVE SMOOTH",
"26 -16 OFFCURVE",
"96 -70 OFFCURVE",
"209 -70 CURVE SMOOTH",
"222 -70 LINE",
"211 -111 OFFCURVE",
"206 -153 OFFCURVE",
"206 -192 CURVE SMOOTH",
"206 -204 OFFCURVE",
"210 -210 OFFCURVE",
"214 -210 CURVE SMOOTH"
);
},
{
closed = 1;
nodes = (
"284 51 OFFCURVE",
"335 134 OFFCURVE",
"395 195 CURVE SMOOTH",
"454 256 OFFCURVE",
"521 297 OFFCURVE",
"585 297 CURVE SMOOTH",
"610 297 OFFCURVE",
"629 285 OFFCURVE",
"629 257 CURVE SMOOTH",
"629 191 OFFCURVE",
"564 127 OFFCURVE",
"513 84 CURVE SMOOTH",
"442 27 OFFCURVE",
"347 -24 OFFCURVE",
"253 -32 CURVE"
);
},
{
closed = 1;
nodes = (
"330 392 OFFCURVE",
"275 398 OFFCURVE",
"224 411 CURVE",
"318 521 OFFCURVE",
"464 636 OFFCURVE",
"613 636 CURVE SMOOTH",
"663 636 OFFCURVE",
"715 614 OFFCURVE",
"715 560 CURVE SMOOTH",
"715 524 OFFCURVE",
"690 495 OFFCURVE",
"665 472 CURVE SMOOTH",
"594 412 OFFCURVE",
"475 392 OFFCURVE",
"383 392 CURVE SMOOTH"
);
}
);
userData = {
assembly = "PUSHW[ ]	/* 4 values pushed */\0120 7 34 4 \012CALL[ ]	/* CallFunction */\012PUSHW[ ]	/* 4 values pushed */\01271 6 100 4 \012CALL[ ]	/* CallFunction */\012PUSHW[ ]	/* 4 values pushed */\01211 6 115 4 \012CALL[ ]	/* CallFunction */\012NPUSHW[ ]	/* 15 values pushed */\0126 0 22 0 38 0 54 0 70 0 86 0 102 0 7 \012DELTAP1[ ]	/* DeltaExceptionP1 */\012NPUSHW[ ]	/* 5 values pushed */\012117 0 133 0 2 \012DELTAP1[ ]	/* DeltaExceptionP1 */\012PUSHW[ ]	/* 1 value pushed */\01234 \012SRP0[ ]	/* SetRefPoint0 */\012PUSHW[ ]	/* 2 values pushed */\01230 5 \012MIRP[10100]	/* MoveIndirectRelPt */\012PUSHW[ ]	/* 1 value pushed */\01222 \012MDRP[10000]	/* MoveDirectRelPt */\012PUSHW[ ]	/* 3 values pushed */\01240 34 30 \012SRP1[ ]	/* SetRefPoint1 */\012SRP2[ ]	/* SetRefPoint2 */\012IP[ ]	/* InterpolatePts */\012PUSHW[ ]	/* 3 values pushed */\01246 34 0 \012SRP1[ ]	/* SetRefPoint1 */\012SRP2[ ]	/* SetRefPoint2 */\012IP[ ]	/* InterpolatePts */\012PUSHW[ ]	/* 1 value pushed */\01246 \012MDAP[1]	/* MoveDirectAbsPt */\012PUSHW[ ]	/* 1 value pushed */\0120 \012SRP0[ ]	/* SetRefPoint0 */\012PUSHW[ ]	/* 1 value pushed */\01253 \012MDRP[10000]	/* MoveDirectRelPt */\012PUSHW[ ]	/* 1 value pushed */\01253 \012MDAP[1]	/* MoveDirectAbsPt */\012PUSHW[ ]	/* 1 value pushed */\01246 \012SRP0[ ]	/* SetRefPoint0 */\012PUSHW[ ]	/* 2 values pushed */\01256 6 \012MIRP[10100]	/* MoveIndirectRelPt */\012PUSHW[ ]	/* 3 values pushed */\01289 34 71 \012SRP1[ ]	/* SetRefPoint1 */\012SRP2[ ]	/* SetRefPoint2 */\012IP[ ]	/* InterpolatePts */\012NPUSHW[ ]	/* 3 values pushed */\012250 100 1 \012DELTAP2[ ]	/* DeltaExceptionP2 */\012NPUSHW[ ]	/* 3 values pushed */\01210 100 1 \012DELTAP3[ ]	/* DeltaExceptionP3 */\012NPUSHW[ ]	/* 33 values pushed */\0129 100 25 100 41 100 57 100 73 100 89 100 105 100 121 100 137 100 153 100 169 100 185 100 201 100 217 100 233 100 249 100 16 \012DELTAP1[ ]	/* DeltaExceptionP1 */\012NPUSHW[ ]	/* 31 values pushed */\0129 100 25 100 41 100 57 100 73 100 89 100 105 100 121 100 137 100 153 100 169 100 185 100 201 100 217 100 233 100 15 \012DELTAP2[ ]	/* DeltaExceptionP2 */\012NPUSHW[ ]	/* 3 values pushed */\012250 115 1 \012DELTAP2[ ]	/* DeltaExceptionP2 */\012NPUSHW[ ]	/* 3 values pushed */\01210 115 1 \012DELTAP3[ ]	/* DeltaExceptionP3 */\012NPUSHW[ ]	/* 33 values pushed */\0129 115 25 115 41 115 57 115 73 115 89 115 105 115 121 115 137 115 153 115 169 115 185 115 201 115 217 115 233 115 249 115 16 \012DELTAP1[ ]	/* DeltaExceptionP1 */\012NPUSHW[ ]	/* 31 values pushed */\0129 115 25 115 41 115 57 115 73 115 89 115 105 115 121 115 137 115 153 115 169 115 185 115 201 115 217 115 233 115 15 \012DELTAP2[ ]	/* DeltaExceptionP2 */\012PUSHW[ ]	/* 3 values pushed */\012123 34 71 \012SRP1[ ]	/* SetRefPoint1 */\012SRP2[ ]	/* SetRefPoint2 */\012IP[ ]	/* InterpolatePts */\012PUSHW[ ]	/* 1 value pushed */\01271 \012SRP0[ ]	/* SetRefPoint0 */\012PUSHW[ ]	/* 1 value pushed */\012129 \012MDRP[11100]	/* MoveDirectRelPt */\012SVTCA[0]	/* SetFreedomAndProjectionVectorToAxis */\012PUSHW[ ]	/* 4 values pushed */\01266 1 105 4 \012CALL[ ]	/* CallFunction */\012PUSHW[ ]	/* 4 values pushed */\0123 4 30 4 \012CALL[ ]	/* CallFunction */\012PUSHW[ ]	/* 3 values pushed */\01292 118 3 \012CALL[ ]	/* CallFunction */\012PUSHW[ ]	/* 1 value pushed */\01230 \012SRP0[ ]	/* SetRefPoint0 */\012PUSHW[ ]	/* 1 value pushed */\01219 \012MDRP[10000]	/* MoveDirectRelPt */\012PUSHW[ ]	/* 1 value pushed */\01219 \012MDAP[1]	/* MoveDirectAbsPt */\012PUSHW[ ]	/* 1 value pushed */\0123 \012SRP0[ ]	/* SetRefPoint0 */\012PUSHW[ ]	/* 1 value pushed */\012123 \012MDRP[10000]	/* MoveDirectRelPt */\012PUSHW[ ]	/* 1 value pushed */\012123 \012MDAP[1]	/* MoveDirectAbsPt */\012IUP[0]	/* InterpolateUntPts */\012IUP[1]	/* InterpolateUntPts */";
};
width = 678;
}
);
note = C;
},
{
glyphname = D.ss01;
lastChange = "2021-08-02 21:05:32 +0000";
layers = (
{
anchors = (
{
name = bottom;
position = "{471, 0}";
},
{
name = center;
position = "{471, 440}";
},
{
name = top;
position = "{863, 725}";
}
);
layerId = "1C8B4FDB-B0E8-4411-8E26-068C67144FEF";
paths = (
{
closed = 1;
nodes = (
"670 -26 OFFCURVE",
"764 13 OFFCURVE",
"830 78 CURVE SMOOTH",
"896 142 OFFCURVE",
"934 232 OFFCURVE",
"934 335 CURVE SMOOTH",
"934 457 OFFCURVE",
"862 585 OFFCURVE",
"731 626 CURVE",
"738 641 OFFCURVE",
"773 672 OFFCURVE",
"802 689 CURVE SMOOTH",
"816 697 OFFCURVE",
"841 705 OFFCURVE",
"862 705 CURVE SMOOTH",
"873 705 OFFCURVE",
"883 703 OFFCURVE",
"891 698 CURVE SMOOTH",
"898 693 OFFCURVE",
"905 696 OFFCURVE",
"905 701 CURVE SMOOTH",
"905 704 OFFCURVE",
"903 707 OFFCURVE",
"900 711 CURVE SMOOTH",
"893 720 OFFCURVE",
"880 725 OFFCURVE",
"863 725 CURVE SMOOTH",
"842 725 OFFCURVE",
"824 722 OFFCURVE",
"807 715 CURVE SMOOTH",
"755 693 OFFCURVE",
"736 663 OFFCURVE",
"700 633 CURVE",
"643 646 OFFCURVE",
"576 652 OFFCURVE",
"511 652 CURVE SMOOTH",
"366 652 OFFCURVE",
"255 612 OFFCURVE",
"180 560 CURVE SMOOTH",
"143 533 OFFCURVE",
"115 505 OFFCURVE",
"97 474 CURVE SMOOTH",
"81 446 OFFCURVE",
"73 420 OFFCURVE",
"73 397 CURVE SMOOTH",
"73 367 OFFCURVE",
"86 341 OFFCURVE",
"112 322 CURVE SMOOTH",
"135 304 OFFCURVE",
"170 295 OFFCURVE",
"216 295 CURVE SMOOTH",
"253 295 OFFCURVE",
"302 307 OFFCURVE",
"354 340 CURVE SMOOTH",
"406 372 OFFCURVE",
"463 427 OFFCURVE",
"520 514 CURVE SMOOTH",
"522 518 OFFCURVE",
"523 522 OFFCURVE",
"523 525 CURVE SMOOTH",
"523 529 OFFCURVE",
"522 532 OFFCURVE",
"520 532 CURVE SMOOTH",
"518 532 OFFCURVE",
"516 530 OFFCURVE",
"513 526 CURVE",
"451 419 OFFCURVE",
"315 318 OFFCURVE",
"214 318 CURVE SMOOTH",
"144 318 OFFCURVE",
"113 345 OFFCURVE",
"113 382 CURVE SMOOTH",
"113 410 OFFCURVE",
"128 440 OFFCURVE",
"156 474 CURVE SMOOTH",
"201 528 OFFCURVE",
"276 575 OFFCURVE",
"375 606 CURVE SMOOTH",
"424 621 OFFCURVE",
"478 629 OFFCURVE",
"535 629 CURVE SMOOTH",
"583 629 OFFCURVE",
"637 626 OFFCURVE",
"682 618 CURVE",
"581 503 OFFCURVE",
"522 401 OFFCURVE",
"473 308 CURVE SMOOTH",
"426 216 OFFCURVE",
"350 86 OFFCURVE",
"293 31 CURVE",
"222 37 OFFCURVE",
"171 52 OFFCURVE",
"97 52 CURVE SMOOTH",
"78 52 OFFCURVE",
"65 49 OFFCURVE",
"60 44 CURVE SMOOTH",
"54 38 OFFCURVE",
"51 32 OFFCURVE",
"51 27 CURVE SMOOTH",
"51 -1 OFFCURVE",
"103 -11 OFFCURVE",
"161 -11 CURVE SMOOTH",
"215 -11 OFFCURVE",
"276 -2 OFFCURVE",
"304 10 CURVE",
"347 -3 OFFCURVE",
"493 -26 OFFCURVE",
"558 -26 CURVE SMOOTH"
);
},
{
closed = 1;
nodes = (
"483 -3 OFFCURVE",
"362 12 OFFCURVE",
"320 25 CURVE",
"405 87 OFFCURVE",
"460 175 OFFCURVE",
"518 274 CURVE SMOOTH",
"546 320 OFFCURVE",
"591 401 OFFCURVE",
"619 449 CURVE SMOOTH",
"652 507 OFFCURVE",
"686 562 OFFCURVE",
"719 609 CURVE",
"817 572 OFFCURVE",
"877 464 OFFCURVE",
"877 326 CURVE SMOOTH",
"877 246 OFFCURVE",
"845 165 OFFCURVE",
"789 102 CURVE SMOOTH",
"733 39 OFFCURVE",
"653 -3 OFFCURVE",
"557 -3 CURVE SMOOTH"
);
}
);
userData = {
assembly = "PUSHW[ ]	/* 4 values pushed */\0125 6 113 4 \012CALL[ ]	/* CallFunction */\012NPUSHW[ ]	/* 3 values pushed */\012250 113 1 \012DELTAP2[ ]	/* DeltaExceptionP2 */\012NPUSHW[ ]	/* 3 values pushed */\01210 113 1 \012DELTAP3[ ]	/* DeltaExceptionP3 */\012NPUSHW[ ]	/* 33 values pushed */\0129 113 25 113 41 113 57 113 73 113 89 113 105 113 121 113 137 113 153 113 169 113 185 113 201 113 217 113 233 113 249 113 16 \012DELTAP1[ ]	/* DeltaExceptionP1 */\012NPUSHW[ ]	/* 31 values pushed */\0129 113 25 113 41 113 57 113 73 113 89 113 105 113 121 113 137 113 153 113 169 113 185 113 201 113 217 113 233 113 15 \012DELTAP2[ ]	/* DeltaExceptionP2 */\012PUSHW[ ]	/* 1 value pushed */\0125 \012SRP0[ ]	/* SetRefPoint0 */\012PUSHW[ ]	/* 1 value pushed */\012119 \012MDRP[11100]	/* MoveDirectRelPt */\012SVTCA[0]	/* SetFreedomAndProjectionVectorToAxis */\012PUSHW[ ]	/* 1 value pushed */\01278 \012MDAP[1]	/* MoveDirectAbsPt */\012PUSHW[ ]	/* 4 values pushed */\012108 1 10 4 \012CALL[ ]	/* CallFunction */\012PUSHW[ ]	/* 4 values pushed */\01268 1 41 4 \012CALL[ ]	/* CallFunction */\012PUSHW[ ]	/* 4 values pushed */\01248 1 61 4 \012CALL[ ]	/* CallFunction */\012IUP[0]	/* InterpolateUntPts */\012IUP[1]	/* InterpolateUntPts */";
};
width = 941;
}
);
note = D;
},
{
glyphname = Eth.ss01;
lastChange = "2021-08-02 21:05:32 +0000";
layers = (
{
layerId = "1C8B4FDB-B0E8-4411-8E26-068C67144FEF";
paths = (
{
closed = 1;
nodes = (
"670 -26 OFFCURVE",
"764 13 OFFCURVE",
"830 78 CURVE SMOOTH",
"896 142 OFFCURVE",
"934 232 OFFCURVE",
"934 335 CURVE SMOOTH",
"934 457 OFFCURVE",
"862 585 OFFCURVE",
"731 626 CURVE",
"738 641 OFFCURVE",
"773 672 OFFCURVE",
"802 689 CURVE SMOOTH",
"816 697 OFFCURVE",
"841 705 OFFCURVE",
"862 705 CURVE SMOOTH",
"873 705 OFFCURVE",
"883 703 OFFCURVE",
"891 698 CURVE SMOOTH",
"898 693 OFFCURVE",
"905 696 OFFCURVE",
"905 701 CURVE SMOOTH",
"905 704 OFFCURVE",
"903 707 OFFCURVE",
"900 711 CURVE SMOOTH",
"893 720 OFFCURVE",
"880 725 OFFCURVE",
"863 725 CURVE SMOOTH",
"842 725 OFFCURVE",
"824 722 OFFCURVE",
"807 715 CURVE SMOOTH",
"755 693 OFFCURVE",
"736 663 OFFCURVE",
"700 633 CURVE",
"643 646 OFFCURVE",
"576 652 OFFCURVE",
"511 652 CURVE SMOOTH",
"366 652 OFFCURVE",
"255 612 OFFCURVE",
"180 560 CURVE SMOOTH",
"143 533 OFFCURVE",
"115 505 OFFCURVE",
"97 474 CURVE SMOOTH",
"81 446 OFFCURVE",
"73 420 OFFCURVE",
"73 397 CURVE SMOOTH",
"73 367 OFFCURVE",
"86 341 OFFCURVE",
"112 322 CURVE SMOOTH",
"135 304 OFFCURVE",
"170 295 OFFCURVE",
"216 295 CURVE SMOOTH",
"253 295 OFFCURVE",
"302 307 OFFCURVE",
"354 340 CURVE SMOOTH",
"406 372 OFFCURVE",
"463 427 OFFCURVE",
"520 514 CURVE SMOOTH",
"522 518 OFFCURVE",
"523 522 OFFCURVE",
"523 525 CURVE SMOOTH",
"523 529 OFFCURVE",
"522 532 OFFCURVE",
"520 532 CURVE SMOOTH",
"518 532 OFFCURVE",
"516 530 OFFCURVE",
"513 526 CURVE",
"451 419 OFFCURVE",
"315 318 OFFCURVE",
"214 318 CURVE SMOOTH",
"144 318 OFFCURVE",
"113 345 OFFCURVE",
"113 382 CURVE SMOOTH",
"113 410 OFFCURVE",
"128 440 OFFCURVE",
"156 474 CURVE SMOOTH",
"201 528 OFFCURVE",
"276 575 OFFCURVE",
"375 606 CURVE SMOOTH",
"424 621 OFFCURVE",
"478 629 OFFCURVE",
"535 629 CURVE SMOOTH",
"583 629 OFFCURVE",
"637 626 OFFCURVE",
"682 618 CURVE",
"581 503 OFFCURVE",
"522 401 OFFCURVE",
"473 308 CURVE SMOOTH",
"433 234 LINE",
"403 232 OFFCURVE",
"372 230 OFFCURVE",
"347 230 CURVE SMOOTH",
"332 230 OFFCURVE",
"319 231 OFFCURVE",
"309 233 CURVE",
"309 212 OFFCURVE",
"313 190 OFFCURVE",
"348 190 CURVE SMOOTH",
"365 190 OFFCURVE",
"388 191 OFFCURVE",
"411 194 CURVE",
"372 127 OFFCURVE",
"332 70 OFFCURVE",
"293 31 CURVE",
"222 37 OFFCURVE",
"171 52 OFFCURVE",
"97 52 CURVE SMOOTH",
"78 52 OFFCURVE",
"65 49 OFFCURVE",
"60 44 CURVE SMOOTH",
"54 38 OFFCURVE",
"51 32 OFFCURVE",
"51 27 CURVE SMOOTH",
"51 -1 OFFCURVE",
"103 -11 OFFCURVE",
"161 -11 CURVE SMOOTH",
"215 -11 OFFCURVE",
"276 -2 OFFCURVE",
"304 10 CURVE",
"347 -3 OFFCURVE",
"493 -26 OFFCURVE",
"558 -26 CURVE SMOOTH"
);
},
{
closed = 1;
nodes = (
"483 -3 OFFCURVE",
"362 12 OFFCURVE",
"320 25 CURVE",
"387 74 OFFCURVE",
"429 129 OFFCURVE",
"473 200 CURVE",
"488 202 OFFCURVE",
"500 202 OFFCURVE",
"511 202 CURVE SMOOTH",
"525 202 OFFCURVE",
"535 201 OFFCURVE",
"544 199 CURVE SMOOTH",
"559 195 OFFCURVE",
"567 191 OFFCURVE",
"570 188 CURVE",
"570 212 OFFCURVE",
"568 237 OFFCURVE",
"516 237 CURVE SMOOTH",
"510 237 OFFCURVE",
"503 237 OFFCURVE",
"496 236 CURVE",
"518 274 LINE SMOOTH",
"546 320 OFFCURVE",
"591 401 OFFCURVE",
"619 449 CURVE SMOOTH",
"652 507 OFFCURVE",
"686 562 OFFCURVE",
"719 609 CURVE",
"817 572 OFFCURVE",
"877 464 OFFCURVE",
"877 326 CURVE SMOOTH",
"877 246 OFFCURVE",
"845 165 OFFCURVE",
"789 102 CURVE SMOOTH",
"733 39 OFFCURVE",
"653 -3 OFFCURVE",
"557 -3 CURVE SMOOTH"
);
}
);
width = 941;
}
);
note = Eth;
},
{
glyphname = Dcroat.ss01;
lastChange = "2021-08-02 21:05:32 +0000";
layers = (
{
layerId = "1C8B4FDB-B0E8-4411-8E26-068C67144FEF";
paths = (
{
closed = 1;
nodes = (
"670 -26 OFFCURVE",
"764 13 OFFCURVE",
"830 78 CURVE SMOOTH",
"896 142 OFFCURVE",
"934 232 OFFCURVE",
"934 335 CURVE SMOOTH",
"934 457 OFFCURVE",
"862 585 OFFCURVE",
"731 626 CURVE",
"738 641 OFFCURVE",
"773 672 OFFCURVE",
"802 689 CURVE SMOOTH",
"816 697 OFFCURVE",
"841 705 OFFCURVE",
"862 705 CURVE SMOOTH",
"873 705 OFFCURVE",
"883 703 OFFCURVE",
"891 698 CURVE SMOOTH",
"898 693 OFFCURVE",
"905 696 OFFCURVE",
"905 701 CURVE SMOOTH",
"905 704 OFFCURVE",
"903 707 OFFCURVE",
"900 711 CURVE SMOOTH",
"893 720 OFFCURVE",
"880 725 OFFCURVE",
"863 725 CURVE SMOOTH",
"842 725 OFFCURVE",
"824 722 OFFCURVE",
"807 715 CURVE SMOOTH",
"755 693 OFFCURVE",
"736 663 OFFCURVE",
"700 633 CURVE",
"643 646 OFFCURVE",
"576 652 OFFCURVE",
"511 652 CURVE SMOOTH",
"366 652 OFFCURVE",
"255 612 OFFCURVE",
"180 560 CURVE SMOOTH",
"143 533 OFFCURVE",
"115 505 OFFCURVE",
"97 474 CURVE SMOOTH",
"81 446 OFFCURVE",
"73 420 OFFCURVE",
"73 397 CURVE SMOOTH",
"73 367 OFFCURVE",
"86 341 OFFCURVE",
"112 322 CURVE SMOOTH",
"135 304 OFFCURVE",
"170 295 OFFCURVE",
"216 295 CURVE SMOOTH",
"253 295 OFFCURVE",
"302 307 OFFCURVE",
"354 340 CURVE SMOOTH",
"406 372 OFFCURVE",
"463 427 OFFCURVE",
"520 514 CURVE SMOOTH",
"522 518 OFFCURVE",
"523 522 OFFCURVE",
"523 525 CURVE SMOOTH",
"523 529 OFFCURVE",
"522 532 OFFCURVE",
"520 532 CURVE SMOOTH",
"518 532 OFFCURVE",
"516 530 OFFCURVE",
"513 526 CURVE",
"451 419 OFFCURVE",
"315 318 OFFCURVE",
"214 318 CURVE SMOOTH",
"144 318 OFFCURVE",
"113 345 OFFCURVE",
"113 382 CURVE SMOOTH",
"113 410 OFFCURVE",
"128 440 OFFCURVE",
"156 474 CURVE SMOOTH",
"201 528 OFFCURVE",
"276 575 OFFCURVE",
"375 606 CURVE SMOOTH",
"424 621 OFFCURVE",
"478 629 OFFCURVE",
"535 629 CURVE SMOOTH",
"583 629 OFFCURVE",
"637 626 OFFCURVE",
"682 618 CURVE",
"581 503 OFFCURVE",
"522 401 OFFCURVE",
"473 308 CURVE SMOOTH",
"426 216 OFFCURVE",
"350 86 OFFCURVE",
"293 31 CURVE",
"222 37 OFFCURVE",
"171 52 OFFCURVE",
"97 52 CURVE SMOOTH",
"78 52 OFFCURVE",
"65 49 OFFCURVE",
"60 44 CURVE SMOOTH",
"54 38 OFFCURVE",
"51 32 OFFCURVE",
"51 27 CURVE SMOOTH",
"51 -1 OFFCURVE",
"103 -11 OFFCURVE",
"161 -11 CURVE SMOOTH",
"215 -11 OFFCURVE",
"276 -2 OFFCURVE",
"304 10 CURVE",
"347 -3 OFFCURVE",
"493 -26 OFFCURVE",
"558 -26 CURVE SMOOTH"
);
},
{
closed = 1;
nodes = (
"483 -3 OFFCURVE",
"362 12 OFFCURVE",
"320 25 CURVE",
"405 87 OFFCURVE",
"460 175 OFFCURVE",
"518 274 CURVE SMOOTH",
"546 320 OFFCURVE",
"591 401 OFFCURVE",
"619 449 CURVE SMOOTH",
"652 507 OFFCURVE",
"686 562 OFFCURVE",
"719 609 CURVE",
"817 572 OFFCURVE",
"877 464 OFFCURVE",
"877 326 CURVE SMOOTH",
"877 246 OFFCURVE",
"845 165 OFFCURVE",
"789 102 CURVE SMOOTH",
"733 39 OFFCURVE",
"653 -3 OFFCURVE",
"557 -3 CURVE SMOOTH"
);
}
);
width = 941;
}
);
note = Dcroat;
},
{
glyphname = E.ss01;
lastChange = "2021-08-02 21:05:32 +0000";
layers = (
{
anchors = (
{
name = bottom;
position = "{222, -40}";
},
{
name = ogonek;
position = "{249, -41}";
},
{
name = top;
position = "{537, 666}";
},
{
name = topleft;
position = "{20, 880}";
}
);
layerId = "1C8B4FDB-B0E8-4411-8E26-068C67144FEF";
paths = (
{
closed = 1;
nodes = (
"359 -52 OFFCURVE",
"419 -40 OFFCURVE",
"476 -19 CURVE SMOOTH",
"505 -8 OFFCURVE",
"532 5 OFFCURVE",
"559 21 CURVE SMOOTH",
"612 52 OFFCURVE",
"655 93 OFFCURVE",
"680 143 CURVE SMOOTH",
"692 168 OFFCURVE",
"698 195 OFFCURVE",
"698 224 CURVE SMOOTH",
"698 254 OFFCURVE",
"670 289 OFFCURVE",
"622 289 CURVE SMOOTH",
"611 289 OFFCURVE",
"605 286 OFFCURVE",
"605 281 CURVE SMOOTH",
"605 278 OFFCURVE",
"609 277 OFFCURVE",
"615 277 CURVE SMOOTH",
"646 277 OFFCURVE",
"655 251 OFFCURVE",
"655 228 CURVE SMOOTH",
"655 157 OFFCURVE",
"608 93 OFFCURVE",
"541 46 CURVE SMOOTH",
"473 -2 OFFCURVE",
"384 -31 OFFCURVE",
"303 -31 CURVE SMOOTH",
"169 -31 OFFCURVE",
"90 27 OFFCURVE",
"90 124 CURVE SMOOTH",
"90 208 OFFCURVE",
"145 299 OFFCURVE",
"224 324 CURVE SMOOTH",
"236 327 OFFCURVE",
"248 329 OFFCURVE",
"260 329 CURVE SMOOTH",
"288 329 OFFCURVE",
"317 322 OFFCURVE",
"346 320 CURVE SMOOTH",
"374 316 OFFCURVE",
"396 314 OFFCURVE",
"412 314 CURVE SMOOTH",
"419 314 OFFCURVE",
"424 315 OFFCURVE",
"429 316 CURVE SMOOTH",
"443 318 OFFCURVE",
"450 324 OFFCURVE",
"450 333 CURVE SMOOTH",
"450 362 OFFCURVE",
"399 363 OFFCURVE",
"365 363 CURVE SMOOTH",
"330 363 OFFCURVE",
"303 361 OFFCURVE",
"286 360 CURVE",
"268 374 OFFCURVE",
"256 392 OFFCURVE",
"256 417 CURVE SMOOTH",
"256 435 OFFCURVE",
"259 452 OFFCURVE",
"267 469 CURVE",
"316 458 OFFCURVE",
"364 452 OFFCURVE",
"413 452 CURVE SMOOTH",
"570 452 OFFCURVE",
"715 500 OFFCURVE",
"715 592 CURVE SMOOTH",
"715 639 OFFCURVE",
"672 666 OFFCURVE",
"586 666 CURVE SMOOTH",
"430 666 OFFCURVE",
"279 597 OFFCURVE",
"229 500 CURVE",
"173 515 OFFCURVE",
"124 538 OFFCURVE",
"93 569 CURVE SMOOTH",
"90 572 OFFCURVE",
"88 573 OFFCURVE",
"86 573 CURVE SMOOTH",
"82 573 OFFCURVE",
"79 569 OFFCURVE",
"79 565 CURVE SMOOTH",
"79 562 OFFCURVE",
"80 559 OFFCURVE",
"83 556 CURVE SMOOTH",
"110 525 OFFCURVE",
"159 500 OFFCURVE",
"222 480 CURVE",
"218 468 OFFCURVE",
"216 456 OFFCURVE",
"216 445 CURVE SMOOTH",
"216 406 OFFCURVE",
"233 377 OFFCURVE",
"252 358 CURVE SMOOTH",
"254 356 LINE",
"109 328 OFFCURVE",
"28 232 OFFCURVE",
"28 143 CURVE SMOOTH",
"28 88 OFFCURVE",
"49 40 OFFCURVE",
"94 5 CURVE SMOOTH",
"139 -30 OFFCURVE",
"211 -52 OFFCURVE",
"311 -52 CURVE SMOOTH"
);
},
{
closed = 1;
nodes = (
"373 474 OFFCURVE",
"324 478 OFFCURVE",
"277 489 CURVE",
"338 584 OFFCURVE",
"513 637 OFFCURVE",
"604 637 CURVE SMOOTH",
"637 637 OFFCURVE",
"659 633 OFFCURVE",
"672 624 CURVE SMOOTH",
"685 615 OFFCURVE",
"691 604 OFFCURVE",
"691 591 CURVE SMOOTH",
"691 522 OFFCURVE",
"525 474 OFFCURVE",
"416 474 CURVE SMOOTH"
);
}
);
width = 715;
}
);
note = E;
},
{
glyphname = F.ss01;
lastChange = "2021-08-02 21:05:32 +0000";
layers = (
{
layerId = "1C8B4FDB-B0E8-4411-8E26-068C67144FEF";
paths = (
{
closed = 1;
nodes = (
"402 -145 OFFCURVE",
"486 -112 OFFCURVE",
"557 -52 CURVE SMOOTH",
"628 8 OFFCURVE",
"684 94 OFFCURVE",
"733 201 CURVE",
"821 201 LINE SMOOTH",
"835 201 OFFCURVE",
"847 210 OFFCURVE",
"847 215 CURVE SMOOTH",
"847 217 OFFCURVE",
"845 218 OFFCURVE",
"840 218 CURVE SMOOTH",
"740 218 LINE",
"751 243 LINE SMOOTH",
"772 294 OFFCURVE",
"808 374 OFFCURVE",
"829 420 CURVE SMOOTH",
"879 533 LINE",
"936 523 OFFCURVE",
"976 506 OFFCURVE",
"1044 506 CURVE SMOOTH",
"1055 506 OFFCURVE",
"1067 506 OFFCURVE",
"1079 507 CURVE SMOOTH",
"1132 512 OFFCURVE",
"1178 546 OFFCURVE",
"1181 585 CURVE SMOOTH",
"1182 597 OFFCURVE",
"1181 606 OFFCURVE",
"1177 606 CURVE SMOOTH",
"1174 606 OFFCURVE",
"1170 600 OFFCURVE",
"1165 586 CURVE SMOOTH",
"1151 547 OFFCURVE",
"1094 534 OFFCURVE",
"1040 534 CURVE SMOOTH",
"989 534 OFFCURVE",
"924 543 OFFCURVE",
"892 552 CURVE",
"905 568 OFFCURVE",
"926 596 OFFCURVE",
"948 593 CURVE",
"951 590 OFFCURVE",
"954 589 OFFCURVE",
"956 589 CURVE SMOOTH",
"960 589 OFFCURVE",
"963 593 OFFCURVE",
"963 598 CURVE SMOOTH",
"963 606 OFFCURVE",
"957 614 OFFCURVE",
"942 614 CURVE SMOOTH",
"907 614 OFFCURVE",
"885 578 OFFCURVE",
"870 558 CURVE",
"771 579 OFFCURVE",
"678 596 OFFCURVE",
"583 596 CURVE SMOOTH",
"555 596 OFFCURVE",
"526 594 OFFCURVE",
"498 591 CURVE SMOOTH",
"381 577 OFFCURVE",
"210 515 OFFCURVE",
"210 391 CURVE SMOOTH",
"210 339 OFFCURVE",
"247 296 OFFCURVE",
"331 296 CURVE SMOOTH",
"459 296 OFFCURVE",
"602 382 OFFCURVE",
"670 462 CURVE SMOOTH",
"675 469 OFFCURVE",
"678 474 OFFCURVE",
"679 476 CURVE SMOOTH",
"680 478 OFFCURVE",
"679 479 OFFCURVE",
"677 479 CURVE SMOOTH",
"674 479 OFFCURVE",
"671 478 OFFCURVE",
"666 475 CURVE",
"584 407 OFFCURVE",
"469.002 322 OFFCURVE",
"357 322 CURVE SMOOTH",
"285 322 OFFCURVE",
"255 349 OFFCURVE",
"255 385 CURVE SMOOTH",
"255 437 OFFCURVE",
"308 481 OFFCURVE",
"364 508 CURVE SMOOTH",
"422 536 OFFCURVE",
"491 554 OFFCURVE",
"544 561 CURVE SMOOTH",
"572 565 OFFCURVE",
"600 566 OFFCURVE",
"628 566 CURVE SMOOTH",
"708 566 OFFCURVE",
"786 553 OFFCURVE",
"861 539 CURVE",
"853 529 OFFCURVE",
"808 452 OFFCURVE",
"793 425 CURVE SMOOTH",
"769 385 OFFCURVE",
"729 310 OFFCURVE",
"716 285 CURVE SMOOTH",
"705 262 OFFCURVE",
"694 241 OFFCURVE",
"682 218 CURVE",
"430 218 LINE SMOOTH",
"416 218 OFFCURVE",
"405 209 OFFCURVE",
"405 205 CURVE SMOOTH",
"405 202 OFFCURVE",
"407 201 OFFCURVE",
"411 201 CURVE SMOOTH",
"671 201 LINE",
"623 113 OFFCURVE",
"568 33 OFFCURVE",
"506 -26 CURVE SMOOTH",
"444 -84 OFFCURVE",
"375 -120 OFFCURVE",
"299 -120 CURVE SMOOTH",
"184 -120 OFFCURVE",
"76 -64 OFFCURVE",
"76 57 CURVE SMOOTH",
"76 98 OFFCURVE",
"89 133 OFFCURVE",
"110 160 CURVE SMOOTH",
"143 205 OFFCURVE",
"195 229 OFFCURVE",
"236 229 CURVE SMOOTH",
"249 229 OFFCURVE",
"254 233 OFFCURVE",
"254 237 CURVE SMOOTH",
"254 242 OFFCURVE",
"246 247 OFFCURVE",
"232 247 CURVE SMOOTH",
"176 247 OFFCURVE",
"128 223 OFFCURVE",
"93 184 CURVE SMOOTH",
"64 149 OFFCURVE",
"46 107 OFFCURVE",
"46 59 CURVE SMOOTH",
"46 -94 OFFCURVE",
"172 -145 OFFCURVE",
"294 -145 CURVE SMOOTH"
);
}
);
width = 857;
}
);
note = F;
},
{
glyphname = G.ss01;
lastChange = "2021-08-02 21:05:32 +0000";
layers = (
{
anchors = (
{
name = bottom;
position = "{261, -358}";
},
{
name = top;
position = "{593, 670}";
}
);
layerId = "1C8B4FDB-B0E8-4411-8E26-068C67144FEF";
paths = (
{
closed = 1;
nodes = (
"118 -425 OFFCURVE",
"134 -423 OFFCURVE",
"151 -419 CURVE SMOOTH",
"200 -410 OFFCURVE",
"261 -387 OFFCURVE",
"327 -336 CURVE SMOOTH",
"393 -285 OFFCURVE",
"465 -208 OFFCURVE",
"537 -89 CURVE",
"562 -92 OFFCURVE",
"595 -96 OFFCURVE",
"603 -111 CURVE",
"606 -115 OFFCURVE",
"608 -115 OFFCURVE",
"608 -111 CURVE SMOOTH",
"608 -109 OFFCURVE",
"607 -106 OFFCURVE",
"606 -102 CURVE",
"597 -83 OFFCURVE",
"575 -72 OFFCURVE",
"550 -68 CURVE",
"592 7 OFFCURVE",
"632 159 OFFCURVE",
"635 195 CURVE SMOOTH",
"640 237 OFFCURVE",
"615 261 OFFCURVE",
"597 261 CURVE SMOOTH",
"587 261 OFFCURVE",
"579 254 OFFCURVE",
"579 239 CURVE SMOOTH",
"579 233 OFFCURVE",
"580 226 OFFCURVE",
"583 217 CURVE SMOOTH",
"586 206 LINE",
"590 187 LINE",
"567 160 LINE",
"546 135 LINE SMOOTH",
"477 53 OFFCURVE",
"330 -33 OFFCURVE",
"233 -33 CURVE SMOOTH",
"140 -33 OFFCURVE",
"93 19 OFFCURVE",
"93 110 CURVE SMOOTH",
"93 210 OFFCURVE",
"148 317 OFFCURVE",
"209 394 CURVE",
"264 378 OFFCURVE",
"319 373 OFFCURVE",
"375 373 CURVE SMOOTH",
"471 373 OFFCURVE",
"596 394 OFFCURVE",
"677 446 CURVE SMOOTH",
"715 473 OFFCURVE",
"755 515 OFFCURVE",
"755 563 CURVE SMOOTH",
"755 630 OFFCURVE",
"682 658 OFFCURVE",
"620 658 CURVE SMOOTH",
"536 658 OFFCURVE",
"454 633 OFFCURVE",
"378 593 CURVE SMOOTH",
"302 552 OFFCURVE",
"233 495 OFFCURVE",
"173 431 CURVE",
"128 452 OFFCURVE",
"79 501 OFFCURVE",
"79 550 CURVE SMOOTH",
"79 561 OFFCURVE",
"81 570 OFFCURVE",
"86 575 CURVE SMOOTH",
"90 580 OFFCURVE",
"92 585 OFFCURVE",
"92 590 CURVE SMOOTH",
"92 594 OFFCURVE",
"91 596 OFFCURVE",
"88 596 CURVE SMOOTH",
"85 596 OFFCURVE",
"82 595 OFFCURVE",
"78 592 CURVE SMOOTH",
"62 579 OFFCURVE",
"58 558 OFFCURVE",
"58 538 CURVE SMOOTH",
"58 517 OFFCURVE",
"63 494 OFFCURVE",
"76 477 CURVE SMOOTH",
"97 450 OFFCURVE",
"126 429 OFFCURVE",
"157 414 CURVE",
"124 375 OFFCURVE",
"93 333 OFFCURVE",
"73 286 CURVE SMOOTH",
"46 230 OFFCURVE",
"26 164 OFFCURVE",
"26 101 CURVE SMOOTH",
"26 -16 OFFCURVE",
"96 -70 OFFCURVE",
"209 -70 CURVE SMOOTH",
"326 -70 OFFCURVE",
"452 -6 OFFCURVE",
"558 115 CURVE SMOOTH",
"600 163 LINE",
"600 162 OFFCURVE",
"600 162 OFFCURVE",
"601 162 CURVE",
"598 112 OFFCURVE",
"554 -3 OFFCURVE",
"512 -65 CURVE",
"396 -73 OFFCURVE",
"173 -173 OFFCURVE",
"86 -258 CURVE SMOOTH",
"46 -297 OFFCURVE",
"27 -335 OFFCURVE",
"27 -365 CURVE SMOOTH",
"27 -401 OFFCURVE",
"54 -425 OFFCURVE",
"104 -425 CURVE SMOOTH"
);
},
{
closed = 1;
nodes = (
"65 -399 OFFCURVE",
"51 -388 OFFCURVE",
"51 -368 CURVE SMOOTH",
"51 -342 OFFCURVE",
"73 -303 OFFCURVE",
"127 -257 CURVE SMOOTH",
"219 -180 OFFCURVE",
"384 -113 OFFCURVE",
"492 -94 CURVE",
"463 -134 OFFCURVE",
"418 -184 OFFCURVE",
"360 -236 CURVE SMOOTH",
"302 -287 OFFCURVE",
"231 -339 OFFCURVE",
"154 -379 CURVE SMOOTH",
"128 -393 OFFCURVE",
"105 -399 OFFCURVE",
"88 -399 CURVE SMOOTH"
);
},
{
closed = 1;
nodes = (
"330 392 OFFCURVE",
"275 398 OFFCURVE",
"224 411 CURVE",
"318 521 OFFCURVE",
"464 636 OFFCURVE",
"613 636 CURVE SMOOTH",
"663 636 OFFCURVE",
"715 614 OFFCURVE",
"715 560 CURVE SMOOTH",
"715 524 OFFCURVE",
"690 495 OFFCURVE",
"665 472 CURVE SMOOTH",
"594 412 OFFCURVE",
"475 392 OFFCURVE",
"383 392 CURVE SMOOTH"
);
}
);
userData = {
assembly = "SVTCA[0]	/* SetFreedomAndProjectionVectorToAxis */\012PUSHW[ ]	/* 4 values pushed */\01245 2 143 4 \012CALL[ ]	/* CallFunction */\012PUSHW[ ]	/* 1 value pushed */\01245 \012SRP0[ ]	/* SetRefPoint0 */\012PUSHW[ ]	/* 1 value pushed */\01210 \012MDRP[10000]	/* MoveDirectRelPt */\012PUSHW[ ]	/* 1 value pushed */\01210 \012MDAP[1]	/* MoveDirectAbsPt */\012PUSHW[ ]	/* 1 value pushed */\012143 \012SRP0[ ]	/* SetRefPoint0 */\012PUSHW[ ]	/* 1 value pushed */\01219 \012MDRP[10000]	/* MoveDirectRelPt */\012PUSHW[ ]	/* 1 value pushed */\01219 \012MDAP[1]	/* MoveDirectAbsPt */\012PUSHW[ ]	/* 1 value pushed */\01245 \012SRP0[ ]	/* SetRefPoint0 */\012PUSHW[ ]	/* 1 value pushed */\01234 \012MDRP[10000]	/* MoveDirectRelPt */\012PUSHW[ ]	/* 1 value pushed */\01234 \012MDAP[1]	/* MoveDirectAbsPt */\012IUP[0]	/* InterpolateUntPts */\012IUP[1]	/* InterpolateUntPts */";
};
width = 656;
}
);
note = G;
},
{
glyphname = H.ss01;
lastChange = "2021-08-02 21:05:32 +0000";
layers = (
{
anchors = (
{
name = bottom;
position = "{737, 0}";
},
{
name = center;
position = "{534, 440}";
},
{
name = top;
position = "{1075, 644}";
},
{
name = topleft;
position = "{20, 880}";
}
);
layerId = "1C8B4FDB-B0E8-4411-8E26-068C67144FEF";
paths = (
{
closed = 1;
nodes = (
"425 -111 OFFCURVE",
"508 -78 OFFCURVE",
"576 -18 CURVE SMOOTH",
"644 42 OFFCURVE",
"697 128 OFFCURVE",
"745 235 CURVE",
"940 235 LINE",
"913 174 OFFCURVE",
"892 120 OFFCURVE",
"887 89 CURVE SMOOTH",
"886 79 OFFCURVE",
"885 71 OFFCURVE",
"885 63 CURVE SMOOTH",
"885 17 OFFCURVE",
"908 -2 OFFCURVE",
"938 -2 CURVE SMOOTH",
"965 -2 OFFCURVE",
"996 12 OFFCURVE",
"1022 37 CURVE SMOOTH",
"1037 52 OFFCURVE",
"1053 69 OFFCURVE",
"1068 86 CURVE SMOOTH",
"1084 103 OFFCURVE",
"1097 120 OFFCURVE",
"1112 139 CURVE SMOOTH",
"1115 142 OFFCURVE",
"1116 146 OFFCURVE",
"1116 149 CURVE SMOOTH",
"1116 153 OFFCURVE",
"1114 157 OFFCURVE",
"1110 157 CURVE SMOOTH",
"1109 157 OFFCURVE",
"1107 156 OFFCURVE",
"1105 154 CURVE SMOOTH",
"1085 130 OFFCURVE",
"1065 108 OFFCURVE",
"1040 81 CURVE SMOOTH",
"1021 62 OFFCURVE",
"985 31 OFFCURVE",
"962 31 CURVE SMOOTH",
"947 31 OFFCURVE",
"937 44 OFFCURVE",
"937 70 CURVE SMOOTH",
"937 85 OFFCURVE",
"941 104 OFFCURVE",
"949 127 CURVE SMOOTH",
"960 158 OFFCURVE",
"972 195 OFFCURVE",
"991 235 CURVE",
"1040 235 LINE SMOOTH",
"1053 235 OFFCURVE",
"1065 243 OFFCURVE",
"1065 248 CURVE SMOOTH",
"1065 251 OFFCURVE",
"1063 252 OFFCURVE",
"1058 252 CURVE SMOOTH",
"999 252 LINE",
"1028 316 OFFCURVE",
"1064 385 OFFCURVE",
"1100 450 CURVE SMOOTH",
"1136 515 OFFCURVE",
"1175 569 OFFCURVE",
"1210 608 CURVE",
"1167 611 OFFCURVE",
"1109 556 OFFCURVE",
"1053 457 CURVE SMOOTH",
"1022 398 OFFCURVE",
"977 314 OFFCURVE",
"949 252 CURVE",
"753 252 LINE",
"777 309 OFFCURVE",
"810 383 OFFCURVE",
"838 446 CURVE SMOOTH",
"861 497 OFFCURVE",
"887 554 OFFCURVE",
"896 569 CURVE SMOOTH",
"917 605 OFFCURVE",
"940 623 OFFCURVE",
"964 623 CURVE SMOOTH",
"974 623 OFFCURVE",
"979 627 OFFCURVE",
"979 631 CURVE SMOOTH",
"979 636 OFFCURVE",
"971 642 OFFCURVE",
"955 642 CURVE SMOOTH",
"916 642 OFFCURVE",
"894 611 OFFCURVE",
"882 591 CURVE",
"817 604 OFFCURVE",
"758 615 OFFCURVE",
"702 620 CURVE SMOOTH",
"679 621 OFFCURVE",
"653 622 OFFCURVE",
"626 622 CURVE SMOOTH",
"593 622 OFFCURVE",
"559 621 OFFCURVE",
"531 617 CURVE SMOOTH",
"422 603 OFFCURVE",
"262 551 OFFCURVE",
"262 435 CURVE SMOOTH",
"262 387 OFFCURVE",
"296 348 OFFCURVE",
"376 348 CURVE SMOOTH",
"494 348 OFFCURVE",
"627 427 OFFCURVE",
"692 500 CURVE SMOOTH",
"697 506 OFFCURVE",
"700 510 OFFCURVE",
"701 512 CURVE",
"701 514 OFFCURVE",
"700 515 OFFCURVE",
"698 515 CURVE SMOOTH",
"695 515 OFFCURVE",
"692 514 OFFCURVE",
"688 512 CURVE",
"614 449 OFFCURVE",
"501 371 OFFCURVE",
"399 371 CURVE SMOOTH",
"331 371 OFFCURVE",
"303 395 OFFCURVE",
"303 430 CURVE SMOOTH",
"303 521 OFFCURVE",
"479 581 OFFCURVE",
"575 590 CURVE SMOOTH",
"605 594 OFFCURVE",
"633 596 OFFCURVE",
"662 596 CURVE SMOOTH",
"731 596 OFFCURVE",
"799 585 OFFCURVE",
"874 571 CURVE",
"862 556 OFFCURVE",
"819 478 OFFCURVE",
"799 443 CURVE SMOOTH",
"773 396 OFFCURVE",
"731 318 OFFCURVE",
"718 292 CURVE SMOOTH",
"698 252 LINE",
"598 252 LINE SMOOTH",
"584 252 OFFCURVE",
"573 243 OFFCURVE",
"573 239 CURVE SMOOTH",
"573 236 OFFCURVE",
"575 235 OFFCURVE",
"579 235 CURVE SMOOTH",
"688 235 LINE",
"641 148 OFFCURVE",
"589 67 OFFCURVE",
"528 8 CURVE SMOOTH",
"467 -51 OFFCURVE",
"399 -88 OFFCURVE",
"323 -88 CURVE SMOOTH",
"214.995 -88 OFFCURVE",
"112 -36 OFFCURVE",
"112 77 CURVE SMOOTH",
"112 116 OFFCURVE",
"125 149 OFFCURVE",
"144 173 CURVE SMOOTH",
"175 216 OFFCURVE",
"224 240 OFFCURVE",
"264 240 CURVE SMOOTH",
"276 240 OFFCURVE",
"281 243 OFFCURVE",
"281 247 CURVE SMOOTH",
"281 251 OFFCURVE",
"273 256 OFFCURVE",
"260 256 CURVE SMOOTH",
"208 256 OFFCURVE",
"161 233 OFFCURVE",
"128 196 CURVE SMOOTH",
"100 165 OFFCURVE",
"84 124 OFFCURVE",
"84 79 CURVE SMOOTH",
"84 -65 OFFCURVE",
"204 -111 OFFCURVE",
"320 -111 CURVE SMOOTH"
);
}
);
width = 1068;
}
);
note = H;
},
{
glyphname = Hbar.ss01;
lastChange = "2021-08-02 21:05:32 +0000";
layers = (
{
layerId = "1C8B4FDB-B0E8-4411-8E26-068C67144FEF";
paths = (
{
closed = 1;
nodes = (
"425 -111 OFFCURVE",
"508 -78 OFFCURVE",
"576 -18 CURVE SMOOTH",
"644 42 OFFCURVE",
"697 128 OFFCURVE",
"745 235 CURVE",
"940 235 LINE",
"913 174 OFFCURVE",
"892 120 OFFCURVE",
"887 89 CURVE SMOOTH",
"886 79 OFFCURVE",
"885 71 OFFCURVE",
"885 63 CURVE SMOOTH",
"885 17 OFFCURVE",
"908 -2 OFFCURVE",
"938 -2 CURVE SMOOTH",
"965 -2 OFFCURVE",
"996 12 OFFCURVE",
"1022 37 CURVE SMOOTH",
"1037 52 OFFCURVE",
"1053 69 OFFCURVE",
"1068 86 CURVE SMOOTH",
"1084 103 OFFCURVE",
"1097 120 OFFCURVE",
"1112 139 CURVE SMOOTH",
"1115 142 OFFCURVE",
"1116 146 OFFCURVE",
"1116 149 CURVE SMOOTH",
"1116 153 OFFCURVE",
"1114 157 OFFCURVE",
"1110 157 CURVE SMOOTH",
"1109 157 OFFCURVE",
"1107 156 OFFCURVE",
"1105 154 CURVE SMOOTH",
"1085 130 OFFCURVE",
"1065 108 OFFCURVE",
"1040 81 CURVE SMOOTH",
"1021 62 OFFCURVE",
"985 31 OFFCURVE",
"962 31 CURVE SMOOTH",
"947 31 OFFCURVE",
"937 44 OFFCURVE",
"937 70 CURVE SMOOTH",
"937 85 OFFCURVE",
"941 104 OFFCURVE",
"949 127 CURVE SMOOTH",
"960 158 OFFCURVE",
"972 195 OFFCURVE",
"991 235 CURVE",
"1040 235 LINE SMOOTH",
"1053 235 OFFCURVE",
"1065 243 OFFCURVE",
"1065 248 CURVE SMOOTH",
"1065 251 OFFCURVE",
"1063 252 OFFCURVE",
"1058 252 CURVE SMOOTH",
"999 252 LINE",
"1022 300 OFFCURVE",
"1047 352 OFFCURVE",
"1074 403 CURVE",
"1111 403 OFFCURVE",
"1142 401 OFFCURVE",
"1157 396 CURVE",
"1157 403 OFFCURVE",
"1155 409 OFFCURVE",
"1152 415 CURVE SMOOTH",
"1148 421 OFFCURVE",
"1137 425 OFFCURVE",
"1118 426 CURVE SMOOTH",
"1087 426 LINE",
"1091 434 OFFCURVE",
"1095 442 OFFCURVE",
"1100 450 CURVE SMOOTH",
"1136 515 OFFCURVE",
"1175 569 OFFCURVE",
"1210 608 CURVE",
"1167 611 OFFCURVE",
"1109 556 OFFCURVE",
"1053 457 CURVE SMOOTH",
"1045 443 LINE",
"1036 426 LINE",
"976 426 OFFCURVE",
"899 424 OFFCURVE",
"827 423 CURVE",
"846 465 OFFCURVE",
"886 556 OFFCURVE",
"896 569 CURVE",
"917 605 OFFCURVE",
"940 623 OFFCURVE",
"964 623 CURVE SMOOTH",
"974 623 OFFCURVE",
"979 627 OFFCURVE",
"979 631 CURVE SMOOTH",
"979 636 OFFCURVE",
"971 642 OFFCURVE",
"955 642 CURVE SMOOTH",
"916 642 OFFCURVE",
"894 611 OFFCURVE",
"882 591 CURVE",
"817 604 OFFCURVE",
"758 615 OFFCURVE",
"702 620 CURVE SMOOTH",
"679 621 OFFCURVE",
"653 622 OFFCURVE",
"626 622 CURVE SMOOTH",
"593 622 OFFCURVE",
"559 621 OFFCURVE",
"531 617 CURVE SMOOTH",
"422 603 OFFCURVE",
"262 551 OFFCURVE",
"262 435 CURVE SMOOTH",
"262 387 OFFCURVE",
"296 348 OFFCURVE",
"376 348 CURVE SMOOTH",
"494 348 OFFCURVE",
"627 427 OFFCURVE",
"692 500 CURVE SMOOTH",
"697 506 OFFCURVE",
"700 510 OFFCURVE",
"701 512 CURVE",
"701 514 OFFCURVE",
"700 515 OFFCURVE",
"698 515 CURVE SMOOTH",
"695 515 OFFCURVE",
"692 514 OFFCURVE",
"688 512 CURVE",
"614 449 OFFCURVE",
"501 371 OFFCURVE",
"399 371 CURVE SMOOTH",
"331 371 OFFCURVE",
"303 395 OFFCURVE",
"303 430 CURVE SMOOTH",
"303 521 OFFCURVE",
"479 581 OFFCURVE",
"575 590 CURVE SMOOTH",
"605 594 OFFCURVE",
"633 596 OFFCURVE",
"662 596 CURVE SMOOTH",
"731 596 OFFCURVE",
"799 585 OFFCURVE",
"874 571 CURVE",
"863 558 OFFCURVE",
"815 472 OFFCURVE",
"788 423 CURVE",
"701 422 LINE SMOOTH",
"676 422 OFFCURVE",
"660 423 OFFCURVE",
"652 424 CURVE",
"652 411 OFFCURVE",
"655 397 OFFCURVE",
"690 397 CURVE SMOOTH",
"774 399 LINE",
"750 354 OFFCURVE",
"729 313 OFFCURVE",
"718 292 CURVE SMOOTH",
"698 252 LINE",
"598 252 LINE SMOOTH",
"584 252 OFFCURVE",
"573 243 OFFCURVE",
"573 239 CURVE SMOOTH",
"573 236 OFFCURVE",
"575 235 OFFCURVE",
"579 235 CURVE SMOOTH",
"688 235 LINE",
"641 148 OFFCURVE",
"589 67 OFFCURVE",
"528 8 CURVE SMOOTH",
"467 -51 OFFCURVE",
"399 -88 OFFCURVE",
"323 -88 CURVE SMOOTH",
"214.995 -88 OFFCURVE",
"112 -36 OFFCURVE",
"112 77 CURVE SMOOTH",
"112 116 OFFCURVE",
"125 149 OFFCURVE",
"144 173 CURVE SMOOTH",
"175 216 OFFCURVE",
"224 240 OFFCURVE",
"264 240 CURVE SMOOTH",
"276 240 OFFCURVE",
"281 243 OFFCURVE",
"281 247 CURVE SMOOTH",
"281 251 OFFCURVE",
"273 256 OFFCURVE",
"260 256 CURVE SMOOTH",
"208 256 OFFCURVE",
"161 233 OFFCURVE",
"128 196 CURVE SMOOTH",
"100 165 OFFCURVE",
"84 124 OFFCURVE",
"84 79 CURVE SMOOTH",
"84 -65 OFFCURVE",
"204 -111 OFFCURVE",
"320 -111 CURVE SMOOTH"
);
},
{
closed = 1;
nodes = (
"784 323 LINE",
"817 399 LINE",
"1024 404 LINE",
"1000 360 OFFCURVE",
"973 305 OFFCURVE",
"949 252 CURVE",
"753 252 LINE"
);
}
);
userData = {
assembly = "PUSHW[ ]	/* 1 value pushed */\012191 \012MDAP[1]	/* MoveDirectAbsPt */\012PUSHW[ ]	/* 1 value pushed */\012134 \012MDAP[1]	/* MoveDirectAbsPt */\012PUSHW[ ]	/* 1 value pushed */\012191 \012SRP0[ ]	/* SetRefPoint0 */\012PUSHW[ ]	/* 1 value pushed */\01255 \012MDRP[10000]	/* MoveDirectRelPt */\012PUSHW[ ]	/* 1 value pushed */\01255 \012MDAP[1]	/* MoveDirectAbsPt */\012NPUSHW[ ]	/* 3 values pushed */\012250 134 1 \012DELTAP2[ ]	/* DeltaExceptionP2 */\012NPUSHW[ ]	/* 3 values pushed */\01210 134 1 \012DELTAP3[ ]	/* DeltaExceptionP3 */\012NPUSHW[ ]	/* 33 values pushed */\0129 134 25 134 41 134 57 134 73 134 89 134 105 134 121 134 137 134 153 134 169 134 185 134 201 134 217 134 233 134 249 134 16 \012DELTAP1[ ]	/* DeltaExceptionP1 */\012NPUSHW[ ]	/* 31 values pushed */\0129 134 25 134 41 134 57 134 73 134 89 134 105 134 121 134 137 134 153 134 169 134 185 134 201 134 217 134 233 134 15 \012DELTAP2[ ]	/* DeltaExceptionP2 */\012PUSHW[ ]	/* 1 value pushed */\012134 \012SRP0[ ]	/* SetRefPoint0 */\012PUSHW[ ]	/* 1 value pushed */\01261 \012MDRP[10000]	/* MoveDirectRelPt */\012PUSHW[ ]	/* 1 value pushed */\01261 \012MDAP[1]	/* MoveDirectAbsPt */\012PUSHW[ ]	/* 1 value pushed */\012134 \012SRP0[ ]	/* SetRefPoint0 */\012PUSHW[ ]	/* 1 value pushed */\01264 \012MDRP[10000]	/* MoveDirectRelPt */\012PUSHW[ ]	/* 1 value pushed */\01264 \012MDAP[1]	/* MoveDirectAbsPt */\012PUSHW[ ]	/* 1 value pushed */\01255 \012SRP0[ ]	/* SetRefPoint0 */\012PUSHW[ ]	/* 2 values pushed */\01270 6 \012MIRP[10100]	/* MoveIndirectRelPt */\012NPUSHW[ ]	/* 33 values pushed */\0126 70 22 70 38 70 54 70 70 70 86 70 102 70 118 70 134 70 150 70 166 70 182 70 198 70 214 70 230 70 246 70 16 \012DELTAP1[ ]	/* DeltaExceptionP1 */\012NPUSHW[ ]	/* 31 values pushed */\0126 70 22 70 38 70 54 70 70 70 86 70 102 70 118 70 134 70 150 70 166 70 182 70 198 70 214 70 230 70 15 \012DELTAP2[ ]	/* DeltaExceptionP2 */\012NPUSHW[ ]	/* 3 values pushed */\012245 70 1 \012DELTAP2[ ]	/* DeltaExceptionP2 */\012NPUSHW[ ]	/* 3 values pushed */\0125 70 1 \012DELTAP3[ ]	/* DeltaExceptionP3 */\012PUSHW[ ]	/* 1 value pushed */\012134 \012SRP0[ ]	/* SetRefPoint0 */\012PUSHW[ ]	/* 2 values pushed */\012113 6 \012MIRP[10100]	/* MoveIndirectRelPt */\012SVTCA[0]	/* SetFreedomAndProjectionVectorToAxis */\012PUSHW[ ]	/* 4 values pushed */\01275 1 50 4 \012CALL[ ]	/* CallFunction */\012PUSHW[ ]	/* 4 values pushed */\012178 1 3 4 \012CALL[ ]	/* CallFunction */\012PUSHW[ ]	/* 4 values pushed */\012116 1 131 4 \012CALL[ ]	/* CallFunction */\012PUSHW[ ]	/* 1 value pushed */\012116 \012SRP0[ ]	/* SetRefPoint0 */\012PUSHW[ ]	/* 1 value pushed */\01281 \012MDRP[11100]	/* MoveDirectRelPt */\012PUSHW[ ]	/* 3 values pushed */\0126 116 81 \012SRP1[ ]	/* SetRefPoint1 */\012SRP2[ ]	/* SetRefPoint2 */\012IP[ ]	/* InterpolatePts */\012PUSHW[ ]	/* 1 value pushed */\01212 \012MDRP[10000]	/* MoveDirectRelPt */\012PUSHW[ ]	/* 1 value pushed */\01281 \012SRP0[ ]	/* SetRefPoint0 */\012PUSHW[ ]	/* 1 value pushed */\01244 \012MDRP[10000]	/* MoveDirectRelPt */\012PUSHW[ ]	/* 1 value pushed */\01281 \012SRP0[ ]	/* SetRefPoint0 */\012PUSHW[ ]	/* 1 value pushed */\01264 \012MDRP[10000]	/* MoveDirectRelPt */\012PUSHW[ ]	/* 1 value pushed */\01264 \012MDAP[1]	/* MoveDirectAbsPt */\012PUSHW[ ]	/* 1 value pushed */\0123 \012SRP0[ ]	/* SetRefPoint0 */\012PUSHW[ ]	/* 1 value pushed */\01291 \012MDRP[10000]	/* MoveDirectRelPt */\012PUSHW[ ]	/* 1 value pushed */\01291 \012MDAP[1]	/* MoveDirectAbsPt */\012PUSHW[ ]	/* 1 value pushed */\0123 \012SRP0[ ]	/* SetRefPoint0 */\012PUSHW[ ]	/* 1 value pushed */\01294 \012MDRP[10000]	/* MoveDirectRelPt */\012PUSHW[ ]	/* 1 value pushed */\01294 \012MDAP[1]	/* MoveDirectAbsPt */\012PUSHW[ ]	/* 1 value pushed */\012178 \012SRP0[ ]	/* SetRefPoint0 */\012PUSHW[ ]	/* 1 value pushed */\01297 \012MDRP[10000]	/* MoveDirectRelPt */\012PUSHW[ ]	/* 1 value pushed */\01297 \012MDAP[1]	/* MoveDirectAbsPt */\012PUSHW[ ]	/* 1 value pushed */\012178 \012SRP0[ ]	/* SetRefPoint0 */\012PUSHW[ ]	/* 1 value pushed */\012100 \012MDRP[10000]	/* MoveDirectRelPt */\012PUSHW[ ]	/* 1 value pushed */\012100 \012MDAP[1]	/* MoveDirectAbsPt */\012PUSHW[ ]	/* 1 value pushed */\0123 \012SRP0[ ]	/* SetRefPoint0 */\012PUSHW[ ]	/* 1 value pushed */\012149 \012MDRP[11100]	/* MoveDirectRelPt */\012PUSHW[ ]	/* 3 values pushed */\012105 3 149 \012SRP1[ ]	/* SetRefPoint1 */\012SRP2[ ]	/* SetRefPoint2 */\012IP[ ]	/* InterpolatePts */\012PUSHW[ ]	/* 1 value pushed */\012178 \012SRP0[ ]	/* SetRefPoint0 */\012PUSHW[ ]	/* 1 value pushed */\012161 \012MDRP[10000]	/* MoveDirectRelPt */\012PUSHW[ ]	/* 1 value pushed */\012161 \012MDAP[1]	/* MoveDirectAbsPt */\012PUSHW[ ]	/* 1 value pushed */\012178 \012SRP0[ ]	/* SetRefPoint0 */\012PUSHW[ ]	/* 1 value pushed */\012164 \012MDRP[10000]	/* MoveDirectRelPt */\012PUSHW[ ]	/* 3 values pushed */\012172 3 149 \012SRP1[ ]	/* SetRefPoint1 */\012SRP2[ ]	/* SetRefPoint2 */\012IP[ ]	/* InterpolatePts */\012PUSHW[ ]	/* 1 value pushed */\0123 \012SRP0[ ]	/* SetRefPoint0 */\012PUSHW[ ]	/* 1 value pushed */\012185 \012MDRP[10000]	/* MoveDirectRelPt */\012PUSHW[ ]	/* 1 value pushed */\012185 \012MDAP[1]	/* MoveDirectAbsPt */\012PUSHW[ ]	/* 1 value pushed */\0123 \012SRP0[ ]	/* SetRefPoint0 */\012PUSHW[ ]	/* 1 value pushed */\012187 \012MDRP[10000]	/* MoveDirectRelPt */\012PUSHW[ ]	/* 1 value pushed */\012187 \012MDAP[1]	/* MoveDirectAbsPt */\012PUSHW[ ]	/* 3 values pushed */\012190 116 81 \012SRP1[ ]	/* SetRefPoint1 */\012SRP2[ ]	/* SetRefPoint2 */\012IP[ ]	/* InterpolatePts */\012IUP[0]	/* InterpolateUntPts */\012IUP[1]	/* InterpolateUntPts */";
};
width = 1068;
}
);
note = Hbar;
},
{
glyphname = I.ss01;
lastChange = "2021-08-02 21:05:32 +0000";
layers = (
{
anchors = (
{
name = bottom;
position = "{187, -237}";
},
{
name = ogonek;
position = "{179, -236}";
},
{
name = top;
position = "{1024, 718}";
},
{
name = topleft;
position = "{20, 880}";
}
);
layerId = "1C8B4FDB-B0E8-4411-8E26-068C67144FEF";
paths = (
{
closed = 1;
nodes = (
"270 -242 OFFCURVE",
"298 -240 OFFCURVE",
"326 -235 CURVE SMOOTH",
"378 -227 OFFCURVE",
"454 -202 OFFCURVE",
"527 -160 CURVE SMOOTH",
"600 -118 OFFCURVE",
"673 -59 OFFCURVE",
"720 14 CURVE SMOOTH",
"792 127 OFFCURVE",
"831 238 OFFCURVE",
"865 342 CURVE SMOOTH",
"899 446 OFFCURVE",
"928 544 OFFCURVE",
"980 635 CURVE",
"984 635 OFFCURVE",
"990 636 OFFCURVE",
"997 639 CURVE SMOOTH",
"1004 641 OFFCURVE",
"1010 642 OFFCURVE",
"1015 642 CURVE",
"1047 650 OFFCURVE",
"1079 666 OFFCURVE",
"1079 697 CURVE SMOOTH",
"1079 714 OFFCURVE",
"1068 721 OFFCURVE",
"1053 721 CURVE SMOOTH",
"1047 721 OFFCURVE",
"1041 720 OFFCURVE",
"1034 718 CURVE SMOOTH",
"1007 710 OFFCURVE",
"985 673 OFFCURVE",
"970 653 CURVE",
"921 646 OFFCURVE",
"859 634 OFFCURVE",
"796 613 CURVE SMOOTH",
"764 602 OFFCURVE",
"733 590 OFFCURVE",
"703 575 CURVE SMOOTH",
"642 545 OFFCURVE",
"592 505 OFFCURVE",
"557 454 CURVE SMOOTH",
"535 422 OFFCURVE",
"522 385 OFFCURVE",
"522 344 CURVE SMOOTH",
"522 278 OFFCURVE",
"566 235 OFFCURVE",
"625 235 CURVE SMOOTH",
"639 235 OFFCURVE",
"654 238 OFFCURVE",
"669 243 CURVE SMOOTH",
"723 262 OFFCURVE",
"768 321 OFFCURVE",
"768 376 CURVE SMOOTH",
"768 388 OFFCURVE",
"766 400 OFFCURVE",
"761 411 CURVE",
"757 416 OFFCURVE",
"752 418 OFFCURVE",
"748 418 CURVE SMOOTH",
"743 418 OFFCURVE",
"739 415 OFFCURVE",
"739 411 CURVE SMOOTH",
"739 409 OFFCURVE",
"740 406 OFFCURVE",
"744 404 CURVE",
"748 398 OFFCURVE",
"751 389 OFFCURVE",
"751 378 CURVE SMOOTH",
"751 342 OFFCURVE",
"726 284 OFFCURVE",
"670 263 CURVE SMOOTH",
"659 259 OFFCURVE",
"648 257 OFFCURVE",
"638 257 CURVE SMOOTH",
"599 257 OFFCURVE",
"574 289 OFFCURVE",
"574 336 CURVE SMOOTH",
"574 345 OFFCURVE",
"575 354 OFFCURVE",
"577 364 CURVE SMOOTH",
"603 516 OFFCURVE",
"815 608 OFFCURVE",
"956 632 CURVE",
"947 617 OFFCURVE",
"930 588 OFFCURVE",
"906 545 CURVE SMOOTH",
"882 501 OFFCURVE",
"856 447 OFFCURVE",
"828 383 CURVE SMOOTH",
"803 327 OFFCURVE",
"769 250 OFFCURVE",
"725 170 CURVE SMOOTH",
"703 129 OFFCURVE",
"678 89 OFFCURVE",
"651 49 CURVE SMOOTH",
"596 -31 OFFCURVE",
"530 -102 OFFCURVE",
"450 -154 CURVE SMOOTH",
"409 -180 OFFCURVE",
"365 -199 OFFCURVE",
"318 -210 CURVE SMOOTH",
"299 -215 OFFCURVE",
"278 -217 OFFCURVE",
"258 -217 CURVE SMOOTH",
"207 -217 OFFCURVE",
"154 -203 OFFCURVE",
"112 -178 CURVE SMOOTH",
"72 -153 OFFCURVE",
"45 -117 OFFCURVE",
"37 -69 CURVE SMOOTH",
"35 -61 OFFCURVE",
"34 -53 OFFCURVE",
"34 -44 CURVE SMOOTH",
"34 -27 OFFCURVE",
"37 -8 OFFCURVE",
"43 12 CURVE SMOOTH",
"60 71 OFFCURVE",
"110 128 OFFCURVE",
"144 140 CURVE SMOOTH",
"150 142 OFFCURVE",
"154 146 OFFCURVE",
"154 149 CURVE SMOOTH",
"154 151 OFFCURVE",
"153 152 OFFCURVE",
"148 152 CURVE SMOOTH",
"145 152 LINE SMOOTH",
"116 152 OFFCURVE",
"49 94 OFFCURVE",
"31 48 CURVE SMOOTH",
"15 9 OFFCURVE",
"7 -27 OFFCURVE",
"7 -60 CURVE SMOOTH",
"7 -111 OFFCURVE",
"26 -153 OFFCURVE",
"61 -184 CURVE SMOOTH",
"102 -221 OFFCURVE",
"167 -242 OFFCURVE",
"245 -242 CURVE SMOOTH"
);
},
{
closed = 1;
nodes = (
"1003 666 OFFCURVE",
"1033 699 OFFCURVE",
"1041 694 CURVE",
"1048 694 OFFCURVE",
"1051 692 OFFCURVE",
"1051 688 CURVE SMOOTH",
"1051 678 OFFCURVE",
"1030 660 OFFCURVE",
"994 655 CURVE"
);
}
);
width = 850;
}
);
note = I;
},
{
glyphname = IJ.ss01;
lastChange = "2021-08-02 21:05:32 +0000";
layers = (
{
layerId = "1C8B4FDB-B0E8-4411-8E26-068C67144FEF";
paths = (
{
closed = 1;
nodes = (
"270 -242 OFFCURVE",
"298 -240 OFFCURVE",
"326 -235 CURVE SMOOTH",
"378 -227 OFFCURVE",
"454 -202 OFFCURVE",
"527 -160 CURVE SMOOTH",
"600 -118 OFFCURVE",
"673 -59 OFFCURVE",
"720 14 CURVE SMOOTH",
"792 127 OFFCURVE",
"831 238 OFFCURVE",
"865 342 CURVE SMOOTH",
"899 446 OFFCURVE",
"928 544 OFFCURVE",
"980 635 CURVE",
"984 635 OFFCURVE",
"990 636 OFFCURVE",
"997 639 CURVE SMOOTH",
"1004 641 OFFCURVE",
"1010 642 OFFCURVE",
"1015 642 CURVE",
"1047 650 OFFCURVE",
"1079 666 OFFCURVE",
"1079 697 CURVE SMOOTH",
"1079 714 OFFCURVE",
"1068 721 OFFCURVE",
"1053 721 CURVE SMOOTH",
"1047 721 OFFCURVE",
"1041 720 OFFCURVE",
"1034 718 CURVE SMOOTH",
"1007 710 OFFCURVE",
"985 673 OFFCURVE",
"970 653 CURVE",
"921 646 OFFCURVE",
"859 634 OFFCURVE",
"796 613 CURVE SMOOTH",
"764 602 OFFCURVE",
"733 590 OFFCURVE",
"703 575 CURVE SMOOTH",
"642 545 OFFCURVE",
"592 505 OFFCURVE",
"557 454 CURVE SMOOTH",
"535 422 OFFCURVE",
"522 385 OFFCURVE",
"522 344 CURVE SMOOTH",
"522 278 OFFCURVE",
"566 235 OFFCURVE",
"625 235 CURVE SMOOTH",
"639 235 OFFCURVE",
"654 238 OFFCURVE",
"669 243 CURVE SMOOTH",
"723 262 OFFCURVE",
"768 321 OFFCURVE",
"768 376 CURVE SMOOTH",
"768 388 OFFCURVE",
"766 400 OFFCURVE",
"761 411 CURVE",
"757 416 OFFCURVE",
"752 418 OFFCURVE",
"748 418 CURVE SMOOTH",
"743 418 OFFCURVE",
"739 415 OFFCURVE",
"739 411 CURVE SMOOTH",
"739 409 OFFCURVE",
"740 406 OFFCURVE",
"744 404 CURVE",
"748 398 OFFCURVE",
"751 389 OFFCURVE",
"751 378 CURVE SMOOTH",
"751 342 OFFCURVE",
"726 284 OFFCURVE",
"670 263 CURVE SMOOTH",
"659 259 OFFCURVE",
"648 257 OFFCURVE",
"638 257 CURVE SMOOTH",
"599 257 OFFCURVE",
"574 289 OFFCURVE",
"574 336 CURVE SMOOTH",
"574 345 OFFCURVE",
"575 354 OFFCURVE",
"577 364 CURVE SMOOTH",
"603 516 OFFCURVE",
"815 608 OFFCURVE",
"956 632 CURVE",
"947 617 OFFCURVE",
"930 588 OFFCURVE",
"906 545 CURVE SMOOTH",
"882 501 OFFCURVE",
"856 447 OFFCURVE",
"828 383 CURVE SMOOTH",
"803 327 OFFCURVE",
"769 250 OFFCURVE",
"725 170 CURVE SMOOTH",
"703 129 OFFCURVE",
"678 89 OFFCURVE",
"651 49 CURVE SMOOTH",
"596 -31 OFFCURVE",
"530 -102 OFFCURVE",
"450 -154 CURVE SMOOTH",
"409 -180 OFFCURVE",
"365 -199 OFFCURVE",
"318 -210 CURVE SMOOTH",
"299 -215 OFFCURVE",
"278 -217 OFFCURVE",
"258 -217 CURVE SMOOTH",
"207 -217 OFFCURVE",
"154 -203 OFFCURVE",
"112 -178 CURVE SMOOTH",
"72 -153 OFFCURVE",
"45 -117 OFFCURVE",
"37 -69 CURVE SMOOTH",
"35 -61 OFFCURVE",
"34 -53 OFFCURVE",
"34 -44 CURVE SMOOTH",
"34 -27 OFFCURVE",
"37 -8 OFFCURVE",
"43 12 CURVE SMOOTH",
"60 71 OFFCURVE",
"110 128 OFFCURVE",
"144 140 CURVE SMOOTH",
"150 142 OFFCURVE",
"154 146 OFFCURVE",
"154 149 CURVE SMOOTH",
"154 151 OFFCURVE",
"153 152 OFFCURVE",
"148 152 CURVE SMOOTH",
"145 152 LINE SMOOTH",
"116 152 OFFCURVE",
"49 94 OFFCURVE",
"31 48 CURVE SMOOTH",
"15 9 OFFCURVE",
"7 -27 OFFCURVE",
"7 -60 CURVE SMOOTH",
"7 -111 OFFCURVE",
"26 -153 OFFCURVE",
"61 -184 CURVE SMOOTH",
"102 -221 OFFCURVE",
"167 -242 OFFCURVE",
"245 -242 CURVE SMOOTH"
);
},
{
closed = 1;
nodes = (
"673 -298 OFFCURVE",
"654 -289 OFFCURVE",
"645 -271 CURVE SMOOTH",
"640 -263 OFFCURVE",
"638 -253 OFFCURVE",
"638 -242 CURVE SMOOTH",
"638 -201 OFFCURVE",
"668 -142 OFFCURVE",
"732 -78 CURVE SMOOTH",
"808 -3 OFFCURVE",
"897 50 OFFCURVE",
"987 86 CURVE SMOOTH",
"1077 122 OFFCURVE",
"1165 141 OFFCURVE",
"1241 146 CURVE SMOOTH",
"1256 146 LINE",
"1135 -27 OFFCURVE",
"987 -161 OFFCURVE",
"831 -252 CURVE SMOOTH",
"781 -281 OFFCURVE",
"734 -298 OFFCURVE",
"699 -298 CURVE SMOOTH"
);
},
{
closed = 1;
nodes = (
"730 -325 OFFCURVE",
"766 -319 OFFCURVE",
"809 -305 CURVE SMOOTH",
"881 -281 OFFCURVE",
"968 -240 OFFCURVE",
"1058 -169 CURVE SMOOTH",
"1148 -97 OFFCURVE",
"1240 2 OFFCURVE",
"1327 142 CURVE",
"1358 139 OFFCURVE",
"1384 133 OFFCURVE",
"1392 122 CURVE SMOOTH",
"1397 115 OFFCURVE",
"1400 118 OFFCURVE",
"1400 124 CURVE SMOOTH",
"1400 127 OFFCURVE",
"1400 130 OFFCURVE",
"1398 133 CURVE SMOOTH",
"1387 149 OFFCURVE",
"1367 161 OFFCURVE",
"1343 168 CURVE",
"1409 280 OFFCURVE",
"1491 428 OFFCURVE",
"1491 551 CURVE SMOOTH",
"1491 614 OFFCURVE",
"1449 636 OFFCURVE",
"1392 636 CURVE SMOOTH",
"1303 636 OFFCURVE",
"1210 608 OFFCURVE",
"1133 569 CURVE SMOOTH",
"1045 529 OFFCURVE",
"928 444 OFFCURVE",
"928 349 CURVE SMOOTH",
"928 337 OFFCURVE",
"930 325 OFFCURVE",
"934 313 CURVE SMOOTH",
"946 279 OFFCURVE",
"973 255 OFFCURVE",
"1016 255 CURVE SMOOTH",
"1032 255 OFFCURVE",
"1049 258 OFFCURVE",
"1069 265 CURVE SMOOTH",
"1182 300 OFFCURVE",
"1285 419 OFFCURVE",
"1322 508 CURVE SMOOTH",
"1325 515 OFFCURVE",
"1327 520 OFFCURVE",
"1327 522 CURVE",
"1326 524 OFFCURVE",
"1325 525 OFFCURVE",
"1324 524 CURVE",
"1321 523 OFFCURVE",
"1318 521 OFFCURVE",
"1315 518 CURVE",
"1264 434 OFFCURVE",
"1181 328 OFFCURVE",
"1085 294 CURVE SMOOTH",
"1065 288 OFFCURVE",
"1047 285 OFFCURVE",
"1033 285 CURVE SMOOTH",
"1002 285 OFFCURVE",
"983 298 OFFCURVE",
"975 321 CURVE SMOOTH",
"972 328 OFFCURVE",
"971 336 OFFCURVE",
"971 344 CURVE SMOOTH",
"971 383 OFFCURVE",
"1002 426 OFFCURVE",
"1038 459 CURVE SMOOTH",
"1078 497 OFFCURVE",
"1142 539 OFFCURVE",
"1183 557 CURVE SMOOTH",
"1222 575 OFFCURVE",
"1304 604 OFFCURVE",
"1348 604 CURVE SMOOTH",
"1396 604 OFFCURVE",
"1429 582 OFFCURVE",
"1429 524 CURVE SMOOTH",
"1429 450 OFFCURVE",
"1368 330 OFFCURVE",
"1328 259 CURVE SMOOTH",
"1312 232 OFFCURVE",
"1296 207 OFFCURVE",
"1279 180 CURVE",
"1271 181 LINE",
"1262 181 LINE SMOOTH",
"1177 181 OFFCURVE",
"1066 155 OFFCURVE",
"961 109 CURVE SMOOTH",
"856 63 OFFCURVE",
"754 -3 OFFCURVE",
"687 -80 CURVE SMOOTH",
"630 -144 OFFCURVE",
"602 -204 OFFCURVE",
"602 -247 CURVE SMOOTH",
"602 -261 OFFCURVE",
"604 -273 OFFCURVE",
"610 -283 CURVE SMOOTH",
"623 -310 OFFCURVE",
"653 -325 OFFCURVE",
"700 -325 CURVE SMOOTH"
);
},
{
closed = 1;
nodes = (
"1003 666 OFFCURVE",
"1033 699 OFFCURVE",
"1041 694 CURVE",
"1048 694 OFFCURVE",
"1051 692 OFFCURVE",
"1051 688 CURVE SMOOTH",
"1051 678 OFFCURVE",
"1030 660 OFFCURVE",
"994 655 CURVE"
);
}
);
width = 1413;
}
);
note = IJ;
},
{
glyphname = J.ss01;
lastChange = "2021-08-02 21:05:32 +0000";
layers = (
{
anchors = (
{
name = bottom;
position = "{102, -307}";
},
{
name = top;
position = "{807, 636}";
}
);
layerId = "1C8B4FDB-B0E8-4411-8E26-068C67144FEF";
paths = (
{
closed = 1;
nodes = (
"146 -326 OFFCURVE",
"182 -320 OFFCURVE",
"224 -305 CURVE SMOOTH",
"437 -230 OFFCURVE",
"600 -69 OFFCURVE",
"745 142 CURVE",
"776 139 OFFCURVE",
"802 133 OFFCURVE",
"810 122 CURVE SMOOTH",
"815 116 OFFCURVE",
"818 118 OFFCURVE",
"818 124 CURVE SMOOTH",
"818 126 OFFCURVE",
"818 130 OFFCURVE",
"816 133 CURVE SMOOTH",
"805 149 OFFCURVE",
"785 161 OFFCURVE",
"761 168 CURVE",
"827 280 OFFCURVE",
"906 428 OFFCURVE",
"906 551 CURVE SMOOTH",
"906 614 OFFCURVE",
"864 636 OFFCURVE",
"807 636 CURVE SMOOTH",
"718 636 OFFCURVE",
"625 608 OFFCURVE",
"548 569 CURVE SMOOTH",
"460 529 OFFCURVE",
"343 444 OFFCURVE",
"343 349 CURVE SMOOTH",
"343 337 OFFCURVE",
"345 325 OFFCURVE",
"349 313 CURVE SMOOTH",
"361 279 OFFCURVE",
"388 255 OFFCURVE",
"431 255 CURVE SMOOTH",
"447 255 OFFCURVE",
"464 258 OFFCURVE",
"484 265 CURVE SMOOTH",
"597 300 OFFCURVE",
"700 419 OFFCURVE",
"737 508 CURVE SMOOTH",
"740 515 OFFCURVE",
"742 520 OFFCURVE",
"742 522 CURVE",
"741 524 OFFCURVE",
"740 525 OFFCURVE",
"739 524 CURVE",
"736 523 OFFCURVE",
"733 521 OFFCURVE",
"730 518 CURVE",
"679 434 OFFCURVE",
"596 328 OFFCURVE",
"500 294 CURVE SMOOTH",
"480 288 OFFCURVE",
"462 285 OFFCURVE",
"448 285 CURVE SMOOTH",
"417 285 OFFCURVE",
"398 298 OFFCURVE",
"390 321 CURVE SMOOTH",
"387 328 OFFCURVE",
"386 336 OFFCURVE",
"386 344 CURVE SMOOTH",
"386 383 OFFCURVE",
"417 426 OFFCURVE",
"453 459 CURVE SMOOTH",
"493 497 OFFCURVE",
"557 539 OFFCURVE",
"598 557 CURVE SMOOTH",
"637 575 OFFCURVE",
"718 605 OFFCURVE",
"763 605 CURVE SMOOTH",
"812 605 OFFCURVE",
"851 583 OFFCURVE",
"851 524 CURVE SMOOTH",
"851 444 OFFCURVE",
"786 299 OFFCURVE",
"709 180 CURVE",
"684 181 OFFCURVE",
"587 175 OFFCURVE",
"534 162 CURVE SMOOTH",
"429 137 OFFCURVE",
"321 90 OFFCURVE",
"225 26 CURVE SMOOTH",
"176 -6 OFFCURVE",
"135 -41 OFFCURVE",
"102 -80 CURVE SMOOTH",
"45 -144 OFFCURVE",
"17 -204 OFFCURVE",
"17 -247 CURVE SMOOTH",
"17 -261 OFFCURVE",
"19 -273 OFFCURVE",
"25 -283 CURVE SMOOTH",
"38 -310 OFFCURVE",
"69 -326 OFFCURVE",
"116 -326 CURVE SMOOTH"
);
},
{
closed = 1;
nodes = (
"89 -297 OFFCURVE",
"69 -288 OFFCURVE",
"60 -271 CURVE SMOOTH",
"55 -263 OFFCURVE",
"53 -253 OFFCURVE",
"53 -242 CURVE SMOOTH",
"53 -201 OFFCURVE",
"83 -142 OFFCURVE",
"147 -78 CURVE SMOOTH",
"223 -3 OFFCURVE",
"312 50 OFFCURVE",
"402 86 CURVE SMOOTH",
"492 122 OFFCURVE",
"595 146 OFFCURVE",
"671 146 CURVE SMOOTH",
"686 146 LINE",
"565 -27 OFFCURVE",
"418 -161 OFFCURVE",
"287 -237 CURVE SMOOTH",
"220 -276 OFFCURVE",
"159 -297 OFFCURVE",
"116 -297 CURVE SMOOTH"
);
}
);
userData = {
assembly = "PUSHW[ ]	/* 4 values pushed */\01253 6 5 4 \012CALL[ ]	/* CallFunction */\012NPUSHW[ ]	/* 3 values pushed */\012250 5 1 \012DELTAP2[ ]	/* DeltaExceptionP2 */\012NPUSHW[ ]	/* 3 values pushed */\01210 5 1 \012DELTAP3[ ]	/* DeltaExceptionP3 */\012NPUSHW[ ]	/* 33 values pushed */\0129 5 25 5 41 5 57 5 73 5 89 5 105 5 121 5 137 5 153 5 169 5 185 5 201 5 217 5 233 5 249 5 16 \012DELTAP1[ ]	/* DeltaExceptionP1 */\012NPUSHW[ ]	/* 31 values pushed */\0129 5 25 5 41 5 57 5 73 5 89 5 105 5 121 5 137 5 153 5 169 5 185 5 201 5 217 5 233 5 15 \012DELTAP2[ ]	/* DeltaExceptionP2 */\012PUSHW[ ]	/* 1 value pushed */\01253 \012SRP0[ ]	/* SetRefPoint0 */\012PUSHW[ ]	/* 1 value pushed */\012103 \012MDRP[11100]	/* MoveDirectRelPt */\012SVTCA[0]	/* SetFreedomAndProjectionVectorToAxis */\012PUSHW[ ]	/* 4 values pushed */\01282 3 91 4 \012CALL[ ]	/* CallFunction */\012PUSHW[ ]	/* 3 values pushed */\01258 91 82 \012SRP1[ ]	/* SetRefPoint1 */\012SRP2[ ]	/* SetRefPoint2 */\012IP[ ]	/* InterpolatePts */\012PUSHW[ ]	/* 1 value pushed */\01291 \012SRP0[ ]	/* SetRefPoint0 */\012PUSHW[ ]	/* 1 value pushed */\01267 \012MDRP[10000]	/* MoveDirectRelPt */\012PUSHW[ ]	/* 1 value pushed */\01267 \012MDAP[1]	/* MoveDirectAbsPt */\012IUP[0]	/* InterpolateUntPts */\012IUP[1]	/* InterpolateUntPts */";
};
width = 821;
}
);
note = J;
},
{
glyphname = K.ss01;
lastChange = "2021-08-02 21:05:32 +0000";
layers = (
{
anchors = (
{
name = bottom;
position = "{753, 0}";
},
{
name = top;
position = "{1100, 719}";
}
);
layerId = "1C8B4FDB-B0E8-4411-8E26-068C67144FEF";
paths = (
{
closed = 1;
nodes = (
"298 -143 OFFCURVE",
"312 -142 OFFCURVE",
"327 -141 CURVE SMOOTH",
"434 -133 OFFCURVE",
"516 -90 OFFCURVE",
"581 -26 CURVE SMOOTH",
"646 38 OFFCURVE",
"696 125 OFFCURVE",
"739 222 CURVE SMOOTH",
"757 265 OFFCURVE",
"786 350 OFFCURVE",
"807 407 CURVE SMOOTH",
"832 475 OFFCURVE",
"861 545 OFFCURVE",
"894 596 CURVE",
"955 607 OFFCURVE",
"991 628 OFFCURVE",
"991 651 CURVE SMOOTH",
"991 655 OFFCURVE",
"990 658 OFFCURVE",
"989 661 CURVE SMOOTH",
"984 671 OFFCURVE",
"974 679 OFFCURVE",
"960 679 CURVE SMOOTH",
"948 679 OFFCURVE",
"936 674 OFFCURVE",
"927 666 CURVE SMOOTH",
"913 655 OFFCURVE",
"898 637 OFFCURVE",
"883 612 CURVE",
"877 612 LINE SMOOTH",
"821 612 OFFCURVE",
"754 601 OFFCURVE",
"685 588 CURVE SMOOTH",
"650 581 OFFCURVE",
"616 572 OFFCURVE",
"582 561 CURVE SMOOTH",
"513 538 OFFCURVE",
"450 503 OFFCURVE",
"398 451 CURVE SMOOTH",
"372 424 OFFCURVE",
"351 393 OFFCURVE",
"334 357 CURVE SMOOTH",
"323 333 OFFCURVE",
"317 310 OFFCURVE",
"317 289 CURVE SMOOTH",
"317 228 OFFCURVE",
"360 184 OFFCURVE",
"423 184 CURVE SMOOTH",
"444 184 OFFCURVE",
"468 189 OFFCURVE",
"493 201 CURVE SMOOTH",
"562 232 OFFCURVE",
"632 315 OFFCURVE",
"632 386 CURVE SMOOTH",
"632 394 OFFCURVE",
"631 402 OFFCURVE",
"629 410 CURVE SMOOTH",
"628 418 OFFCURVE",
"622 423 OFFCURVE",
"618 423 CURVE SMOOTH",
"616 423 OFFCURVE",
"615 422 OFFCURVE",
"615 418 CURVE SMOOTH",
"615 415 LINE",
"616 412 OFFCURVE",
"616 409 OFFCURVE",
"616 406 CURVE SMOOTH",
"616 358 OFFCURVE",
"556 249 OFFCURVE",
"491 218 CURVE SMOOTH",
"470 208 OFFCURVE",
"451 204 OFFCURVE",
"435 204 CURVE SMOOTH",
"396 204 OFFCURVE",
"374 231 OFFCURVE",
"374 272 CURVE SMOOTH",
"374 294 OFFCURVE",
"381 322 OFFCURVE",
"395 351 CURVE SMOOTH",
"446 454 OFFCURVE",
"522 509 OFFCURVE",
"606 541 CURVE SMOOTH",
"690 573 OFFCURVE",
"782 592 OFFCURVE",
"865 592 CURVE SMOOTH",
"870 592 LINE",
"834 532 OFFCURVE",
"800 454 OFFCURVE",
"770 383 CURVE SMOOTH",
"745 325 OFFCURVE",
"716 251 OFFCURVE",
"701 224 CURVE SMOOTH",
"658 144 OFFCURVE",
"602 67 OFFCURVE",
"536 8 CURVE SMOOTH",
"466 -55 OFFCURVE",
"384 -94 OFFCURVE",
"294 -94 CURVE SMOOTH",
"210 -94 OFFCURVE",
"144 -73 OFFCURVE",
"100 -29 CURVE SMOOTH",
"67 4 OFFCURVE",
"52 43 OFFCURVE",
"52 84 CURVE SMOOTH",
"52 150 OFFCURVE",
"93 219 OFFCURVE",
"165 269 CURVE SMOOTH",
"188 284 OFFCURVE",
"211 297 OFFCURVE",
"234 305 CURVE SMOOTH",
"251 311 OFFCURVE",
"260 319 OFFCURVE",
"260 323 CURVE SMOOTH",
"260 325 OFFCURVE",
"257 327 OFFCURVE",
"251 327 CURVE SMOOTH",
"249 327 OFFCURVE",
"245 327 OFFCURVE",
"241 326 CURVE SMOOTH",
"214 321 OFFCURVE",
"188 309 OFFCURVE",
"162 292 CURVE SMOOTH",
"78 236 OFFCURVE",
"32 147 OFFCURVE",
"32 63 CURVE SMOOTH",
"32 21 OFFCURVE",
"43 -19 OFFCURVE",
"67 -53 CURVE SMOOTH",
"105 -107 OFFCURVE",
"177 -143 OFFCURVE",
"284 -143 CURVE SMOOTH"
);
},
{
closed = 1;
nodes = (
"1035 -35 OFFCURVE",
"1064 -21 OFFCURVE",
"1091 8 CURVE SMOOTH",
"1125 47 OFFCURVE",
"1163 127 OFFCURVE",
"1177 159 CURVE SMOOTH",
"1179 163 OFFCURVE",
"1180 166 OFFCURVE",
"1180 168 CURVE SMOOTH",
"1180 171 OFFCURVE",
"1179 172 OFFCURVE",
"1177 172 CURVE SMOOTH",
"1173 172 OFFCURVE",
"1167 167 OFFCURVE",
"1163 159 CURVE SMOOTH",
"1142 121 OFFCURVE",
"1119 70 OFFCURVE",
"1081 32 CURVE SMOOTH",
"1060 12 OFFCURVE",
"1040 3 OFFCURVE",
"1021 3 CURVE SMOOTH",
"984 3 OFFCURVE",
"951 37 OFFCURVE",
"925 86 CURVE SMOOTH",
"899 134 OFFCURVE",
"879 189 OFFCURVE",
"867 237 CURVE SMOOTH",
"861 260 OFFCURVE",
"857 278 OFFCURVE",
"855 291 CURVE",
"880 320 OFFCURVE",
"905 347 OFFCURVE",
"932 374 CURVE SMOOTH",
"997 441 OFFCURVE",
"1135 573 OFFCURVE",
"1176 605 CURVE SMOOTH",
"1201 625 OFFCURVE",
"1257 667 OFFCURVE",
"1297 692 CURVE SMOOTH",
"1334 715 OFFCURVE",
"1388 745 OFFCURVE",
"1417 745 CURVE SMOOTH",
"1422 745 OFFCURVE",
"1426 743 OFFCURVE",
"1429 743 CURVE SMOOTH",
"1430 743 OFFCURVE",
"1429 745 OFFCURVE",
"1426 749 CURVE SMOOTH",
"1422 754 OFFCURVE",
"1416 756 OFFCURVE",
"1409 756 CURVE SMOOTH",
"1406 756 LINE SMOOTH",
"1387 753 OFFCURVE",
"1370 752 OFFCURVE",
"1353 745 CURVE",
"1270 721 OFFCURVE",
"1186 668 OFFCURVE",
"1110 606 CURVE SMOOTH",
"1034 544 OFFCURVE",
"964 473 OFFCURVE",
"914 410 CURVE SMOOTH",
"875 361 LINE",
"837 314 LINE",
"818 314 OFFCURVE",
"796 296 OFFCURVE",
"799 269 CURVE SMOOTH",
"808 195 OFFCURVE",
"838 83 OFFCURVE",
"910 8 CURVE SMOOTH",
"938 -21 OFFCURVE",
"969 -35 OFFCURVE",
"1002 -35 CURVE SMOOTH"
);
},
{
closed = 1;
nodes = (
"923 633 OFFCURVE",
"938 646 OFFCURVE",
"955 654 CURVE SMOOTH",
"958 656 OFFCURVE",
"963 658 OFFCURVE",
"966 658 CURVE SMOOTH",
"970 658 OFFCURVE",
"973 656 OFFCURVE",
"973 652 CURVE SMOOTH",
"973 650 OFFCURVE",
"972 648 OFFCURVE",
"971 646 CURVE SMOOTH",
"968 641 OFFCURVE",
"962 635 OFFCURVE",
"953 630 CURVE SMOOTH",
"944 624 OFFCURVE",
"929 619 OFFCURVE",
"909 615 CURVE"
);
}
);
width = 1153;
}
);
note = K;
},
{
glyphname = L.ss01;
lastChange = "2021-08-02 21:22:32 +0000";
layers = (
{
anchors = (
{
name = bottom;
position = "{532, -86}";
},
{
name = center;
position = "{466, 440}";
},
{
name = top;
position = "{923, 674}";
},
{
name = topright;
position = "{1062, 701}";
}
);
layerId = "1C8B4FDB-B0E8-4411-8E26-068C67144FEF";
paths = (
{
closed = 1;
nodes = (
"798 -108 OFFCURVE",
"931 -65 OFFCURVE",
"931 23 CURVE SMOOTH",
"931 98 OFFCURVE",
"811 116 OFFCURVE",
"733 116 CURVE SMOOTH",
"690 114 OFFCURVE",
"535 83 OFFCURVE",
"535 54 CURVE SMOOTH",
"535 53 OFFCURVE",
"536 52 OFFCURVE",
"539 52 CURVE SMOOTH",
"542 52 OFFCURVE",
"545 53 OFFCURVE",
"549 56 CURVE",
"591 80 OFFCURVE",
"667 97 OFFCURVE",
"719 97 CURVE SMOOTH",
"795 100 OFFCURVE",
"878 81 OFFCURVE",
"878 24 CURVE SMOOTH",
"878 -56 OFFCURVE",
"772 -86 OFFCURVE",
"697 -86 CURVE SMOOTH",
"583 -86 OFFCURVE",
"469 -29 OFFCURVE",
"370 24 CURVE",
"446 77 OFFCURVE",
"506 150 OFFCURVE",
"558 230 CURVE",
"701 245 OFFCURVE",
"809 306 OFFCURVE",
"882 379 CURVE SMOOTH",
"954 451 OFFCURVE",
"990 535 OFFCURVE",
"989 595 CURVE SMOOTH",
"986 642 OFFCURVE",
"962 675 OFFCURVE",
"908 675 CURVE SMOOTH",
"807 675 OFFCURVE",
"717 577 OFFCURVE",
"647 479 CURVE",
"604 498 OFFCURVE",
"557 508 OFFCURVE",
"501 505 CURVE SMOOTH",
"406 502 OFFCURVE",
"292 457 OFFCURVE",
"292 365 CURVE SMOOTH",
"292 275 OFFCURVE",
"403 234 OFFCURVE",
"484 228 CURVE",
"436 157 OFFCURVE",
"386 94 OFFCURVE",
"333 43 CURVE",
"254 84 OFFCURVE",
"183 120 OFFCURVE",
"117 120 CURVE SMOOTH",
"40 120 OFFCURVE",
"-9 74 OFFCURVE",
"-9 17 CURVE SMOOTH",
"-6 -36 OFFCURVE",
"45 -72 OFFCURVE",
"129 -70 CURVE SMOOTH",
"206 -65 OFFCURVE",
"276 -34 OFFCURVE",
"335 1 CURVE",
"448 -47 OFFCURVE",
"587 -108 OFFCURVE",
"708 -108 CURVE SMOOTH"
);
},
{
closed = 1;
nodes = (
"66 -52 OFFCURVE",
"17 -17 OFFCURVE",
"14 18 CURVE SMOOTH",
"14 42 OFFCURVE",
"37 66 OFFCURVE",
"94 66 CURVE SMOOTH",
"157 69 OFFCURVE",
"225 46 OFFCURVE",
"300 15 CURVE",
"247 -25 OFFCURVE",
"189 -52 OFFCURVE",
"123 -52 CURVE SMOOTH"
);
},
{
closed = 1;
nodes = (
"422 246 OFFCURVE",
"335 286 OFFCURVE",
"335 360 CURVE SMOOTH",
"335 437 OFFCURVE",
"430 485 OFFCURVE",
"496 488 CURVE SMOOTH",
"548 491 OFFCURVE",
"596 481 OFFCURVE",
"637 466 CURVE",
"609 425 OFFCURVE",
"583 385 OFFCURVE",
"560 346 CURVE SMOOTH",
"537 307 OFFCURVE",
"515 273 OFFCURVE",
"496 246 CURVE"
);
},
{
closed = 1;
nodes = (
"613 316 OFFCURVE",
"649 382 OFFCURVE",
"684 443 CURVE",
"708 428 OFFCURVE",
"729 410 OFFCURVE",
"747 388 CURVE SMOOTH",
"751 382 OFFCURVE",
"756 385 OFFCURVE",
"756 392 CURVE SMOOTH",
"756 396 OFFCURVE",
"753 401 OFFCURVE",
"747 407 CURVE SMOOTH",
"730 426 OFFCURVE",
"712 442 OFFCURVE",
"692 455 CURVE",
"720 501 LINE SMOOTH",
"753 557 OFFCURVE",
"839 658 OFFCURVE",
"908 658 CURVE SMOOTH",
"945 658 OFFCURVE",
"963 633 OFFCURVE",
"963 598 CURVE SMOOTH",
"963 547 OFFCURVE",
"928 471 OFFCURVE",
"863 403 CURVE SMOOTH",
"796 333 OFFCURVE",
"697 271 OFFCURVE",
"572 252 CURVE"
);
}
);
userData = {
assembly = "PUSHW[ ]	/* 4 values pushed */\012116 6 29 4 \012CALL[ ]	/* CallFunction */\012PUSHW[ ]	/* 4 values pushed */\01287 6 63 4 \012CALL[ ]	/* CallFunction */\012PUSHW[ ]	/* 4 values pushed */\01245 6 100 4 \012CALL[ ]	/* CallFunction */\012PUSHW[ ]	/* 3 values pushed */\01224 29 45 \012SRP1[ ]	/* SetRefPoint1 */\012SRP2[ ]	/* SetRefPoint2 */\012IP[ ]	/* InterpolatePts */\012PUSHW[ ]	/* 3 values pushed */\01253 29 45 \012SRP1[ ]	/* SetRefPoint1 */\012SRP2[ ]	/* SetRefPoint2 */\012IP[ ]	/* InterpolatePts */\012NPUSHW[ ]	/* 3 values pushed */\012250 63 1 \012DELTAP2[ ]	/* DeltaExceptionP2 */\012NPUSHW[ ]	/* 3 values pushed */\01210 63 1 \012DELTAP3[ ]	/* DeltaExceptionP3 */\012NPUSHW[ ]	/* 33 values pushed */\0129 63 25 63 41 63 57 63 73 63 89 63 105 63 121 63 137 63 153 63 169 63 185 63 201 63 217 63 233 63 249 63 16 \012DELTAP1[ ]	/* DeltaExceptionP1 */\012NPUSHW[ ]	/* 31 values pushed */\0129 63 25 63 41 63 57 63 73 63 89 63 105 63 121 63 137 63 153 63 169 63 185 63 201 63 217 63 233 63 15 \012DELTAP2[ ]	/* DeltaExceptionP2 */\012PUSHW[ ]	/* 3 values pushed */\01295 29 45 \012SRP1[ ]	/* SetRefPoint1 */\012SRP2[ ]	/* SetRefPoint2 */\012IP[ ]	/* InterpolatePts */\012NPUSHW[ ]	/* 3 values pushed */\012250 100 1 \012DELTAP2[ ]	/* DeltaExceptionP2 */\012NPUSHW[ ]	/* 3 values pushed */\01210 100 1 \012DELTAP3[ ]	/* DeltaExceptionP3 */\012NPUSHW[ ]	/* 33 values pushed */\0129 100 25 100 41 100 57 100 73 100 89 100 105 100 121 100 137 100 153 100 169 100 185 100 201 100 217 100 233 100 249 100 16 \012DELTAP1[ ]	/* DeltaExceptionP1 */\012NPUSHW[ ]	/* 31 values pushed */\0129 100 25 100 41 100 57 100 73 100 89 100 105 100 121 100 137 100 153 100 169 100 185 100 201 100 217 100 233 100 15 \012DELTAP2[ ]	/* DeltaExceptionP2 */\012NPUSHW[ ]	/* 33 values pushed */\0126 116 22 116 38 116 54 116 70 116 86 116 102 116 118 116 134 116 150 116 166 116 182 116 198 116 214 116 230 116 246 116 16 \012DELTAP1[ ]	/* DeltaExceptionP1 */\012NPUSHW[ ]	/* 31 values pushed */\0126 116 22 116 38 116 54 116 70 116 86 116 102 116 118 116 134 116 150 116 166 116 182 116 198 116 214 116 230 116 15 \012DELTAP2[ ]	/* DeltaExceptionP2 */\012NPUSHW[ ]	/* 3 values pushed */\012245 116 1 \012DELTAP2[ ]	/* DeltaExceptionP2 */\012NPUSHW[ ]	/* 3 values pushed */\0125 116 1 \012DELTAP3[ ]	/* DeltaExceptionP3 */\012PUSHW[ ]	/* 3 values pushed */\012124 29 45 \012SRP1[ ]	/* SetRefPoint1 */\012SRP2[ ]	/* SetRefPoint2 */\012IP[ ]	/* InterpolatePts */\012PUSHW[ ]	/* 3 values pushed */\012135 29 116 \012SRP1[ ]	/* SetRefPoint1 */\012SRP2[ ]	/* SetRefPoint2 */\012IP[ ]	/* InterpolatePts */\012PUSHW[ ]	/* 1 value pushed */\01245 \012SRP0[ ]	/* SetRefPoint0 */\012PUSHW[ ]	/* 1 value pushed */\012147 \012MDRP[11100]	/* MoveDirectRelPt */\012SVTCA[0]	/* SetFreedomAndProjectionVectorToAxis */\012PUSHW[ ]	/* 4 values pushed */\01258 1 0 4 \012CALL[ ]	/* CallFunction */\012PUSHW[ ]	/* 3 values pushed */\01282 8 3 \012CALL[ ]	/* CallFunction */\012PUSHW[ ]	/* 1 value pushed */\01282 \012SRP0[ ]	/* SetRefPoint0 */\012PUSHW[ ]	/* 1 value pushed */\01218 \012MDRP[10000]	/* MoveDirectRelPt */\012PUSHW[ ]	/* 1 value pushed */\01218 \012MDAP[1]	/* MoveDirectAbsPt */\012PUSHW[ ]	/* 3 values pushed */\01253 8 82 \012SRP1[ ]	/* SetRefPoint1 */\012SRP2[ ]	/* SetRefPoint2 */\012IP[ ]	/* InterpolatePts */\012PUSHW[ ]	/* 3 values pushed */\012135 8 82 \012SRP1[ ]	/* SetRefPoint1 */\012SRP2[ ]	/* SetRefPoint2 */\012IP[ ]	/* InterpolatePts */\012PUSHW[ ]	/* 1 value pushed */\01282 \012SRP0[ ]	/* SetRefPoint0 */\012PUSHW[ ]	/* 2 values pushed */\012138 4 \012MIRP[10100]	/* MoveIndirectRelPt */\012IUP[0]	/* InterpolateUntPts */\012IUP[1]	/* InterpolateUntPts */";
};
width = 932;
}
);
note = L;
},
{
glyphname = Lacute.ss01;
lastChange = "2021-08-02 21:22:32 +0000";
layers = (
{
layerId = "1C8B4FDB-B0E8-4411-8E26-068C67144FEF";
paths = (
{
closed = 1;
nodes = (
"798 -108 OFFCURVE",
"931 -65 OFFCURVE",
"931 23 CURVE SMOOTH",
"931 98 OFFCURVE",
"811 116 OFFCURVE",
"733 116 CURVE SMOOTH",
"690 114 OFFCURVE",
"535 83 OFFCURVE",
"535 54 CURVE SMOOTH",
"535 53 OFFCURVE",
"536 52 OFFCURVE",
"539 52 CURVE SMOOTH",
"542 52 OFFCURVE",
"545 53 OFFCURVE",
"549 56 CURVE",
"591 80 OFFCURVE",
"667 97 OFFCURVE",
"719 97 CURVE SMOOTH",
"795 100 OFFCURVE",
"878 81 OFFCURVE",
"878 24 CURVE SMOOTH",
"878 -56 OFFCURVE",
"772 -86 OFFCURVE",
"697 -86 CURVE SMOOTH",
"583 -86 OFFCURVE",
"469 -29 OFFCURVE",
"370 24 CURVE",
"446 77 OFFCURVE",
"506 150 OFFCURVE",
"558 230 CURVE",
"701 245 OFFCURVE",
"809 306 OFFCURVE",
"882 379 CURVE SMOOTH",
"954 451 OFFCURVE",
"990 535 OFFCURVE",
"989 595 CURVE SMOOTH",
"986 642 OFFCURVE",
"962 675 OFFCURVE",
"908 675 CURVE SMOOTH",
"807 675 OFFCURVE",
"717 577 OFFCURVE",
"647 479 CURVE",
"604 498 OFFCURVE",
"557 508 OFFCURVE",
"501 505 CURVE SMOOTH",
"406 502 OFFCURVE",
"292 457 OFFCURVE",
"292 365 CURVE SMOOTH",
"292 275 OFFCURVE",
"403 234 OFFCURVE",
"484 228 CURVE",
"436 157 OFFCURVE",
"386 94 OFFCURVE",
"333 43 CURVE",
"254 84 OFFCURVE",
"183 120 OFFCURVE",
"117 120 CURVE SMOOTH",
"40 120 OFFCURVE",
"-9 74 OFFCURVE",
"-9 17 CURVE SMOOTH",
"-6 -36 OFFCURVE",
"45 -72 OFFCURVE",
"129 -70 CURVE SMOOTH",
"206 -65 OFFCURVE",
"276 -34 OFFCURVE",
"335 1 CURVE",
"448 -47 OFFCURVE",
"587 -108 OFFCURVE",
"708 -108 CURVE SMOOTH"
);
},
{
closed = 1;
nodes = (
"66 -52 OFFCURVE",
"17 -17 OFFCURVE",
"14 18 CURVE SMOOTH",
"14 42 OFFCURVE",
"37 66 OFFCURVE",
"94 66 CURVE SMOOTH",
"157 69 OFFCURVE",
"225 46 OFFCURVE",
"300 15 CURVE",
"247 -25 OFFCURVE",
"189 -52 OFFCURVE",
"123 -52 CURVE SMOOTH"
);
},
{
closed = 1;
nodes = (
"422 246 OFFCURVE",
"335 286 OFFCURVE",
"335 360 CURVE SMOOTH",
"335 437 OFFCURVE",
"430 485 OFFCURVE",
"496 488 CURVE SMOOTH",
"548 491 OFFCURVE",
"596 481 OFFCURVE",
"637 466 CURVE",
"609 425 OFFCURVE",
"583 385 OFFCURVE",
"560 346 CURVE SMOOTH",
"537 307 OFFCURVE",
"515 273 OFFCURVE",
"496 246 CURVE"
);
},
{
closed = 1;
nodes = (
"613 316 OFFCURVE",
"649 382 OFFCURVE",
"684 443 CURVE",
"708 428 OFFCURVE",
"729 410 OFFCURVE",
"747 388 CURVE SMOOTH",
"751 382 OFFCURVE",
"756 385 OFFCURVE",
"756 392 CURVE SMOOTH",
"756 396 OFFCURVE",
"753 401 OFFCURVE",
"747 407 CURVE SMOOTH",
"730 426 OFFCURVE",
"712 442 OFFCURVE",
"692 455 CURVE",
"720 501 LINE SMOOTH",
"756 555 OFFCURVE",
"839 658 OFFCURVE",
"908 658 CURVE SMOOTH",
"945 658 OFFCURVE",
"963 633 OFFCURVE",
"963 598 CURVE SMOOTH",
"963 547 OFFCURVE",
"928 471 OFFCURVE",
"863 403 CURVE SMOOTH",
"796 333 OFFCURVE",
"697 271 OFFCURVE",
"572 252 CURVE"
);
},
{
closed = 1;
nodes = (
"933 714 OFFCURVE",
"935 714 OFFCURVE",
"937 715 CURVE SMOOTH",
"943 717 OFFCURVE",
"945 719 OFFCURVE",
"971 733 CURVE SMOOTH",
"993 745 OFFCURVE",
"1082 819 OFFCURVE",
"1082 830 CURVE SMOOTH",
"1082 831 OFFCURVE",
"1079 832 OFFCURVE",
"1078 832 CURVE SMOOTH",
"1063 836 OFFCURVE",
"1054 839 OFFCURVE",
"1046 839 CURVE SMOOTH",
"1041 839 OFFCURVE",
"1037 838 OFFCURVE",
"1033 834 CURVE SMOOTH",
"1006 812 OFFCURVE",
"967 759 OFFCURVE",
"938 731 CURVE SMOOTH",
"930 723 OFFCURVE",
"928 719 OFFCURVE",
"928 716 CURVE SMOOTH",
"928 715 OFFCURVE",
"929 714 OFFCURVE",
"931 714 CURVE SMOOTH"
);
}
);
width = 932;
}
);
note = Lacute;
},
{
glyphname = Lslash.ss01;
lastChange = "2021-08-02 21:22:32 +0000";
layers = (
{
layerId = "1C8B4FDB-B0E8-4411-8E26-068C67144FEF";
paths = (
{
closed = 1;
nodes = (
"798 -108 OFFCURVE",
"931 -65 OFFCURVE",
"931 23 CURVE SMOOTH",
"931 98 OFFCURVE",
"811 116 OFFCURVE",
"733 116 CURVE SMOOTH",
"690 114 OFFCURVE",
"535 83 OFFCURVE",
"535 54 CURVE SMOOTH",
"535 53 OFFCURVE",
"536 52 OFFCURVE",
"539 52 CURVE SMOOTH",
"542 52 OFFCURVE",
"545 53 OFFCURVE",
"549 56 CURVE",
"591 80 OFFCURVE",
"667 97 OFFCURVE",
"719 97 CURVE SMOOTH",
"795 100 OFFCURVE",
"878 81 OFFCURVE",
"878 24 CURVE SMOOTH",
"878 -56 OFFCURVE",
"772 -86 OFFCURVE",
"697 -86 CURVE SMOOTH",
"583 -86 OFFCURVE",
"469 -29 OFFCURVE",
"370 24 CURVE",
"417 59 OFFCURVE",
"457 97 OFFCURVE",
"496 144 CURVE",
"530 151 OFFCURVE",
"558 156 OFFCURVE",
"580 159 CURVE SMOOTH",
"590 160 OFFCURVE",
"598 160 OFFCURVE",
"604 160 CURVE SMOOTH",
"611 160 OFFCURVE",
"616 159 OFFCURVE",
"617 158 CURVE",
"615 174 OFFCURVE",
"603 179 OFFCURVE",
"583 179 CURVE SMOOTH",
"577 179 OFFCURVE",
"572 179 OFFCURVE",
"565 178 CURVE SMOOTH",
"549 176 LINE",
"514 168 LINE",
"526 184 OFFCURVE",
"547 213 OFFCURVE",
"558 230 CURVE",
"701 245 OFFCURVE",
"809 306 OFFCURVE",
"882 379 CURVE SMOOTH",
"954 451 OFFCURVE",
"990 535 OFFCURVE",
"989 595 CURVE SMOOTH",
"986 642 OFFCURVE",
"962 675 OFFCURVE",
"908 675 CURVE SMOOTH",
"807 675 OFFCURVE",
"717 577 OFFCURVE",
"647 479 CURVE",
"604 498 OFFCURVE",
"557 508 OFFCURVE",
"501 505 CURVE SMOOTH",
"406 502 OFFCURVE",
"292 457 OFFCURVE",
"292 365 CURVE SMOOTH",
"292 275 OFFCURVE",
"403 234 OFFCURVE",
"484 228 CURVE",
"428 150 LINE",
"394 143 OFFCURVE",
"368 139 OFFCURVE",
"349 138 CURVE SMOOTH",
"330 137 OFFCURVE",
"315 137 OFFCURVE",
"306 138 CURVE",
"308 121 OFFCURVE",
"317 111 OFFCURVE",
"335 111 CURVE SMOOTH",
"339 111 OFFCURVE",
"343 111 OFFCURVE",
"347 112 CURVE SMOOTH",
"356 113 OFFCURVE",
"364 115 OFFCURVE",
"372 118 CURVE",
"409 127 LINE",
"384 96 OFFCURVE",
"360 68 OFFCURVE",
"333 43 CURVE",
"254 84 OFFCURVE",
"183 120 OFFCURVE",
"117 120 CURVE SMOOTH",
"40 120 OFFCURVE",
"-9 74 OFFCURVE",
"-9 17 CURVE SMOOTH",
"-6 -36 OFFCURVE",
"45 -72 OFFCURVE",
"129 -70 CURVE SMOOTH",
"206 -65 OFFCURVE",
"276 -34 OFFCURVE",
"335 1 CURVE",
"448 -47 OFFCURVE",
"587 -108 OFFCURVE",
"708 -108 CURVE SMOOTH"
);
},
{
closed = 1;
nodes = (
"66 -52 OFFCURVE",
"17 -17 OFFCURVE",
"14 18 CURVE SMOOTH",
"14 42 OFFCURVE",
"37 66 OFFCURVE",
"94 66 CURVE SMOOTH",
"157 69 OFFCURVE",
"225 46 OFFCURVE",
"300 15 CURVE",
"247 -25 OFFCURVE",
"189 -52 OFFCURVE",
"123 -52 CURVE SMOOTH"
);
},
{
closed = 1;
nodes = (
"422 246 OFFCURVE",
"335 286 OFFCURVE",
"335 360 CURVE SMOOTH",
"335 437 OFFCURVE",
"430 485 OFFCURVE",
"496 488 CURVE SMOOTH",
"548 491 OFFCURVE",
"596 481 OFFCURVE",
"637 466 CURVE",
"609 425 OFFCURVE",
"583 385 OFFCURVE",
"560 346 CURVE SMOOTH",
"537 307 OFFCURVE",
"515 273 OFFCURVE",
"496 246 CURVE"
);
},
{
closed = 1;
nodes = (
"613 316 OFFCURVE",
"649 382 OFFCURVE",
"684 443 CURVE",
"708 428 OFFCURVE",
"729 410 OFFCURVE",
"747 388 CURVE SMOOTH",
"751 382 OFFCURVE",
"756 385 OFFCURVE",
"756 392 CURVE SMOOTH",
"756 396 OFFCURVE",
"753 401 OFFCURVE",
"747 407 CURVE SMOOTH",
"730 426 OFFCURVE",
"712 442 OFFCURVE",
"692 455 CURVE",
"720 501 LINE SMOOTH",
"756 555 OFFCURVE",
"839 658 OFFCURVE",
"908 658 CURVE SMOOTH",
"945 658 OFFCURVE",
"963 633 OFFCURVE",
"963 598 CURVE SMOOTH",
"963 547 OFFCURVE",
"928 471 OFFCURVE",
"863 403 CURVE SMOOTH",
"796 333 OFFCURVE",
"697 271 OFFCURVE",
"572 252 CURVE"
);
}
);
userData = {
assembly = "PUSHW[ ]	/* 4 values pushed */\012113 5 75 4 \012CALL[ ]	/* CallFunction */\012NPUSHW[ ]	/* 3 values pushed */\0126 113 1 \012DELTAP1[ ]	/* DeltaExceptionP1 */\012PUSHW[ ]	/* 3 values pushed */\0126 75 113 \012SRP1[ ]	/* SetRefPoint1 */\012SRP2[ ]	/* SetRefPoint2 */\012IP[ ]	/* InterpolatePts */\012PUSHW[ ]	/* 3 values pushed */\01269 75 113 \012SRP1[ ]	/* SetRefPoint1 */\012SRP2[ ]	/* SetRefPoint2 */\012IP[ ]	/* InterpolatePts */\012PUSHW[ ]	/* 3 values pushed */\01281 75 113 \012SRP1[ ]	/* SetRefPoint1 */\012SRP2[ ]	/* SetRefPoint2 */\012IP[ ]	/* InterpolatePts */\012PUSHW[ ]	/* 3 values pushed */\012110 75 113 \012SRP1[ ]	/* SetRefPoint1 */\012SRP2[ ]	/* SetRefPoint2 */\012IP[ ]	/* InterpolatePts */\012IUP[0]	/* InterpolateUntPts */\012IUP[1]	/* InterpolateUntPts */";
};
width = 932;
}
);
note = Lslash;
},
{
glyphname = M.ss01;
lastChange = "2021-08-02 21:05:32 +0000";
layers = (
{
layerId = "1C8B4FDB-B0E8-4411-8E26-068C67144FEF";
paths = (
{
closed = 1;
nodes = (
"1188 -204 OFFCURVE",
"1202 -197 OFFCURVE",
"1202 -191 CURVE SMOOTH",
"1202 -187 OFFCURVE",
"1195 -184 OFFCURVE",
"1181 -184 CURVE SMOOTH",
"1174 -184 LINE SMOOTH",
"1088 -189 OFFCURVE",
"1058 -137 OFFCURVE",
"1058 -60 CURVE SMOOTH",
"1058 -26 OFFCURVE",
"1064 13 OFFCURVE",
"1074 54 CURVE SMOOTH",
"1104 179 OFFCURVE",
"1175 329 OFFCURVE",
"1216 412 CURVE SMOOTH",
"1237 453 OFFCURVE",
"1248 491 OFFCURVE",
"1248 520 CURVE SMOOTH",
"1248 555 OFFCURVE",
"1232 578 OFFCURVE",
"1198 578 CURVE SMOOTH",
"1140 578 OFFCURVE",
"1052 507 OFFCURVE",
"976 411 CURVE SMOOTH",
"905 324 OFFCURVE",
"842 236 OFFCURVE",
"807 180 CURVE",
"842 285 OFFCURVE",
"880 389 OFFCURVE",
"891 498 CURVE SMOOTH",
"897 568 OFFCURVE",
"864 598 OFFCURVE",
"821 598 CURVE SMOOTH",
"781 598 OFFCURVE",
"734 573 OFFCURVE",
"699 530 CURVE SMOOTH",
"643 462 OFFCURVE",
"604 404 OFFCURVE",
"560 324 CURVE SMOOTH",
"553 312 OFFCURVE",
"548 306 OFFCURVE",
"545 306 CURVE SMOOTH",
"544 306 OFFCURVE",
"543 308 OFFCURVE",
"543 311 CURVE SMOOTH",
"543 315 OFFCURVE",
"545 322 OFFCURVE",
"549 333 CURVE SMOOTH",
"569 389 OFFCURVE",
"588 449 OFFCURVE",
"593 502 CURVE SMOOTH",
"594 513 OFFCURVE",
"595 524 OFFCURVE",
"595 534 CURVE SMOOTH",
"595 641 OFFCURVE",
"538 691 OFFCURVE",
"453 691 CURVE SMOOTH",
"428 691 OFFCURVE",
"402 687 OFFCURVE",
"374 679 CURVE SMOOTH",
"242 641 OFFCURVE",
"98 526 OFFCURVE",
"38 387 CURVE SMOOTH",
"17 336 OFFCURVE",
"7 290 OFFCURVE",
"7 250 CURVE SMOOTH",
"7 211 OFFCURVE",
"16 178 OFFCURVE",
"33 154 CURVE SMOOTH",
"57 117 OFFCURVE",
"95 97 OFFCURVE",
"140 97 CURVE SMOOTH",
"157 97 OFFCURVE",
"175 100 OFFCURVE",
"194 106 CURVE SMOOTH",
"267 130 OFFCURVE",
"328 186 OFFCURVE",
"371 248 CURVE SMOOTH",
"392 279 OFFCURVE",
"409 310 OFFCURVE",
"421 343 CURVE SMOOTH",
"432 375 OFFCURVE",
"439 406 OFFCURVE",
"439 431 CURVE SMOOTH",
"439 456 OFFCURVE",
"433 477 OFFCURVE",
"421 492 CURVE SMOOTH",
"411 505 OFFCURVE",
"396 512 OFFCURVE",
"376 512 CURVE SMOOTH",
"353 512 OFFCURVE",
"341 503 OFFCURVE",
"341 498 CURVE SMOOTH",
"341 494 OFFCURVE",
"344 492 OFFCURVE",
"352 492 CURVE SMOOTH",
"354 492 OFFCURVE",
"357 492 OFFCURVE",
"360 493 CURVE",
"396 497 OFFCURVE",
"410 478 OFFCURVE",
"410 446 CURVE SMOOTH",
"410 416 OFFCURVE",
"397 374 OFFCURVE",
"376 331 CURVE SMOOTH",
"336 249 OFFCURVE",
"260 148 OFFCURVE",
"198 128 CURVE SMOOTH",
"181 123 OFFCURVE",
"165 120 OFFCURVE",
"151 120 CURVE SMOOTH",
"116 120 OFFCURVE",
"90 136 OFFCURVE",
"75 167 CURVE SMOOTH",
"66 185 OFFCURVE",
"61 207 OFFCURVE",
"61 235 CURVE SMOOTH",
"61 273 OFFCURVE",
"71 321 OFFCURVE",
"91 378 CURVE SMOOTH",
"118 451 OFFCURVE",
"182 528 OFFCURVE",
"254 585 CURVE SMOOTH",
"290 613 OFFCURVE",
"327 635 OFFCURVE",
"365 651 CURVE SMOOTH",
"396 664 OFFCURVE",
"425 671 OFFCURVE",
"450 671 CURVE SMOOTH",
"486 671 OFFCURVE",
"514 657 OFFCURVE",
"533 627 CURVE SMOOTH",
"543 610 OFFCURVE",
"548 586 OFFCURVE",
"548 556 CURVE SMOOTH",
"548 540 OFFCURVE",
"547 523 OFFCURVE",
"544 504 CURVE SMOOTH",
"537 457 OFFCURVE",
"520 395 OFFCURVE",
"497 327 CURVE SMOOTH",
"486 293 OFFCURVE",
"473 259 OFFCURVE",
"460 224 CURVE SMOOTH",
"433 154 OFFCURVE",
"404 88 OFFCURVE",
"376 33 CURVE SMOOTH",
"362 6 OFFCURVE",
"349 -17 OFFCURVE",
"337 -36 CURVE",
"333 -49 OFFCURVE",
"346 -56 OFFCURVE",
"362 -56 CURVE SMOOTH",
"379 -56 OFFCURVE",
"399 -48 OFFCURVE",
"406 -31 CURVE SMOOTH",
"445 56 OFFCURVE",
"476 124 OFFCURVE",
"505 185 CURVE SMOOTH",
"519 215 OFFCURVE",
"533 243 OFFCURVE",
"548 270 CURVE SMOOTH",
"576 323 OFFCURVE",
"608 375 OFFCURVE",
"647 428 CURVE SMOOTH",
"666 455 OFFCURVE",
"688 483 OFFCURVE",
"713 514 CURVE SMOOTH",
"748 557 OFFCURVE",
"779 577 OFFCURVE",
"803 577 CURVE SMOOTH",
"826 577 OFFCURVE",
"841 556 OFFCURVE",
"841 517 CURVE SMOOTH",
"841 510 OFFCURVE",
"840 502 OFFCURVE",
"839 494 CURVE SMOOTH",
"822 354 OFFCURVE",
"783 237 OFFCURVE",
"747 152 CURVE SMOOTH",
"718 85 OFFCURVE",
"679 17 OFFCURVE",
"670 0 CURVE",
"667 -4 OFFCURVE",
"666 -8 OFFCURVE",
"666 -12 CURVE SMOOTH",
"666 -21 OFFCURVE",
"676 -28 OFFCURVE",
"690 -28 CURVE SMOOTH",
"708 -28 OFFCURVE",
"733 -16 OFFCURVE",
"747 17 CURVE SMOOTH",
"758 41 OFFCURVE",
"781 84 OFFCURVE",
"809 130 CURVE SMOOTH",
"854 202 LINE SMOOTH",
"885 252 OFFCURVE",
"917 299 OFFCURVE",
"943 336 CURVE SMOOTH",
"956 355 OFFCURVE",
"967 370 OFFCURVE",
"976 381 CURVE SMOOTH",
"1055 481 OFFCURVE",
"1122 534 OFFCURVE",
"1155 534 CURVE SMOOTH",
"1169 534 OFFCURVE",
"1177 524 OFFCURVE",
"1177 505 CURVE SMOOTH",
"1177 487 OFFCURVE",
"1170 460 OFFCURVE",
"1155 424 CURVE SMOOTH",
"1145 401 OFFCURVE",
"1135 377 OFFCURVE",
"1124 354 CURVE SMOOTH",
"1091 284 LINE SMOOTH",
"1054 197 OFFCURVE",
"1016 88 OFFCURVE",
"1016 -13 CURVE SMOOTH",
"1016 -45 OFFCURVE",
"1019 -76 OFFCURVE",
"1028 -105 CURVE SMOOTH",
"1046 -168 OFFCURVE",
"1100 -204 OFFCURVE",
"1161 -204 CURVE SMOOTH"
);
}
);
userData = {
assembly = "SVTCA[0]	/* SetFreedomAndProjectionVectorToAxis */\012PUSHW[ ]	/* 4 values pushed */\0120 1 5 4 \012CALL[ ]	/* CallFunction */\012IUP[0]	/* InterpolateUntPts */\012IUP[1]	/* InterpolateUntPts */";
};
width = 1130;
}
);
note = M;
},
{
glyphname = N.ss01;
lastChange = "2021-08-02 21:05:32 +0000";
layers = (
{
anchors = (
{
name = bottom;
position = "{559, 0}";
},
{
name = top;
position = "{921, 684}";
}
);
layerId = "1C8B4FDB-B0E8-4411-8E26-068C67144FEF";
paths = (
{
closed = 1;
nodes = (
"887 -212 OFFCURVE",
"899 -207 OFFCURVE",
"899 -202 CURVE SMOOTH",
"899 -197 OFFCURVE",
"890 -193 OFFCURVE",
"871 -193 CURVE SMOOTH",
"807 -192 OFFCURVE",
"777 -161 OFFCURVE",
"767 -114 CURVE SMOOTH",
"764 -103 OFFCURVE",
"763 -91 OFFCURVE",
"763 -78 CURVE SMOOTH",
"763 -64 OFFCURVE",
"764 -49 OFFCURVE",
"767 -33 CURVE SMOOTH",
"778 28 OFFCURVE",
"800 97 OFFCURVE",
"831 166 CURVE SMOOTH",
"846 201 OFFCURVE",
"862 233 OFFCURVE",
"878 264 CURVE SMOOTH",
"896 300 OFFCURVE",
"937 365 OFFCURVE",
"960 410 CURVE SMOOTH",
"987 463 OFFCURVE",
"1009 519 OFFCURVE",
"1010 568 CURVE SMOOTH",
"1010 624 OFFCURVE",
"974 648 OFFCURVE",
"925 648 CURVE SMOOTH",
"898 648 OFFCURVE",
"866 640 OFFCURVE",
"835 626 CURVE SMOOTH",
"768 595 OFFCURVE",
"697 526 OFFCURVE",
"633 449 CURVE SMOOTH",
"590 398 OFFCURVE",
"552 343 OFFCURVE",
"521 296 CURVE SMOOTH",
"489 248 OFFCURVE",
"475 223 OFFCURVE",
"476 223 CURVE",
"476 223 OFFCURVE",
"491 250 OFFCURVE",
"517 305 CURVE SMOOTH",
"545 369 OFFCURVE",
"576 436 OFFCURVE",
"583 502 CURVE SMOOTH",
"584 515 OFFCURVE",
"585 527 OFFCURVE",
"585 538 CURVE SMOOTH",
"585 641 OFFCURVE",
"529 689 OFFCURVE",
"443 689 CURVE SMOOTH",
"419 689 OFFCURVE",
"393 686 OFFCURVE",
"365 678 CURVE SMOOTH",
"233 642 OFFCURVE",
"88 525 OFFCURVE",
"28 387 CURVE SMOOTH",
"7 336 OFFCURVE",
"-3 290 OFFCURVE",
"-3 250 CURVE SMOOTH",
"-3 211 OFFCURVE",
"6 178 OFFCURVE",
"23 154 CURVE SMOOTH",
"46 117 OFFCURVE",
"85 97 OFFCURVE",
"130 97 CURVE SMOOTH",
"147 97 OFFCURVE",
"165 100 OFFCURVE",
"184 106 CURVE SMOOTH",
"257 130 OFFCURVE",
"318 186 OFFCURVE",
"361 248 CURVE SMOOTH",
"382 279 OFFCURVE",
"399 310 OFFCURVE",
"410 343 CURVE SMOOTH",
"422 375 OFFCURVE",
"428 406 OFFCURVE",
"428 431 CURVE SMOOTH",
"428 456 OFFCURVE",
"422 477 OFFCURVE",
"411 492 CURVE SMOOTH",
"401 505 OFFCURVE",
"385 512 OFFCURVE",
"365 512 CURVE SMOOTH",
"343 512 OFFCURVE",
"331 504 OFFCURVE",
"331 498 CURVE SMOOTH",
"331 495 OFFCURVE",
"334 492 OFFCURVE",
"342 492 CURVE SMOOTH",
"344 492 OFFCURVE",
"347 492 OFFCURVE",
"350 493 CURVE",
"386 497 OFFCURVE",
"400 478 OFFCURVE",
"400 446 CURVE SMOOTH",
"400 416 OFFCURVE",
"387 374 OFFCURVE",
"366 331 CURVE SMOOTH",
"326 249 OFFCURVE",
"250 148 OFFCURVE",
"188 128 CURVE SMOOTH",
"171 123 OFFCURVE",
"155 120 OFFCURVE",
"141 120 CURVE SMOOTH",
"106 120 OFFCURVE",
"79 136 OFFCURVE",
"65 167 CURVE SMOOTH",
"56 184 OFFCURVE",
"51 207 OFFCURVE",
"51 234 CURVE SMOOTH",
"51 273 OFFCURVE",
"61 321 OFFCURVE",
"81 378 CURVE SMOOTH",
"120 486 OFFCURVE",
"246 606 OFFCURVE",
"354 651 CURVE SMOOTH",
"386 664 OFFCURVE",
"416 671 OFFCURVE",
"441 671 CURVE SMOOTH",
"500 671 OFFCURVE",
"538 634 OFFCURVE",
"538 552 CURVE SMOOTH",
"538 538 OFFCURVE",
"537 522 OFFCURVE",
"534 504 CURVE SMOOTH",
"523 428 OFFCURVE",
"496 345 OFFCURVE",
"473 288 CURVE SMOOTH",
"424 165 OFFCURVE",
"354 17 OFFCURVE",
"317 -36 CURVE",
"313 -49 OFFCURVE",
"325 -55 OFFCURVE",
"341 -55 CURVE SMOOTH",
"358 -55 OFFCURVE",
"379 -47 OFFCURVE",
"388 -31 CURVE SMOOTH",
"412 19 OFFCURVE",
"459 122 OFFCURVE",
"495 191 CURVE SMOOTH",
"538 275 OFFCURVE",
"590 363 OFFCURVE",
"650 435 CURVE SMOOTH",
"711 508 OFFCURVE",
"774 559 OFFCURVE",
"839 590 CURVE SMOOTH",
"863 602 OFFCURVE",
"885 608 OFFCURVE",
"904 608 CURVE SMOOTH",
"928 608 OFFCURVE",
"944 597 OFFCURVE",
"944 571 CURVE SMOOTH",
"944 567 OFFCURVE",
"944 563 OFFCURVE",
"943 558 CURVE SMOOTH",
"935 509 OFFCURVE",
"916 463 OFFCURVE",
"893 417 CURVE SMOOTH",
"874 379 OFFCURVE",
"839 316 OFFCURVE",
"820 280 CURVE SMOOTH",
"774 190 OFFCURVE",
"724 73 OFFCURVE",
"724 -37 CURVE SMOOTH",
"724 -60 OFFCURVE",
"726 -83 OFFCURVE",
"731 -105 CURVE SMOOTH",
"746 -170 OFFCURVE",
"800 -211 OFFCURVE",
"864 -212 CURVE SMOOTH"
);
}
);
userData = {
assembly = "SVTCA[0]	/* SetFreedomAndProjectionVectorToAxis */\012PUSHW[ ]	/* 1 value pushed */\01287 \012MDAP[1]	/* MoveDirectAbsPt */\012IUP[0]	/* InterpolateUntPts */\012IUP[1]	/* InterpolateUntPts */";
};
width = 883;
}
);
note = N;
},
{
glyphname = Eng.ss01;
lastChange = "2021-08-02 21:05:32 +0000";
layers = (
{
layerId = "1C8B4FDB-B0E8-4411-8E26-068C67144FEF";
paths = (
{
closed = 1;
nodes = (
"162 -230 OFFCURVE",
"247 -96 OFFCURVE",
"291 -27 CURVE SMOOTH",
"400 146 OFFCURVE",
"515 340 OFFCURVE",
"558 406 CURVE SMOOTH",
"584 448 OFFCURVE",
"636 522 OFFCURVE",
"636 571 CURVE SMOOTH",
"636 615 OFFCURVE",
"624 632 OFFCURVE",
"599 645 CURVE",
"595 623 OFFCURVE",
"572 573 OFFCURVE",
"542 518 CURVE SMOOTH",
"396 257 OFFCURVE",
"333 126 OFFCURVE",
"297 59 CURVE",
"299 130 OFFCURVE",
"323 235 OFFCURVE",
"333 300 CURVE SMOOTH",
"351 395 OFFCURVE",
"396 526 OFFCURVE",
"390 580 CURVE",
"383 605 OFFCURVE",
"349 640 OFFCURVE",
"321 640 CURVE SMOOTH",
"317 640 OFFCURVE",
"313 639 OFFCURVE",
"310 638 CURVE",
"281 522 OFFCURVE",
"193 379 OFFCURVE",
"104 240 CURVE SMOOTH",
"74 193 OFFCURVE",
"20 116 OFFCURVE",
"20 64 CURVE SMOOTH",
"20 44 OFFCURVE",
"28 27 OFFCURVE",
"48 17 CURVE",
"55 59 OFFCURVE",
"140 210 OFFCURVE",
"199 298 CURVE SMOOTH",
"226 340 OFFCURVE",
"340 526 OFFCURVE",
"348 557 CURVE",
"332 470 OFFCURVE",
"300 332 OFFCURVE",
"285 235 CURVE SMOOTH",
"276 182 OFFCURVE",
"263 116 OFFCURVE",
"263 71 CURVE SMOOTH",
"263 57 OFFCURVE",
"265 44 OFFCURVE",
"268 35 CURVE",
"214 -67 LINE",
"166 -148 OFFCURVE",
"120 -210 OFFCURVE",
"72 -210 CURVE SMOOTH",
"43 -210 OFFCURVE",
"34 -184 OFFCURVE",
"34 -164 CURVE SMOOTH",
"34 -159 OFFCURVE",
"34 -155 OFFCURVE",
"35 -151 CURVE SMOOTH",
"37 -135 OFFCURVE",
"49 -107 OFFCURVE",
"62 -87 CURVE",
"20 -83 OFFCURVE",
"2 -128 OFFCURVE",
"0 -148 CURVE SMOOTH",
"-5 -189 OFFCURVE",
"29 -230 OFFCURVE",
"60 -230 CURVE SMOOTH"
);
}
);
width = 586;
}
);
},
{
glyphname = O.ss01;
lastChange = "2021-08-04 14:47:07 +0000";
layers = (
{
anchors = (
{
name = bottom;
position = "{158, -43}";
},
{
name = center;
position = "{309, 313}";
},
{
name = ogonek;
position = "{154, -38}";
},
{
name = top;
position = "{538, 643}";
},
{
name = topleft;
position = "{39, 632}";
},
{
name = topright;
position = "{541, 519}";
}
);
layerId = "1C8B4FDB-B0E8-4411-8E26-068C67144FEF";
paths = (
{
closed = 1;
nodes = (
"262 -56 OFFCURVE",
"308 -43 OFFCURVE",
"355 -20 CURVE SMOOTH",
"485 46 OFFCURVE",
"628 239 OFFCURVE",
"628 386 CURVE SMOOTH",
"628 534 OFFCURVE",
"550 600 OFFCURVE",
"433 623 CURVE",
"468 642 OFFCURVE",
"502 653 OFFCURVE",
"537 653 CURVE SMOOTH",
"546 653 OFFCURVE",
"550 655 OFFCURVE",
"550 658 CURVE SMOOTH",
"550 662 OFFCURVE",
"540 667 OFFCURVE",
"523 667 CURVE SMOOTH",
"519 667 OFFCURVE",
"515 667 OFFCURVE",
"511 666 CURVE SMOOTH",
"467 661 OFFCURVE",
"425 648 OFFCURVE",
"385 629 CURVE",
"370 630 OFFCURVE",
"355 631 OFFCURVE",
"340 631 CURVE SMOOTH",
"172 631 OFFCURVE",
"62 600 OFFCURVE",
"9 549 CURVE SMOOTH",
"-21 521 OFFCURVE",
"-34 492 OFFCURVE",
"-34 467 CURVE SMOOTH",
"-34 414 OFFCURVE",
"25 373 OFFCURVE",
"106 367 CURVE",
"72 301 OFFCURVE",
"43 220 OFFCURVE",
"43 144 CURVE SMOOTH",
"43 128 OFFCURVE",
"44 113 OFFCURVE",
"47 98 CURVE SMOOTH",
"66 -10 OFFCURVE",
"133 -56 OFFCURVE",
"218 -56 CURVE SMOOTH"
);
},
{
closed = 1;
nodes = (
"140 -33 OFFCURVE",
"84 7 OFFCURVE",
"84 99 CURVE SMOOTH",
"84 163 OFFCURVE",
"109 237 OFFCURVE",
"149 310 CURVE SMOOTH",
"158 327 OFFCURVE",
"169 347 OFFCURVE",
"182 367 CURVE",
"281 375 OFFCURVE",
"392 417 OFFCURVE",
"466 508 CURVE SMOOTH",
"470 512 OFFCURVE",
"472 516 OFFCURVE",
"472 519 CURVE SMOOTH",
"472 520 OFFCURVE",
"471 521 OFFCURVE",
"471 523 CURVE",
"468 526 OFFCURVE",
"466 526 OFFCURVE",
"463 523 CURVE SMOOTH",
"412 461 OFFCURVE",
"297 417 OFFCURVE",
"204 399 CURVE",
"257 475 OFFCURVE",
"328 554 OFFCURVE",
"404 605 CURVE",
"479 600 OFFCURVE",
"530 579 OFFCURVE",
"557 533 CURVE SMOOTH",
"571 509 OFFCURVE",
"578 479 OFFCURVE",
"578 441 CURVE SMOOTH",
"578 406 OFFCURVE",
"571 363 OFFCURVE",
"559 314 CURVE SMOOTH",
"536 223 OFFCURVE",
"502 158 OFFCURVE",
"464 108 CURVE SMOOTH",
"426 58 OFFCURVE",
"383 24 OFFCURVE",
"344 3 CURVE SMOOTH",
"305 -20 OFFCURVE",
"258 -33 OFFCURVE",
"215 -33 CURVE SMOOTH"
);
},
{
closed = 1;
nodes = (
"96 389 OFFCURVE",
"90 389 OFFCURVE",
"85 390 CURVE SMOOTH",
"30 395 OFFCURVE",
"1 419 OFFCURVE",
"1 449 CURVE SMOOTH",
"1 472 OFFCURVE",
"17 499 OFFCURVE",
"50 524 CURVE SMOOTH",
"106 564 OFFCURVE",
"200 595 OFFCURVE",
"319 605 CURVE SMOOTH",
"331 606 LINE",
"343 606 LINE",
"255 554 OFFCURVE",
"177 480 OFFCURVE",
"135 414 CURVE SMOOTH",
"119 389 LINE",
"102 389 LINE SMOOTH"
);
}
);
userData = {
assembly = "SVTCA[0]	/* SetFreedomAndProjectionVectorToAxis */\012PUSHW[ ]	/* 4 values pushed */\01258 1 26 4 \012CALL[ ]	/* CallFunction */\012IUP[0]	/* InterpolateUntPts */\012IUP[1]	/* InterpolateUntPts */";
};
width = 617;
}
);
note = O;
},
{
glyphname = Oslash.ss01;
lastChange = "2021-08-02 21:05:32 +0000";
layers = (
{
anchors = (
{
name = bottom;
position = "{309, 0}";
},
{
name = center;
position = "{309, 313}";
},
{
name = ogonek;
position = "{215, -33}";
},
{
name = top;
position = "{476, 709}";
},
{
name = topleft;
position = "{39, 632}";
},
{
name = topright;
position = "{610, 488}";
}
);
background = {
paths = (
{
closed = 1;
nodes = (
"569 677 OFFCURVE",
"570 679 OFFCURVE",
"571 683 CURVE SMOOTH",
"572 708 OFFCURVE",
"552 745 OFFCURVE",
"546 746 CURVE",
"541 741 LINE",
"436 562 OFFCURVE",
"340 366 OFFCURVE",
"266 200 CURVE SMOOTH",
"192 34 OFFCURVE",
"140 -101 OFFCURVE",
"125 -156 CURVE SMOOTH",
"113.671 -186.899 OFFCURVE",
"126 -199 OFFCURVE",
"145 -163 CURVE SMOOTH",
"162 -124 OFFCURVE",
"208 -32 OFFCURVE",
"264 80 CURVE SMOOTH",
"352 257 LINE SMOOTH",
"415 381 OFFCURVE",
"474 496 OFFCURVE",
"519 583 CURVE SMOOTH",
"542 626 OFFCURVE",
"558 656 OFFCURVE",
"568 674 CURVE SMOOTH"
);
}
);
};
layerId = "1C8B4FDB-B0E8-4411-8E26-068C67144FEF";
paths = (
{
closed = 1;
nodes = (
"262 -56 OFFCURVE",
"308 -43 OFFCURVE",
"355 -20 CURVE SMOOTH",
"485 46 OFFCURVE",
"628 239 OFFCURVE",
"628 386 CURVE SMOOTH",
"628 534 OFFCURVE",
"550 600 OFFCURVE",
"433 623 CURVE",
"468 642 OFFCURVE",
"502 653 OFFCURVE",
"537 653 CURVE SMOOTH",
"546 653 OFFCURVE",
"550 655 OFFCURVE",
"550 658 CURVE SMOOTH",
"550 662 OFFCURVE",
"540 667 OFFCURVE",
"523 667 CURVE SMOOTH",
"519 667 OFFCURVE",
"515 667 OFFCURVE",
"511 666 CURVE SMOOTH",
"467 661 OFFCURVE",
"425 648 OFFCURVE",
"385 629 CURVE",
"370 630 OFFCURVE",
"355 631 OFFCURVE",
"340 631 CURVE SMOOTH",
"172 631 OFFCURVE",
"62 600 OFFCURVE",
"9 549 CURVE SMOOTH",
"-21 521 OFFCURVE",
"-34 492 OFFCURVE",
"-34 467 CURVE SMOOTH",
"-34 414 OFFCURVE",
"25 373 OFFCURVE",
"106 367 CURVE",
"72 301 OFFCURVE",
"43 220 OFFCURVE",
"43 144 CURVE SMOOTH",
"43 128 OFFCURVE",
"44 113 OFFCURVE",
"47 98 CURVE SMOOTH",
"66 -10 OFFCURVE",
"133 -56 OFFCURVE",
"218 -56 CURVE SMOOTH"
);
},
{
closed = 1;
nodes = (
"140 -33 OFFCURVE",
"84 7 OFFCURVE",
"84 99 CURVE SMOOTH",
"84 163 OFFCURVE",
"109 237 OFFCURVE",
"149 310 CURVE SMOOTH",
"158 327 OFFCURVE",
"169 347 OFFCURVE",
"182 367 CURVE",
"281 375 OFFCURVE",
"392 417 OFFCURVE",
"466 508 CURVE SMOOTH",
"470 512 OFFCURVE",
"472 516 OFFCURVE",
"472 519 CURVE SMOOTH",
"472 520 OFFCURVE",
"471 521 OFFCURVE",
"471 523 CURVE",
"468 526 OFFCURVE",
"466 526 OFFCURVE",
"463 523 CURVE SMOOTH",
"412 461 OFFCURVE",
"297 417 OFFCURVE",
"204 399 CURVE",
"257 475 OFFCURVE",
"328 554 OFFCURVE",
"404 605 CURVE",
"479 600 OFFCURVE",
"530 579 OFFCURVE",
"557 533 CURVE SMOOTH",
"571 509 OFFCURVE",
"578 479 OFFCURVE",
"578 441 CURVE SMOOTH",
"578 406 OFFCURVE",
"571 363 OFFCURVE",
"559 314 CURVE SMOOTH",
"536 223 OFFCURVE",
"502 158 OFFCURVE",
"464 108 CURVE SMOOTH",
"426 58 OFFCURVE",
"383 24 OFFCURVE",
"344 3 CURVE SMOOTH",
"305 -20 OFFCURVE",
"258 -33 OFFCURVE",
"215 -33 CURVE SMOOTH"
);
},
{
closed = 1;
nodes = (
"124 -185 OFFCURVE",
"130 -179 OFFCURVE",
"138 -163 CURVE SMOOTH",
"156 -125 OFFCURVE",
"202 -33 OFFCURVE",
"258 79 CURVE SMOOTH",
"346 256 LINE SMOOTH",
"408 381 OFFCURVE",
"469 495 OFFCURVE",
"513 582 CURVE SMOOTH",
"536 625 OFFCURVE",
"551 654 OFFCURVE",
"562 672 CURVE",
"563 675 OFFCURVE",
"564 677 OFFCURVE",
"565 681 CURVE SMOOTH",
"569 707 OFFCURVE",
"558 747 OFFCURVE",
"552 749 CURVE",
"548 744 LINE",
"447 566 OFFCURVE",
"350 370 OFFCURVE",
"274 204 CURVE SMOOTH",
"198 38 OFFCURVE",
"142 -98 OFFCURVE",
"124 -155 CURVE SMOOTH",
"120 -165 OFFCURVE",
"118 -173 OFFCURVE",
"118 -178 CURVE SMOOTH",
"118 -183 OFFCURVE",
"119 -185 OFFCURVE",
"121 -185 CURVE SMOOTH"
);
},
{
closed = 1;
nodes = (
"96 389 OFFCURVE",
"90 389 OFFCURVE",
"85 390 CURVE SMOOTH",
"30 395 OFFCURVE",
"1 419 OFFCURVE",
"1 449 CURVE SMOOTH",
"1 472 OFFCURVE",
"17 499 OFFCURVE",
"50 524 CURVE SMOOTH",
"106 564 OFFCURVE",
"200 600 OFFCURVE",
"319 605 CURVE SMOOTH",
"331 606 LINE",
"343 606 LINE",
"255 554 OFFCURVE",
"177 480 OFFCURVE",
"135 414 CURVE SMOOTH",
"119 389 LINE",
"102 389 LINE SMOOTH"
);
}
);
width = 617;
}
);
note = Oslash;
},
{
glyphname = OE.ss01;
lastChange = "2021-08-02 21:05:32 +0000";
layers = (
{
anchors = (
{
name = center;
position = "{309, 313}";
},
{
name = ogonek;
position = "{215, -33}";
},
{
name = topleft;
position = "{39, 632}";
},
{
name = topright;
position = "{610, 488}";
}
);
layerId = "1C8B4FDB-B0E8-4411-8E26-068C67144FEF";
paths = (
{
closed = 1;
nodes = (
"789 -72 OFFCURVE",
"849 -60 OFFCURVE",
"906 -39 CURVE SMOOTH",
"935 -28 OFFCURVE",
"962 -15 OFFCURVE",
"989 1 CURVE SMOOTH",
"1042 32 OFFCURVE",
"1085 73 OFFCURVE",
"1109 123 CURVE SMOOTH",
"1122 148 OFFCURVE",
"1128 175 OFFCURVE",
"1128 204 CURVE SMOOTH",
"1128 234 OFFCURVE",
"1100 269 OFFCURVE",
"1052 269 CURVE SMOOTH",
"1041 269 OFFCURVE",
"1035 266 OFFCURVE",
"1035 261 CURVE SMOOTH",
"1035 258 OFFCURVE",
"1039 257 OFFCURVE",
"1045 257 CURVE SMOOTH",
"1076 257 OFFCURVE",
"1085 231 OFFCURVE",
"1085 208 CURVE SMOOTH",
"1085 137 OFFCURVE",
"1038 73 OFFCURVE",
"970 26 CURVE SMOOTH",
"903 -22 OFFCURVE",
"814 -51 OFFCURVE",
"733 -51 CURVE SMOOTH",
"599 -51 OFFCURVE",
"520 7 OFFCURVE",
"520 104 CURVE SMOOTH",
"520 109 OFFCURVE",
"521 115 OFFCURVE",
"521 120 CURVE SMOOTH",
"521 122 OFFCURVE",
"521 125 OFFCURVE",
"522 127 CURVE",
"558 175 OFFCURVE",
"589 228 OFFCURVE",
"607 280 CURVE",
"622 290 OFFCURVE",
"637 299 OFFCURVE",
"654 304 CURVE SMOOTH",
"666 307 OFFCURVE",
"677 309 OFFCURVE",
"690 309 CURVE SMOOTH",
"717 309 OFFCURVE",
"747 302 OFFCURVE",
"776 300 CURVE SMOOTH",
"804 297 OFFCURVE",
"825 295 OFFCURVE",
"841 295 CURVE SMOOTH",
"848 295 OFFCURVE",
"854 295 OFFCURVE",
"859 296 CURVE SMOOTH",
"873 298 OFFCURVE",
"880 304 OFFCURVE",
"880 313 CURVE SMOOTH",
"880 342 OFFCURVE",
"829 343 OFFCURVE",
"795 343 CURVE SMOOTH",
"760 343 OFFCURVE",
"733 341 OFFCURVE",
"716 340 CURVE",
"698 354 OFFCURVE",
"686 373 OFFCURVE",
"686 398 CURVE SMOOTH",
"686 415 OFFCURVE",
"690 432 OFFCURVE",
"697 449 CURVE",
"746 438 OFFCURVE",
"794 432 OFFCURVE",
"843 432 CURVE SMOOTH",
"1000 432 OFFCURVE",
"1145 480 OFFCURVE",
"1145 572 CURVE SMOOTH",
"1145 619 OFFCURVE",
"1102 646 OFFCURVE",
"1016 646 CURVE SMOOTH",
"860 646 OFFCURVE",
"709 577 OFFCURVE",
"659 480 CURVE",
"652 460 LINE SMOOTH",
"648 448 OFFCURVE",
"646 436 OFFCURVE",
"646 425 CURVE SMOOTH",
"646 386 OFFCURVE",
"663 357 OFFCURVE",
"682 338 CURVE SMOOTH",
"684 336 LINE",
"660 332 OFFCURVE",
"639 325 OFFCURVE",
"619 318 CURVE",
"625 341 OFFCURVE",
"628 364 OFFCURVE",
"628 386 CURVE SMOOTH",
"628 534 OFFCURVE",
"550 600 OFFCURVE",
"433 623 CURVE",
"468 642 OFFCURVE",
"502 653 OFFCURVE",
"537 653 CURVE SMOOTH",
"546 653 OFFCURVE",
"550 655 OFFCURVE",
"550 658 CURVE SMOOTH",
"550 662 OFFCURVE",
"540 667 OFFCURVE",
"523 667 CURVE SMOOTH",
"519 667 OFFCURVE",
"515 667 OFFCURVE",
"511 666 CURVE SMOOTH",
"467 661 OFFCURVE",
"425 648 OFFCURVE",
"385 629 CURVE",
"370 630 OFFCURVE",
"355 631 OFFCURVE",
"340 631 CURVE SMOOTH",
"172 631 OFFCURVE",
"62 600 OFFCURVE",
"9 549 CURVE SMOOTH",
"-21 521 OFFCURVE",
"-34 493 OFFCURVE",
"-34 467 CURVE SMOOTH",
"-34 414 OFFCURVE",
"25 373 OFFCURVE",
"106 367 CURVE",
"72 302 OFFCURVE",
"43 220 OFFCURVE",
"43 144 CURVE SMOOTH",
"43 129 OFFCURVE",
"44 113 OFFCURVE",
"47 98 CURVE SMOOTH",
"66 -10 OFFCURVE",
"133 -56 OFFCURVE",
"218 -56 CURVE SMOOTH",
"262 -56 OFFCURVE",
"308 -43 OFFCURVE",
"355 -20 CURVE SMOOTH",
"393 -1 OFFCURVE",
"431 29 OFFCURVE",
"467 65 CURVE",
"477 34 OFFCURVE",
"496 7 OFFCURVE",
"524 -15 CURVE SMOOTH",
"569 -50 OFFCURVE",
"641 -72 OFFCURVE",
"741 -72 CURVE SMOOTH"
);
},
{
closed = 1;
nodes = (
"140 -33 OFFCURVE",
"84 7 OFFCURVE",
"84 98 CURVE SMOOTH",
"84 163 OFFCURVE",
"109 236 OFFCURVE",
"149 310 CURVE SMOOTH",
"158 327 OFFCURVE",
"169 347 OFFCURVE",
"182 367 CURVE",
"281 375 OFFCURVE",
"392 417 OFFCURVE",
"466 508 CURVE SMOOTH",
"470 512 OFFCURVE",
"472 516 OFFCURVE",
"472 520 CURVE SMOOTH",
"472 521 OFFCURVE",
"472 522 OFFCURVE",
"471 523 CURVE SMOOTH",
"468 526 OFFCURVE",
"466 526 OFFCURVE",
"463 523 CURVE SMOOTH",
"412 461 OFFCURVE",
"297 417 OFFCURVE",
"204 399 CURVE",
"257 475 OFFCURVE",
"328 554 OFFCURVE",
"404 605 CURVE",
"479 600 OFFCURVE",
"530 579 OFFCURVE",
"557 533 CURVE SMOOTH",
"571 510 OFFCURVE",
"578 479 OFFCURVE",
"578 442 CURVE SMOOTH",
"578 406 OFFCURVE",
"571 364 OFFCURVE",
"559 314 CURVE SMOOTH",
"536 223 OFFCURVE",
"502 158 OFFCURVE",
"464 108 CURVE SMOOTH",
"426 58 OFFCURVE",
"383 24 OFFCURVE",
"344 3 CURVE SMOOTH",
"305 -20 OFFCURVE",
"258 -33 OFFCURVE",
"215 -33 CURVE SMOOTH"
);
},
{
closed = 1;
nodes = (
"96 389 OFFCURVE",
"90 389 OFFCURVE",
"85 390 CURVE SMOOTH",
"30 395 OFFCURVE",
"1 418 OFFCURVE",
"1 449 CURVE SMOOTH",
"1 472 OFFCURVE",
"17 499 OFFCURVE",
"50 524 CURVE SMOOTH",
"106 564 OFFCURVE",
"200 598 OFFCURVE",
"319 605 CURVE SMOOTH",
"323 605 OFFCURVE",
"327 605 OFFCURVE",
"331 606 CURVE",
"343 606 LINE",
"255 554 OFFCURVE",
"177 480 OFFCURVE",
"135 414 CURVE SMOOTH",
"119 389 LINE",
"102 389 LINE SMOOTH"
);
},
{
closed = 1;
nodes = (
"803 454 OFFCURVE",
"754 458 OFFCURVE",
"707 469 CURVE",
"768 564 OFFCURVE",
"943 617 OFFCURVE",
"1034 617 CURVE SMOOTH",
"1067 617 OFFCURVE",
"1089 613 OFFCURVE",
"1102 604 CURVE SMOOTH",
"1115 595 OFFCURVE",
"1121 584 OFFCURVE",
"1121 571 CURVE SMOOTH",
"1121 502 OFFCURVE",
"954 454 OFFCURVE",
"846 454 CURVE SMOOTH"
);
}
);
width = 1047;
}
);
note = OE;
},
{
glyphname = P.ss01;
lastChange = "2021-08-02 21:05:32 +0000";
layers = (
{
layerId = "1C8B4FDB-B0E8-4411-8E26-068C67144FEF";
paths = (
{
closed = 1;
nodes = (
"165 -36 OFFCURVE",
"226 -27 OFFCURVE",
"255 -15 CURVE",
"270 -16 OFFCURVE",
"285 -19 OFFCURVE",
"299 -23 CURVE SMOOTH",
"313 -27 OFFCURVE",
"330 -30 OFFCURVE",
"351 -32 CURVE SMOOTH",
"365 -33 OFFCURVE",
"378 -34 OFFCURVE",
"389 -34 CURVE SMOOTH",
"425 -34 OFFCURVE",
"448 -24 OFFCURVE",
"482 18 CURVE SMOOTH",
"487 24 OFFCURVE",
"489 29 OFFCURVE",
"489 32 CURVE SMOOTH",
"489 34 OFFCURVE",
"487 35 OFFCURVE",
"485 35 CURVE SMOOTH",
"482 35 OFFCURVE",
"478 33 OFFCURVE",
"475 30 CURVE SMOOTH",
"443 1 OFFCURVE",
"400 -7 OFFCURVE",
"355 -7 CURVE SMOOTH",
"327 -7 OFFCURVE",
"298 -4 OFFCURVE",
"271 0 CURVE",
"350 59 OFFCURVE",
"411 145 OFFCURVE",
"471 241 CURVE",
"502 230 OFFCURVE",
"543 227 OFFCURVE",
"564 227 CURVE SMOOTH",
"708 227 OFFCURVE",
"884 307 OFFCURVE",
"884 457 CURVE SMOOTH",
"884 501 OFFCURVE",
"863 544 OFFCURVE",
"807 583 CURVE SMOOTH",
"780 603 OFFCURVE",
"739 617 OFFCURVE",
"703 626 CURVE",
"710 640 OFFCURVE",
"745 672 OFFCURVE",
"773 689 CURVE SMOOTH",
"789 697 OFFCURVE",
"813 705 OFFCURVE",
"834 705 CURVE SMOOTH",
"845 705 OFFCURVE",
"855 703 OFFCURVE",
"863 698 CURVE SMOOTH",
"870 693 OFFCURVE",
"877 696 OFFCURVE",
"877 701 CURVE SMOOTH",
"877 704 OFFCURVE",
"875 707 OFFCURVE",
"872 711 CURVE SMOOTH",
"865 720 OFFCURVE",
"852 725 OFFCURVE",
"835 725 CURVE SMOOTH",
"814 725 OFFCURVE",
"796 722 OFFCURVE",
"779 715 CURVE SMOOTH",
"727 693 OFFCURVE",
"708 663 OFFCURVE",
"672 633 CURVE",
"615 646 OFFCURVE",
"548 652 OFFCURVE",
"483 652 CURVE SMOOTH",
"338 652 OFFCURVE",
"227 612 OFFCURVE",
"152 560 CURVE SMOOTH",
"115 533 OFFCURVE",
"87 505 OFFCURVE",
"69 474 CURVE SMOOTH",
"53 446 OFFCURVE",
"45 420 OFFCURVE",
"45 397 CURVE SMOOTH",
"45 367 OFFCURVE",
"58 341 OFFCURVE",
"84 322 CURVE SMOOTH",
"107 304 OFFCURVE",
"142 295 OFFCURVE",
"188 295 CURVE SMOOTH",
"225 295 OFFCURVE",
"274 307 OFFCURVE",
"326 340 CURVE SMOOTH",
"378 372 OFFCURVE",
"435 427 OFFCURVE",
"492 514 CURVE SMOOTH",
"494 518 OFFCURVE",
"495 522 OFFCURVE",
"495 525 CURVE SMOOTH",
"495 529 OFFCURVE",
"494 532 OFFCURVE",
"492 532 CURVE SMOOTH",
"490 532 OFFCURVE",
"488 530 OFFCURVE",
"485 526 CURVE",
"423 419 OFFCURVE",
"287 318 OFFCURVE",
"186 318 CURVE SMOOTH",
"116 318 OFFCURVE",
"85 345 OFFCURVE",
"85 382 CURVE SMOOTH",
"85 410 OFFCURVE",
"100 440 OFFCURVE",
"129 474 CURVE SMOOTH",
"175 528 OFFCURVE",
"248 575 OFFCURVE",
"347 606 CURVE SMOOTH",
"396 621 OFFCURVE",
"450 629 OFFCURVE",
"507 629 CURVE SMOOTH",
"555 629 OFFCURVE",
"609 626 OFFCURVE",
"654 618 CURVE",
"553 503 OFFCURVE",
"494 401 OFFCURVE",
"445 308 CURVE SMOOTH",
"398 216 OFFCURVE",
"301 61 OFFCURVE",
"244 6 CURVE",
"177 12 OFFCURVE",
"119 26 OFFCURVE",
"48 26 CURVE SMOOTH",
"28 26 OFFCURVE",
"15 23 OFFCURVE",
"10 18 CURVE SMOOTH",
"5 13 OFFCURVE",
"2 7 OFFCURVE",
"2 2 CURVE SMOOTH",
"2 -26 OFFCURVE",
"53 -36 OFFCURVE",
"110 -36 CURVE SMOOTH"
);
},
{
closed = 1;
nodes = (
"541 246 OFFCURVE",
"508 250 OFFCURVE",
"481 258 CURVE",
"490 274 LINE SMOOTH",
"518 320 OFFCURVE",
"563 401 OFFCURVE",
"591 449 CURVE SMOOTH",
"624 507 OFFCURVE",
"658 562 OFFCURVE",
"691 609 CURVE",
"728 600 OFFCURVE",
"766 583 OFFCURVE",
"790 564 CURVE SMOOTH",
"823 537 OFFCURVE",
"834 506 OFFCURVE",
"834 463 CURVE SMOOTH",
"834 339 OFFCURVE",
"676 246 OFFCURVE",
"556 246 CURVE SMOOTH"
);
}
);
width = 769;
}
);
note = P;
},
{
glyphname = Thorn.ss01;
lastChange = "2021-08-02 21:05:32 +0000";
layers = (
{
layerId = "1C8B4FDB-B0E8-4411-8E26-068C67144FEF";
paths = (
{
closed = 1;
nodes = (
"92 -33 OFFCURVE",
"101 -27 OFFCURVE",
"105 -15 CURVE SMOOTH",
"178 168 LINE",
"195 162 OFFCURVE",
"212 159 OFFCURVE",
"230 159 CURVE SMOOTH",
"264 159 OFFCURVE",
"299 169 OFFCURVE",
"332 186 CURVE SMOOTH",
"357 198 OFFCURVE",
"380 214 OFFCURVE",
"402 233 CURVE SMOOTH",
"446 272 OFFCURVE",
"481 316 OFFCURVE",
"501 360 CURVE SMOOTH",
"510 382 OFFCURVE",
"515 402 OFFCURVE",
"515 421 CURVE SMOOTH",
"515 476 OFFCURVE",
"487 520 OFFCURVE",
"415 520 CURVE SMOOTH",
"388 520 OFFCURVE",
"362 515 OFFCURVE",
"319 506 CURVE",
"344 563 LINE",
"361 601 LINE",
"362 602 OFFCURVE",
"363 604 OFFCURVE",
"363 607 CURVE SMOOTH",
"361 620 OFFCURVE",
"336 649 OFFCURVE",
"327 649 CURVE",
"325 648 OFFCURVE",
"324 647 OFFCURVE",
"324 646 CURVE",
"311 620 OFFCURVE",
"299 594 OFFCURVE",
"288 568 CURVE SMOOTH",
"253 490 LINE",
"221 482 OFFCURVE",
"189 476 OFFCURVE",
"158 473 CURVE",
"156 468 OFFCURVE",
"154 463 OFFCURVE",
"154 458 CURVE SMOOTH",
"154 443 OFFCURVE",
"169 434 OFFCURVE",
"195 434 CURVE SMOOTH",
"200 434 OFFCURVE",
"205 434 OFFCURVE",
"210 435 CURVE SMOOTH",
"215 435 OFFCURVE",
"223 436 OFFCURVE",
"230 437 CURVE",
"186 330 OFFCURVE",
"149 228 OFFCURVE",
"122 148 CURVE SMOOTH",
"94 67 OFFCURVE",
"78 5 OFFCURVE",
"74 -20 CURVE SMOOTH",
"73 -28 OFFCURVE",
"78 -33 OFFCURVE",
"84 -33 CURVE SMOOTH"
);
},
{
closed = 1;
nodes = (
"225 283 OFFCURVE",
"262 376 OFFCURVE",
"297 453 CURVE",
"336 462 OFFCURVE",
"384 472 OFFCURVE",
"419 472 CURVE SMOOTH",
"467 472 OFFCURVE",
"489 457 OFFCURVE",
"489 433 CURVE SMOOTH",
"489 379 OFFCURVE",
"437 319 OFFCURVE",
"382 279 CURVE SMOOTH",
"341 249 OFFCURVE",
"296 226 OFFCURVE",
"252 212 CURVE SMOOTH",
"229 205 OFFCURVE",
"209 200 OFFCURVE",
"190 199 CURVE"
);
}
);
userData = {
assembly = "PUSHW[ ]	/* 4 values pushed */\01232 6 16 4 \012CALL[ ]	/* CallFunction */\012NPUSHW[ ]	/* 33 values pushed */\0126 32 22 32 38 32 54 32 70 32 86 32 102 32 118 32 134 32 150 32 166 32 182 32 198 32 214 32 230 32 246 32 16 \012DELTAP1[ ]	/* DeltaExceptionP1 */\012NPUSHW[ ]	/* 31 values pushed */\0126 32 22 32 38 32 54 32 70 32 86 32 102 32 118 32 134 32 150 32 166 32 182 32 198 32 214 32 230 32 15 \012DELTAP2[ ]	/* DeltaExceptionP2 */\012NPUSHW[ ]	/* 3 values pushed */\012245 32 1 \012DELTAP2[ ]	/* DeltaExceptionP2 */\012NPUSHW[ ]	/* 3 values pushed */\0125 32 1 \012DELTAP3[ ]	/* DeltaExceptionP3 */\012PUSHW[ ]	/* 3 values pushed */\01258 16 32 \012SRP1[ ]	/* SetRefPoint1 */\012SRP2[ ]	/* SetRefPoint2 */\012IP[ ]	/* InterpolatePts */\012IUP[0]	/* InterpolateUntPts */\012IUP[1]	/* InterpolateUntPts */";
};
width = 412;
}
);
note = Thorn;
},
{
glyphname = Q.ss01;
lastChange = "2021-08-02 21:05:32 +0000";
layers = (
{
layerId = "1C8B4FDB-B0E8-4411-8E26-068C67144FEF";
paths = (
{
closed = 1;
nodes = (
"321 -53 OFFCURVE",
"379 -34 OFFCURVE",
"429 -2 CURVE SMOOTH",
"506 50 OFFCURVE",
"568 123 OFFCURVE",
"606 201 CURVE SMOOTH",
"637 265 OFFCURVE",
"655 335 OFFCURVE",
"655 400 CURVE SMOOTH",
"655 413 OFFCURVE",
"654 426 OFFCURVE",
"653 439 CURVE SMOOTH",
"644 514 OFFCURVE",
"610 580 OFFCURVE",
"547 622 CURVE SMOOTH",
"501 651 OFFCURVE",
"441 669 OFFCURVE",
"365 669 CURVE SMOOTH",
"335 669 OFFCURVE",
"301 666 OFFCURVE",
"265 660 CURVE SMOOTH",
"154 641 OFFCURVE",
"71 558 OFFCURVE",
"71 462 CURVE SMOOTH",
"71 435 OFFCURVE",
"77 407 OFFCURVE",
"91 380 CURVE SMOOTH",
"95 371 OFFCURVE",
"101 367 OFFCURVE",
"105 367 CURVE SMOOTH",
"109 367 OFFCURVE",
"112 371 OFFCURVE",
"112 378 CURVE SMOOTH",
"112 380 OFFCURVE",
"112 382 OFFCURVE",
"111 385 CURVE SMOOTH",
"105 409 OFFCURVE",
"102 433 OFFCURVE",
"102 455 CURVE SMOOTH",
"102 554 OFFCURVE",
"161 626 OFFCURVE",
"269 641 CURVE SMOOTH",
"288 643 OFFCURVE",
"307 645 OFFCURVE",
"325 645 CURVE SMOOTH",
"422 645 OFFCURVE",
"496 609 OFFCURVE",
"544 554 CURVE SMOOTH",
"572 521 OFFCURVE",
"591 482 OFFCURVE",
"602 437 CURVE SMOOTH",
"607 414 OFFCURVE",
"610 389 OFFCURVE",
"610 365 CURVE SMOOTH",
"610 296 OFFCURVE",
"588 224 OFFCURVE",
"546 154 CURVE SMOOTH",
"517 107 OFFCURVE",
"478 64 OFFCURVE",
"428 27 CURVE SMOOTH",
"374 -14 OFFCURVE",
"317 -37 OFFCURVE",
"266 -37 CURVE SMOOTH",
"207 -37 OFFCURVE",
"158 -5 OFFCURVE",
"137 69 CURVE SMOOTH",
"131 88 OFFCURVE",
"129 109 OFFCURVE",
"129 131 CURVE SMOOTH",
"129 179 OFFCURVE",
"142 231 OFFCURVE",
"163 282 CURVE SMOOTH",
"178 318 OFFCURVE",
"197 353 OFFCURVE",
"220 386 CURVE SMOOTH",
"266 452 OFFCURVE",
"318 500 OFFCURVE",
"371 523 CURVE SMOOTH",
"387 530 OFFCURVE",
"403 534 OFFCURVE",
"418 534 CURVE SMOOTH",
"426 534 OFFCURVE",
"435 532 OFFCURVE",
"443 530 CURVE SMOOTH",
"450 528 OFFCURVE",
"456 531 OFFCURVE",
"456 535 CURVE SMOOTH",
"456 537 OFFCURVE",
"454 540 OFFCURVE",
"450 542 CURVE SMOOTH",
"430 553 OFFCURVE",
"409 558 OFFCURVE",
"388 558 CURVE SMOOTH",
"347 558 OFFCURVE",
"304 541 OFFCURVE",
"264 511 CURVE SMOOTH",
"233 488 OFFCURVE",
"204 459 OFFCURVE",
"177 424 CURVE SMOOTH",
"119 347 OFFCURVE",
"81 255 OFFCURVE",
"81 160 CURVE SMOOTH",
"81 125 OFFCURVE",
"87 91 OFFCURVE",
"100 59 CURVE SMOOTH",
"131 -20 OFFCURVE",
"196 -53 OFFCURVE",
"268 -53 CURVE SMOOTH"
);
},
{
closed = 1;
nodes = (
"678 -339 OFFCURVE",
"718 -296 OFFCURVE",
"718 -244 CURVE SMOOTH",
"718 -175 OFFCURVE",
"646 -107 OFFCURVE",
"547 -92 CURVE SMOOTH",
"540 -91 OFFCURVE",
"536 -94 OFFCURVE",
"536 -97 CURVE SMOOTH",
"536 -101 OFFCURVE",
"541 -107 OFFCURVE",
"550 -108 CURVE SMOOTH",
"637 -123 OFFCURVE",
"691 -198 OFFCURVE",
"691 -249 CURVE SMOOTH",
"691 -277 OFFCURVE",
"675 -298 OFFCURVE",
"639 -298 CURVE SMOOTH",
"572 -298 OFFCURVE",
"496 -266 OFFCURVE",
"435 -231 CURVE SMOOTH",
"381 -202 OFFCURVE",
"301 -144 OFFCURVE",
"256 -115 CURVE SMOOTH",
"200 -79 OFFCURVE",
"147 -52 OFFCURVE",
"94 -52 CURVE SMOOTH",
"59 -52 OFFCURVE",
"25 -86 OFFCURVE",
"25 -112 CURVE SMOOTH",
"24 -122 OFFCURVE",
"28 -128 OFFCURVE",
"32 -128 CURVE SMOOTH",
"35 -128 OFFCURVE",
"37 -124 OFFCURVE",
"38 -117 CURVE SMOOTH",
"41 -94 OFFCURVE",
"72 -77 OFFCURVE",
"94 -77 CURVE SMOOTH",
"141 -77 OFFCURVE",
"179 -107 OFFCURVE",
"222 -146 CURVE SMOOTH",
"334 -250 OFFCURVE",
"448 -339 OFFCURVE",
"609 -339 CURVE SMOOTH"
);
}
);
userData = {
assembly = "SVTCA[0]	/* SetFreedomAndProjectionVectorToAxis */\012PUSHW[ ]	/* 4 values pushed */\01269 2 56 4 \012CALL[ ]	/* CallFunction */\012IUP[0]	/* InterpolateUntPts */\012IUP[1]	/* InterpolateUntPts */";
};
width = 639;
}
);
note = Q;
},
{
glyphname = R.ss01;
lastChange = "2021-08-02 21:05:32 +0000";
layers = (
{
anchors = (
{
name = bottom;
position = "{429, 0}";
},
{
name = top;
position = "{861, 659}";
}
);
layerId = "1C8B4FDB-B0E8-4411-8E26-068C67144FEF";
paths = (
{
closed = 1;
nodes = (
"196 -33 OFFCURVE",
"268 -2 OFFCURVE",
"331 57 CURVE SMOOTH",
"398 121 OFFCURVE",
"448 193 OFFCURVE",
"499 276 CURVE",
"518 274 LINE",
"518 269 LINE SMOOTH",
"527 194 OFFCURVE",
"537 83 OFFCURVE",
"609 8 CURVE SMOOTH",
"635 -18 OFFCURVE",
"663 -30 OFFCURVE",
"691 -30 CURVE SMOOTH",
"724 -30 OFFCURVE",
"757 -14 OFFCURVE",
"790 11 CURVE SMOOTH",
"807 26 OFFCURVE",
"835 58 OFFCURVE",
"858 85 CURVE SMOOTH",
"865 93 OFFCURVE",
"872 100 OFFCURVE",
"877 107 CURVE SMOOTH",
"886 119 LINE SMOOTH",
"891 126 OFFCURVE",
"893 135 OFFCURVE",
"893 141 CURVE SMOOTH",
"893 144 OFFCURVE",
"892 146 OFFCURVE",
"891 146 CURVE SMOOTH",
"890 146 OFFCURVE",
"889 146 OFFCURVE",
"887 144 CURVE SMOOTH",
"858 110 LINE SMOOTH",
"833 81 OFFCURVE",
"799 46 OFFCURVE",
"779 31 CURVE SMOOTH",
"758 16 OFFCURVE",
"739 9 OFFCURVE",
"722 9 CURVE SMOOTH",
"686 9 OFFCURVE",
"657 37 OFFCURVE",
"635 80 CURVE SMOOTH",
"606 137 OFFCURVE",
"586 221 OFFCURVE",
"577 273 CURVE",
"720 281 OFFCURVE",
"903 349 OFFCURVE",
"903 484 CURVE SMOOTH",
"903 523 OFFCURVE",
"880 564 OFFCURVE",
"819 599 CURVE SMOOTH",
"790 617 OFFCURVE",
"758 631 OFFCURVE",
"721 640 CURVE",
"736 655 OFFCURVE",
"751 666 OFFCURVE",
"759 671 CURVE SMOOTH",
"768 677 OFFCURVE",
"773 682 OFFCURVE",
"773 685 CURVE SMOOTH",
"773 687 OFFCURVE",
"771 688 OFFCURVE",
"768 688 CURVE SMOOTH",
"764 688 OFFCURVE",
"759 687 OFFCURVE",
"751 684 CURVE SMOOTH",
"726 675 OFFCURVE",
"704 663 OFFCURVE",
"687 649 CURVE",
"636 658 OFFCURVE",
"579 664 OFFCURVE",
"520 664 CURVE SMOOTH",
"472 664 OFFCURVE",
"422 660 OFFCURVE",
"374 650 CURVE SMOOTH",
"255 626 OFFCURVE",
"174 588 OFFCURVE",
"122 546 CURVE SMOOTH",
"96 525 OFFCURVE",
"77 503 OFFCURVE",
"66 481 CURVE SMOOTH",
"55 460 OFFCURVE",
"49 439 OFFCURVE",
"49 420 CURVE SMOOTH",
"49 380 OFFCURVE",
"73 345 OFFCURVE",
"117 327 CURVE SMOOTH",
"132 320 OFFCURVE",
"153 316 OFFCURVE",
"178 316 CURVE SMOOTH",
"204 316 OFFCURVE",
"234 321 OFFCURVE",
"267 331 CURVE SMOOTH",
"330 351 OFFCURVE",
"401 394 OFFCURVE",
"464 473 CURVE SMOOTH",
"467 476 OFFCURVE",
"468 479 OFFCURVE",
"468 481 CURVE SMOOTH",
"468 483 OFFCURVE",
"467 484 OFFCURVE",
"467 485 CURVE",
"464 487 OFFCURVE",
"462 487 OFFCURVE",
"460 484 CURVE SMOOTH",
"397 408 OFFCURVE",
"265 334 OFFCURVE",
"172 334 CURVE SMOOTH",
"155 334 OFFCURVE",
"140 336 OFFCURVE",
"127 341 CURVE SMOOTH",
"97 352 OFFCURVE",
"82 374 OFFCURVE",
"82 400 CURVE SMOOTH",
"82 421 OFFCURVE",
"91 444 OFFCURVE",
"109 468 CURVE SMOOTH",
"148 523 OFFCURVE",
"230 581 OFFCURVE",
"350 613 CURVE SMOOTH",
"415 631 OFFCURVE",
"483 640 OFFCURVE",
"546 640 CURVE SMOOTH",
"588 640 OFFCURVE",
"629 636 OFFCURVE",
"664 627 CURVE",
"642 605 LINE SMOOTH",
"634 598 OFFCURVE",
"626 589 OFFCURVE",
"619 580 CURVE SMOOTH",
"546 499 OFFCURVE",
"494 402 OFFCURVE",
"446 311 CURVE SMOOTH",
"398 220 OFFCURVE",
"354 137 OFFCURVE",
"298 82 CURVE SMOOTH",
"243 28 OFFCURVE",
"183 -7 OFFCURVE",
"111 -7 CURVE SMOOTH",
"61 -7 OFFCURVE",
"32 22 OFFCURVE",
"32 56 CURVE SMOOTH",
"32 96 OFFCURVE",
"63 123 OFFCURVE",
"107 123 CURVE SMOOTH",
"122 123 OFFCURVE",
"138 120 OFFCURVE",
"156 113 CURVE",
"159 111 OFFCURVE",
"162 111 OFFCURVE",
"164 111 CURVE SMOOTH",
"168 111 OFFCURVE",
"170 113 OFFCURVE",
"170 115 CURVE SMOOTH",
"170 117 OFFCURVE",
"166 121 OFFCURVE",
"158 124 CURVE SMOOTH",
"131 133 OFFCURVE",
"107 137 OFFCURVE",
"85 137 CURVE SMOOTH",
"56 137 OFFCURVE",
"32 129 OFFCURVE",
"14 118 CURVE SMOOTH",
"-1 107 OFFCURVE",
"-12 94 OFFCURVE",
"-18 79 CURVE SMOOTH",
"-21 71 OFFCURVE",
"-22 62 OFFCURVE",
"-22 54 CURVE SMOOTH",
"-22 13 OFFCURVE",
"17 -23 OFFCURVE",
"82 -31 CURVE SMOOTH",
"94 -32 OFFCURVE",
"106 -33 OFFCURVE",
"117 -33 CURVE SMOOTH"
);
},
{
closed = 1;
nodes = (
"516 292 LINE",
"508 292 LINE",
"524 318 LINE SMOOTH",
"555 369 OFFCURVE",
"584 421 OFFCURVE",
"613 474 CURVE SMOOTH",
"642 526 OFFCURVE",
"673 575 OFFCURVE",
"705 620 CURVE",
"741 611 OFFCURVE",
"773 598 OFFCURVE",
"800 581 CURVE SMOOTH",
"836 558 OFFCURVE",
"848 528 OFFCURVE",
"848 497 CURVE SMOOTH",
"848 382 OFFCURVE",
"694 303 OFFCURVE",
"575 292 CURVE",
"575 294 LINE",
"574 297 LINE SMOOTH",
"572 308 OFFCURVE",
"565 313 OFFCURVE",
"556 313 CURVE SMOOTH",
"544 313 OFFCURVE",
"530 305 OFFCURVE",
"522 291 CURVE"
);
}
);
userData = {
assembly = "PUSHW[ ]	/* 4 values pushed */\01279 6 133 4 \012CALL[ ]	/* CallFunction */\012NPUSHW[ ]	/* 3 values pushed */\012250 133 1 \012DELTAP2[ ]	/* DeltaExceptionP2 */\012NPUSHW[ ]	/* 3 values pushed */\01210 133 1 \012DELTAP3[ ]	/* DeltaExceptionP3 */\012NPUSHW[ ]	/* 33 values pushed */\0129 133 25 133 41 133 57 133 73 133 89 133 105 133 121 133 137 133 153 133 169 133 185 133 201 133 217 133 233 133 249 133 16 \012DELTAP1[ ]	/* DeltaExceptionP1 */\012NPUSHW[ ]	/* 31 values pushed */\0129 133 25 133 41 133 57 133 73 133 89 133 105 133 121 133 137 133 153 133 169 133 185 133 201 133 217 133 233 133 15 \012DELTAP2[ ]	/* DeltaExceptionP2 */\012PUSHW[ ]	/* 1 value pushed */\01279 \012SRP0[ ]	/* SetRefPoint0 */\012PUSHW[ ]	/* 1 value pushed */\012144 \012MDRP[11100]	/* MoveDirectRelPt */\012IUP[0]	/* InterpolateUntPts */\012IUP[1]	/* InterpolateUntPts */";
};
width = 858;
}
);
note = R;
},
{
glyphname = S.ss01;
lastChange = "2021-08-02 21:05:32 +0000";
layers = (
{
anchors = (
{
name = bottom;
position = "{285, -69}";
},
{
name = top;
position = "{612, 693}";
}
);
layerId = "1C8B4FDB-B0E8-4411-8E26-068C67144FEF";
paths = (
{
closed = 1;
nodes = (
"382 -76 OFFCURVE",
"477 -56 OFFCURVE",
"549 -26 CURVE SMOOTH",
"648 18 OFFCURVE",
"717 88 OFFCURVE",
"736 184 CURVE SMOOTH",
"738 194 OFFCURVE",
"739 204 OFFCURVE",
"739 214 CURVE SMOOTH",
"739 257 OFFCURVE",
"718 292 OFFCURVE",
"687 322 CURVE SMOOTH",
"668 339 OFFCURVE",
"646 355 OFFCURVE",
"621 368 CURVE SMOOTH",
"571 394 OFFCURVE",
"520 413 OFFCURVE",
"480 428 CURVE SMOOTH",
"459 435 OFFCURVE",
"444 442 OFFCURVE",
"435 447 CURVE SMOOTH",
"399 467 OFFCURVE",
"382 495 OFFCURVE",
"382 523 CURVE SMOOTH",
"382 527 OFFCURVE",
"382 531 OFFCURVE",
"383 535 CURVE",
"446 516 OFFCURVE",
"513 509 OFFCURVE",
"570 509 CURVE SMOOTH",
"652 509 OFFCURVE",
"812 519 OFFCURVE",
"812 597 CURVE SMOOTH",
"812 625 OFFCURVE",
"795 648 OFFCURVE",
"762 666 CURVE SMOOTH",
"728 684 OFFCURVE",
"675 693 OFFCURVE",
"602 693 CURVE SMOOTH",
"492 693 OFFCURVE",
"402 647 OFFCURVE",
"356 589 CURVE",
"308 616 OFFCURVE",
"272 647 OFFCURVE",
"263 688 CURVE SMOOTH",
"258 710 OFFCURVE",
"276 758 OFFCURVE",
"300 772 CURVE SMOOTH",
"304 775 OFFCURVE",
"306 777 OFFCURVE",
"306 778 CURVE SMOOTH",
"306 779 OFFCURVE",
"305 780 OFFCURVE",
"303 780 CURVE SMOOTH",
"302 780 OFFCURVE",
"300 780 OFFCURVE",
"297 779 CURVE SMOOTH",
"268 769 OFFCURVE",
"241 731 OFFCURVE",
"235 707 CURVE SMOOTH",
"231 695 OFFCURVE",
"229 683 OFFCURVE",
"229 671 CURVE SMOOTH",
"229 648 OFFCURVE",
"237 626 OFFCURVE",
"253 608 CURVE SMOOTH",
"274 585 OFFCURVE",
"302 568 OFFCURVE",
"335 553 CURVE",
"330 539 OFFCURVE",
"327 525 OFFCURVE",
"327 511 CURVE SMOOTH",
"327 465 OFFCURVE",
"357 422 OFFCURVE",
"422 391 CURVE SMOOTH",
"461 372 OFFCURVE",
"536 346 OFFCURVE",
"581 321 CURVE SMOOTH",
"632 292 OFFCURVE",
"672 252 OFFCURVE",
"672 192 CURVE SMOOTH",
"672 124 OFFCURVE",
"625 56 OFFCURVE",
"546 8 CURVE SMOOTH",
"482 -32 OFFCURVE",
"391 -56 OFFCURVE",
"304 -56 CURVE SMOOTH",
"224 -56 OFFCURVE",
"148 -36 OFFCURVE",
"100 8 CURVE SMOOTH",
"63 42 OFFCURVE",
"46 80 OFFCURVE",
"46 115 CURVE SMOOTH",
"46 194 OFFCURVE",
"132 262 OFFCURVE",
"263 262 CURVE SMOOTH",
"321 262 OFFCURVE",
"429 220 OFFCURVE",
"445 194 CURVE SMOOTH",
"450 186 OFFCURVE",
"456 182 OFFCURVE",
"460 182 CURVE SMOOTH",
"462 182 OFFCURVE",
"464 184 OFFCURVE",
"464 187 CURVE SMOOTH",
"464 190 OFFCURVE",
"462 195 OFFCURVE",
"457 202 CURVE SMOOTH",
"408 270 OFFCURVE",
"299 292 OFFCURVE",
"238 292 CURVE SMOOTH",
"168 292 OFFCURVE",
"110 274 OFFCURVE",
"69 246 CURVE SMOOTH",
"45 229 OFFCURVE",
"27 210 OFFCURVE",
"14 188 CURVE SMOOTH",
"0 166 OFFCURVE",
"-7 142 OFFCURVE",
"-7 117 CURVE SMOOTH",
"-7 94 OFFCURVE",
"0 70 OFFCURVE",
"13 46 CURVE SMOOTH",
"26 22 OFFCURVE",
"47 0 OFFCURVE",
"76 -21 CURVE SMOOTH",
"132 -60 OFFCURVE",
"210 -76 OFFCURVE",
"291 -76 CURVE SMOOTH"
);
},
{
closed = 1;
nodes = (
"552 530 OFFCURVE",
"469 544 OFFCURVE",
"398 571 CURVE",
"400 575 LINE",
"436 623 OFFCURVE",
"520 675 OFFCURVE",
"618 675 CURVE SMOOTH",
"626 675 OFFCURVE",
"634 675 OFFCURVE",
"642 674 CURVE SMOOTH",
"723 666 OFFCURVE",
"775 631 OFFCURVE",
"775 592 CURVE SMOOTH",
"775 542 OFFCURVE",
"665 530 OFFCURVE",
"624 530 CURVE SMOOTH"
);
}
);
width = 766;
}
);
note = S;
},
{
color = 0;
glyphname = Germandbls.ss01;
lastChange = "2021-08-03 01:06:04 +0000";
layers = (
{
layerId = "1C8B4FDB-B0E8-4411-8E26-068C67144FEF";
paths = (
{
closed = 1;
nodes = (
"-183 -264 OFFCURVE",
"-165 -270 OFFCURVE",
"-134 -250 CURVE SMOOTH",
"-4 -169 OFFCURVE",
"188 280 OFFCURVE",
"274 426 CURVE SMOOTH",
"310 486 OFFCURVE",
"367 542 OFFCURVE",
"433 542 CURVE SMOOTH",
"467 542 OFFCURVE",
"508 518 OFFCURVE",
"443 449 CURVE SMOOTH",
"407 411 OFFCURVE",
"377 381 OFFCURVE",
"291 329 CURVE SMOOTH",
"283 325 OFFCURVE",
"284 320 OFFCURVE",
"283 314 CURVE SMOOTH",
"279 290 OFFCURVE",
"346 263 OFFCURVE",
"329 156 CURVE SMOOTH",
"317 78 OFFCURVE",
"260 0 OFFCURVE",
"199 0 CURVE SMOOTH",
"169 0 OFFCURVE",
"146 29 OFFCURVE",
"149 45 CURVE SMOOTH",
"163 134 OFFCURVE",
"258 158 OFFCURVE",
"252 165 CURVE SMOOTH",
"239 181 OFFCURVE",
"125 136 OFFCURVE",
"114 63 CURVE SMOOTH",
"107 17 OFFCURVE",
"129 -18 OFFCURVE",
"199 -18 CURVE SMOOTH",
"308 -18 OFFCURVE",
"380 78 OFFCURVE",
"391 151 CURVE SMOOTH",
"406 248 OFFCURVE",
"343 285 OFFCURVE",
"313 303 CURVE SMOOTH",
"310 306 OFFCURVE",
"312 308 OFFCURVE",
"312 311 CURVE SMOOTH",
"314 324 OFFCURVE",
"334 329 OFFCURVE",
"359 337 CURVE SMOOTH",
"552 402 OFFCURVE",
"580 563 OFFCURVE",
"444 563 CURVE SMOOTH",
"331 563 OFFCURVE",
"276 506 OFFCURVE",
"252 469 CURVE SMOOTH",
"147 310 OFFCURVE",
"-22 -84 OFFCURVE",
"-141 -217 CURVE SMOOTH"
);
}
);
width = 409;
}
);
},
{
glyphname = T.ss01;
lastChange = "2021-08-02 21:05:32 +0000";
layers = (
{
anchors = (
{
name = bottom;
position = "{252, -15}";
},
{
name = center;
position = "{319, 440}";
},
{
name = top;
position = "{737, 691}";
}
);
layerId = "1C8B4FDB-B0E8-4411-8E26-068C67144FEF";
paths = (
{
closed = 1;
nodes = (
"512 -52 OFFCURVE",
"530 -24 OFFCURVE",
"585 31 CURVE SMOOTH",
"616 60 OFFCURVE",
"644 92 OFFCURVE",
"655 108 CURVE SMOOTH",
"661 116 OFFCURVE",
"656 122 OFFCURVE",
"651 122 CURVE SMOOTH",
"649 122 OFFCURVE",
"647 121 OFFCURVE",
"645 119 CURVE SMOOTH",
"626 99 OFFCURVE",
"595 65 OFFCURVE",
"562 37 CURVE SMOOTH",
"520 1 OFFCURVE",
"460 -9 OFFCURVE",
"402 -9 CURVE SMOOTH",
"362 -9 OFFCURVE",
"324 -5 OFFCURVE",
"292 0 CURVE",
"377 61 OFFCURVE",
"432 149 OFFCURVE",
"490 248 CURVE SMOOTH",
"550 349 OFFCURVE",
"624 517 OFFCURVE",
"686 604 CURVE",
"747 594 OFFCURVE",
"781 577 OFFCURVE",
"848 577 CURVE SMOOTH",
"860 577 OFFCURVE",
"872 578 OFFCURVE",
"886 579 CURVE SMOOTH",
"947 583 OFFCURVE",
"989 624 OFFCURVE",
"989 662 CURVE SMOOTH",
"989 671 OFFCURVE",
"987 677 OFFCURVE",
"985 677 CURVE SMOOTH",
"981 677 OFFCURVE",
"977 671 OFFCURVE",
"972 657 CURVE SMOOTH",
"958 619 OFFCURVE",
"901 605 OFFCURVE",
"847 605 CURVE SMOOTH",
"796 605 OFFCURVE",
"731 614 OFFCURVE",
"699 623 CURVE",
"712 640 OFFCURVE",
"733 668 OFFCURVE",
"755 665 CURVE",
"758 662 OFFCURVE",
"761 661 OFFCURVE",
"763 661 CURVE SMOOTH",
"767 661 OFFCURVE",
"770 665 OFFCURVE",
"770 670 CURVE SMOOTH",
"770 678 OFFCURVE",
"764 685 OFFCURVE",
"750 685 CURVE SMOOTH",
"715 685 OFFCURVE",
"688 648 OFFCURVE",
"677 629 CURVE",
"578 650 OFFCURVE",
"485 667 OFFCURVE",
"390 667 CURVE SMOOTH",
"362 667 OFFCURVE",
"333 665 OFFCURVE",
"305 662 CURVE SMOOTH",
"187 648 OFFCURVE",
"17 588 OFFCURVE",
"17 462 CURVE SMOOTH",
"17 411 OFFCURVE",
"54 367 OFFCURVE",
"139 367 CURVE SMOOTH",
"266 367 OFFCURVE",
"409 454 OFFCURVE",
"477 534 CURVE SMOOTH",
"483 542 OFFCURVE",
"486 546 OFFCURVE",
"486 549 CURVE SMOOTH",
"486 550 OFFCURVE",
"485 551 OFFCURVE",
"484 551 CURVE SMOOTH",
"481 551 OFFCURVE",
"478 550 OFFCURVE",
"473 547 CURVE",
"393 478 OFFCURVE",
"275 394 OFFCURVE",
"164 394 CURVE SMOOTH",
"92 394 OFFCURVE",
"62 421 OFFCURVE",
"62 456 CURVE SMOOTH",
"62 508 OFFCURVE",
"115 552 OFFCURVE",
"171 579 CURVE SMOOTH",
"225 605 OFFCURVE",
"303 626 OFFCURVE",
"351 632 CURVE SMOOTH",
"380 636 OFFCURVE",
"408 638 OFFCURVE",
"436 638 CURVE SMOOTH",
"514 638 OFFCURVE",
"589 625 OFFCURVE",
"664 611 CURVE",
"560 493 OFFCURVE",
"497 379 OFFCURVE",
"445 282 CURVE SMOOTH",
"398 190 OFFCURVE",
"322 60 OFFCURVE",
"265 6 CURVE",
"198 12 OFFCURVE",
"140 26 OFFCURVE",
"69 26 CURVE SMOOTH",
"50 26 OFFCURVE",
"37 23 OFFCURVE",
"32 18 CURVE SMOOTH",
"26 13 OFFCURVE",
"23 7 OFFCURVE",
"23 2 CURVE SMOOTH",
"23 -26 OFFCURVE",
"75 -36 OFFCURVE",
"133 -36 CURVE SMOOTH",
"187 -36 OFFCURVE",
"248 -27 OFFCURVE",
"276 -15 CURVE",
"307 -18 OFFCURVE",
"346 -29 OFFCURVE",
"386 -40 CURVE SMOOTH",
"418 -48 OFFCURVE",
"442 -52 OFFCURVE",
"461 -52 CURVE SMOOTH"
);
}
);
width = 637;
}
);
note = T;
},
{
glyphname = Tbar.ss01;
lastChange = "2021-08-02 21:05:32 +0000";
layers = (
{
layerId = "1C8B4FDB-B0E8-4411-8E26-068C67144FEF";
paths = (
{
closed = 1;
nodes = (
"512 -52 OFFCURVE",
"530 -24 OFFCURVE",
"585 31 CURVE SMOOTH",
"616 60 OFFCURVE",
"644 92 OFFCURVE",
"655 108 CURVE SMOOTH",
"661 116 OFFCURVE",
"656 122 OFFCURVE",
"651 122 CURVE SMOOTH",
"649 122 OFFCURVE",
"647 121 OFFCURVE",
"645 119 CURVE SMOOTH",
"626 99 OFFCURVE",
"595 65 OFFCURVE",
"562 37 CURVE SMOOTH",
"520 1 OFFCURVE",
"460 -9 OFFCURVE",
"402 -9 CURVE SMOOTH",
"362 -9 OFFCURVE",
"324 -5 OFFCURVE",
"292 0 CURVE",
"377 61 OFFCURVE",
"432 149 OFFCURVE",
"490 248 CURVE SMOOTH",
"513 285 OFFCURVE",
"534 325 OFFCURVE",
"555 368 CURVE",
"569 368 OFFCURVE",
"582 369 OFFCURVE",
"595 369 CURVE SMOOTH",
"619 369 OFFCURVE",
"641 368 OFFCURVE",
"660 366 CURVE SMOOTH",
"687 363 OFFCURVE",
"702 360 OFFCURVE",
"705 357 CURVE",
"705 378 OFFCURVE",
"704 402 OFFCURVE",
"665 405 CURVE SMOOTH",
"650 406 OFFCURVE",
"616 405 OFFCURVE",
"573 404 CURVE",
"610 479 OFFCURVE",
"647 551 OFFCURVE",
"686 604 CURVE",
"747 594 OFFCURVE",
"781 577 OFFCURVE",
"848 577 CURVE SMOOTH",
"860 577 OFFCURVE",
"872 578 OFFCURVE",
"886 579 CURVE SMOOTH",
"947 583 OFFCURVE",
"989 624 OFFCURVE",
"989 662 CURVE SMOOTH",
"989 671 OFFCURVE",
"987 677 OFFCURVE",
"985 677 CURVE SMOOTH",
"981 677 OFFCURVE",
"977 671 OFFCURVE",
"972 657 CURVE SMOOTH",
"958 619 OFFCURVE",
"901 605 OFFCURVE",
"847 605 CURVE SMOOTH",
"796 605 OFFCURVE",
"731 614 OFFCURVE",
"699 623 CURVE",
"712 640 OFFCURVE",
"733 668 OFFCURVE",
"755 665 CURVE",
"758 662 OFFCURVE",
"761 661 OFFCURVE",
"763 661 CURVE SMOOTH",
"767 661 OFFCURVE",
"770 665 OFFCURVE",
"770 670 CURVE SMOOTH",
"770 678 OFFCURVE",
"764 685 OFFCURVE",
"750 685 CURVE SMOOTH",
"715 685 OFFCURVE",
"688 648 OFFCURVE",
"677 629 CURVE",
"578 650 OFFCURVE",
"485 667 OFFCURVE",
"390 667 CURVE SMOOTH",
"362 667 OFFCURVE",
"333 665 OFFCURVE",
"305 662 CURVE SMOOTH",
"187 648 OFFCURVE",
"17 588 OFFCURVE",
"17 462 CURVE SMOOTH",
"17 411 OFFCURVE",
"54 367 OFFCURVE",
"139 367 CURVE SMOOTH",
"266 367 OFFCURVE",
"409 454 OFFCURVE",
"477 534 CURVE SMOOTH",
"483 542 OFFCURVE",
"486 546 OFFCURVE",
"486 549 CURVE SMOOTH",
"486 550 OFFCURVE",
"485 551 OFFCURVE",
"484 551 CURVE SMOOTH",
"481 551 OFFCURVE",
"478 550 OFFCURVE",
"473 547 CURVE",
"393 478 OFFCURVE",
"275 394 OFFCURVE",
"164 394 CURVE SMOOTH",
"92 394 OFFCURVE",
"62 421 OFFCURVE",
"62 456 CURVE SMOOTH",
"62 508 OFFCURVE",
"115 552 OFFCURVE",
"171 579 CURVE SMOOTH",
"225 605 OFFCURVE",
"303 626 OFFCURVE",
"351 632 CURVE SMOOTH",
"380 636 OFFCURVE",
"408 638 OFFCURVE",
"436 638 CURVE SMOOTH",
"514 638 OFFCURVE",
"589 625 OFFCURVE",
"664 611 CURVE",
"595 532 OFFCURVE",
"548 464 OFFCURVE",
"511 401 CURVE",
"482 400 OFFCURVE",
"444 399 OFFCURVE",
"412 399 CURVE SMOOTH",
"385 399 OFFCURVE",
"361 400 OFFCURVE",
"350 402 CURVE",
"350 379 OFFCURVE",
"356 359 OFFCURVE",
"388 359 CURVE SMOOTH",
"401 359 OFFCURVE",
"416 360 OFFCURVE",
"433 361 CURVE SMOOTH",
"490 365 LINE",
"481 350 OFFCURVE",
"474 336 OFFCURVE",
"467 323 CURVE SMOOTH",
"445 282 LINE SMOOTH",
"398 190 OFFCURVE",
"322 60 OFFCURVE",
"265 6 CURVE",
"198 12 OFFCURVE",
"140 26 OFFCURVE",
"69 26 CURVE SMOOTH",
"50 26 OFFCURVE",
"37 23 OFFCURVE",
"32 18 CURVE SMOOTH",
"26 13 OFFCURVE",
"23 7 OFFCURVE",
"23 2 CURVE SMOOTH",
"23 -26 OFFCURVE",
"75 -36 OFFCURVE",
"133 -36 CURVE SMOOTH",
"187 -36 OFFCURVE",
"248 -27 OFFCURVE",
"276 -15 CURVE",
"307 -18 OFFCURVE",
"346 -29 OFFCURVE",
"386 -40 CURVE SMOOTH",
"418 -48 OFFCURVE",
"442 -52 OFFCURVE",
"461 -52 CURVE SMOOTH"
);
}
);
userData = {
assembly = "PUSHW[ ]	/* 4 values pushed */\01280 6 101 4 \012CALL[ ]	/* CallFunction */\012PUSHW[ ]	/* 1 value pushed */\012101 \012SRP0[ ]	/* SetRefPoint0 */\012PUSHW[ ]	/* 1 value pushed */\01238 \012MDRP[10000]	/* MoveDirectRelPt */\012PUSHW[ ]	/* 1 value pushed */\01238 \012MDAP[1]	/* MoveDirectAbsPt */\012NPUSHW[ ]	/* 33 values pushed */\0126 80 22 80 38 80 54 80 70 80 86 80 102 80 118 80 134 80 150 80 166 80 182 80 198 80 214 80 230 80 246 80 16 \012DELTAP1[ ]	/* DeltaExceptionP1 */\012NPUSHW[ ]	/* 31 values pushed */\0126 80 22 80 38 80 54 80 70 80 86 80 102 80 118 80 134 80 150 80 166 80 182 80 198 80 214 80 230 80 15 \012DELTAP2[ ]	/* DeltaExceptionP2 */\012NPUSHW[ ]	/* 3 values pushed */\012245 80 1 \012DELTAP2[ ]	/* DeltaExceptionP2 */\012NPUSHW[ ]	/* 3 values pushed */\0125 80 1 \012DELTAP3[ ]	/* DeltaExceptionP3 */\012IUP[0]	/* InterpolateUntPts */\012IUP[1]	/* InterpolateUntPts */";
};
width = 637;
}
);
note = Tbar;
},
